<mxfile host="65bd71144e">
    <diagram id="Fg7w0YmAXsCTtxTZ8sKO" name="Page-1">
        <mxGraphModel dx="1450" dy="808" grid="1" gridSize="10" guides="1" tooltips="1" connect="1" arrows="1" fold="1" page="1" pageScale="1" pageWidth="850" pageHeight="1100" math="0" shadow="0">
            <root>
                <mxCell id="0"/>
                <mxCell id="1" parent="0"/>
                <mxCell id="2" value="" style="endArrow=classic;html=1;" edge="1" parent="1">
                    <mxGeometry width="50" height="50" relative="1" as="geometry">
                        <mxPoint x="110" y="250" as="sourcePoint"/>
                        <mxPoint x="260" y="250" as="targetPoint"/>
                    </mxGeometry>
                </mxCell>
                <mxCell id="4" style="edgeStyle=none;html=1;" edge="1" parent="1" source="3">
                    <mxGeometry relative="1" as="geometry">
                        <mxPoint x="500" y="250" as="targetPoint"/>
                    </mxGeometry>
                </mxCell>
                <mxCell id="3" value="" style="rounded=1;whiteSpace=wrap;html=1;" vertex="1" parent="1">
                    <mxGeometry x="260" y="220" width="120" height="60" as="geometry"/>
                </mxCell>
                <mxCell id="5" value="X[n]" style="text;html=1;strokeColor=none;fillColor=none;align=center;verticalAlign=middle;whiteSpace=wrap;rounded=0;" vertex="1" parent="1">
                    <mxGeometry x="90" y="210" width="60" height="30" as="geometry"/>
                </mxCell>
                <mxCell id="6" value="Y[n]" style="text;html=1;strokeColor=none;fillColor=none;align=center;verticalAlign=middle;whiteSpace=wrap;rounded=0;" vertex="1" parent="1">
                    <mxGeometry x="460" y="210" width="60" height="30" as="geometry"/>
                </mxCell>
                <mxCell id="7" value="H[n]" style="text;html=1;strokeColor=none;fillColor=none;align=center;verticalAlign=middle;whiteSpace=wrap;rounded=0;" vertex="1" parent="1">
                    <mxGeometry x="290" y="235" width="60" height="30" as="geometry"/>
                </mxCell>
                <mxCell id="9" value="K = 4" style="text;html=1;strokeColor=none;fillColor=none;align=center;verticalAlign=middle;whiteSpace=wrap;rounded=0;" vertex="1" parent="1">
                    <mxGeometry x="100" y="330" width="120" height="30" as="geometry"/>
                </mxCell>
                <mxCell id="10" value="b0&lt;span style=&quot;white-space: pre;&quot;&gt;&#9;&lt;/span&gt;b1&lt;span style=&quot;white-space: pre;&quot;&gt;&#9;&lt;/span&gt;b2&lt;span style=&quot;white-space: pre;&quot;&gt;&#9;&lt;/span&gt;b3" style="text;html=1;strokeColor=none;fillColor=none;align=center;verticalAlign=middle;whiteSpace=wrap;rounded=0;" vertex="1" parent="1">
                    <mxGeometry x="100" y="360" width="120" height="30" as="geometry"/>
                </mxCell>
                <mxCell id="11" value="1/4&lt;span style=&quot;white-space: pre;&quot;&gt;&#9;&lt;/span&gt;1/4&lt;span style=&quot;white-space: pre;&quot;&gt;&#9;&lt;/span&gt;1/4&lt;span style=&quot;white-space: pre;&quot;&gt;&#9;&lt;/span&gt;1/4" style="text;html=1;strokeColor=none;fillColor=none;align=center;verticalAlign=middle;whiteSpace=wrap;rounded=0;" vertex="1" parent="1">
                    <mxGeometry x="100" y="380" width="120" height="30" as="geometry"/>
                </mxCell>
                <mxCell id="12" value="Y[n] = b0 * x * [n] + b1 * x * [n-1] + b2 * x * [n-2]+ b3 * x * [n-3]&amp;nbsp;" style="text;html=1;strokeColor=none;fillColor=none;align=center;verticalAlign=middle;whiteSpace=wrap;rounded=0;" vertex="1" parent="1">
                    <mxGeometry x="100" y="420" width="360" height="30" as="geometry"/>
                </mxCell>
                <mxCell id="14" value="" style="endArrow=none;dashed=1;html=1;dashPattern=1 3;strokeWidth=2;" edge="1" parent="1">
                    <mxGeometry width="50" height="50" relative="1" as="geometry">
                        <mxPoint x="40" y="480" as="sourcePoint"/>
                        <mxPoint x="561.6000366210938" y="480" as="targetPoint"/>
                    </mxGeometry>
                </mxCell>
                <mxCell id="15" value="MedÃ­a movel" style="text;html=1;strokeColor=none;fillColor=none;align=center;verticalAlign=middle;whiteSpace=wrap;rounded=0;" vertex="1" parent="1">
                    <mxGeometry x="100" y="300" width="120" height="30" as="geometry"/>
                </mxCell>
                <mxCell id="16" value="h[n] =&amp;nbsp; (a^n)*(u[n] - u[n-2])" style="text;html=1;strokeColor=none;fillColor=none;align=center;verticalAlign=middle;whiteSpace=wrap;rounded=0;" vertex="1" parent="1">
                    <mxGeometry x="100" y="510" width="160" height="30" as="geometry"/>
                </mxCell>
                <mxCell id="17" value="a =1/2" style="text;html=1;strokeColor=none;fillColor=none;align=center;verticalAlign=middle;whiteSpace=wrap;rounded=0;" vertex="1" parent="1">
                    <mxGeometry x="100" y="540" width="60" height="30" as="geometry"/>
                </mxCell>
                <mxCell id="18" value="1 , n &amp;gt;= 0" style="text;html=1;strokeColor=none;fillColor=none;align=center;verticalAlign=middle;whiteSpace=wrap;rounded=0;" vertex="1" parent="1">
                    <mxGeometry x="445" y="490" width="70" height="30" as="geometry"/>
                </mxCell>
                <mxCell id="19" value="0 ,n &amp;lt; 0" style="text;html=1;strokeColor=none;fillColor=none;align=center;verticalAlign=middle;whiteSpace=wrap;rounded=0;" vertex="1" parent="1">
                    <mxGeometry x="450" y="515" width="65" height="30" as="geometry"/>
                </mxCell>
                <mxCell id="142" style="edgeStyle=none;html=1;entryX=0.5;entryY=0;entryDx=0;entryDy=0;entryPerimeter=0;" edge="1" parent="1" source="20" target="140">
                    <mxGeometry relative="1" as="geometry"/>
                </mxCell>
                <mxCell id="20" value="" style="shape=curlyBracket;whiteSpace=wrap;html=1;rounded=1;labelPosition=left;verticalLabelPosition=middle;align=right;verticalAlign=middle;" vertex="1" parent="1">
                    <mxGeometry x="425" y="495" width="20" height="50" as="geometry"/>
                </mxCell>
                <mxCell id="21" value="u[n]" style="text;html=1;strokeColor=none;fillColor=none;align=center;verticalAlign=middle;whiteSpace=wrap;rounded=0;" vertex="1" parent="1">
                    <mxGeometry x="395" y="512.5" width="25" height="15" as="geometry"/>
                </mxCell>
                <mxCell id="22" value="1 , n &amp;gt;= 2" style="text;html=1;strokeColor=none;fillColor=none;align=center;verticalAlign=middle;whiteSpace=wrap;rounded=0;" vertex="1" parent="1">
                    <mxGeometry x="445" y="620" width="70" height="30" as="geometry"/>
                </mxCell>
                <mxCell id="23" value="0 ,n &amp;lt; 2" style="text;html=1;strokeColor=none;fillColor=none;align=center;verticalAlign=middle;whiteSpace=wrap;rounded=0;" vertex="1" parent="1">
                    <mxGeometry x="445" y="645" width="70" height="30" as="geometry"/>
                </mxCell>
                <mxCell id="144" style="edgeStyle=none;html=1;entryX=0.5;entryY=1;entryDx=0;entryDy=0;entryPerimeter=0;" edge="1" parent="1" source="24" target="140">
                    <mxGeometry relative="1" as="geometry"/>
                </mxCell>
                <mxCell id="24" value="" style="shape=curlyBracket;whiteSpace=wrap;html=1;rounded=1;labelPosition=left;verticalLabelPosition=middle;align=right;verticalAlign=middle;" vertex="1" parent="1">
                    <mxGeometry x="425" y="630" width="20" height="40" as="geometry"/>
                </mxCell>
                <mxCell id="25" value="u[n-2]" style="text;html=1;strokeColor=none;fillColor=none;align=center;verticalAlign=middle;whiteSpace=wrap;rounded=0;" vertex="1" parent="1">
                    <mxGeometry x="390" y="642.5" width="35" height="15" as="geometry"/>
                </mxCell>
                <mxCell id="29" value="u[n] - u[n-2]" style="text;html=1;strokeColor=none;fillColor=none;align=center;verticalAlign=middle;whiteSpace=wrap;rounded=0;" vertex="1" parent="1">
                    <mxGeometry x="530" y="568.75" width="70" height="30" as="geometry"/>
                </mxCell>
                <mxCell id="31" value="0 , n &amp;gt; 2" style="text;html=1;strokeColor=none;fillColor=none;align=center;verticalAlign=middle;whiteSpace=wrap;rounded=0;" vertex="1" parent="1">
                    <mxGeometry x="615" y="545" width="70" height="30" as="geometry"/>
                </mxCell>
                <mxCell id="32" value="0 ,n &amp;lt; 0" style="text;html=1;strokeColor=none;fillColor=none;align=center;verticalAlign=middle;whiteSpace=wrap;rounded=0;" vertex="1" parent="1">
                    <mxGeometry x="615" y="572.5" width="70" height="27.5" as="geometry"/>
                </mxCell>
                <mxCell id="33" value="" style="shape=curlyBracket;whiteSpace=wrap;html=1;rounded=1;labelPosition=left;verticalLabelPosition=middle;align=right;verticalAlign=middle;" vertex="1" parent="1">
                    <mxGeometry x="600" y="545" width="20" height="77.5" as="geometry"/>
                </mxCell>
                <mxCell id="34" value="0 , 0 =&amp;lt; n =&amp;lt; 2" style="text;html=1;strokeColor=none;fillColor=none;align=center;verticalAlign=middle;whiteSpace=wrap;rounded=0;" vertex="1" parent="1">
                    <mxGeometry x="615" y="595" width="100" height="30" as="geometry"/>
                </mxCell>
                <mxCell id="35" value="" style="endArrow=classic;html=1;" edge="1" parent="1">
                    <mxGeometry width="50" height="50" relative="1" as="geometry">
                        <mxPoint x="365" y="830" as="sourcePoint"/>
                        <mxPoint x="540" y="830" as="targetPoint"/>
                    </mxGeometry>
                </mxCell>
                <mxCell id="36" value="" style="endArrow=none;html=1;" edge="1" parent="1">
                    <mxGeometry width="50" height="50" relative="1" as="geometry">
                        <mxPoint x="410" y="830" as="sourcePoint"/>
                        <mxPoint x="410" y="790" as="targetPoint"/>
                    </mxGeometry>
                </mxCell>
                <mxCell id="37" value="" style="endArrow=none;html=1;" edge="1" parent="1">
                    <mxGeometry width="50" height="50" relative="1" as="geometry">
                        <mxPoint x="429" y="830" as="sourcePoint"/>
                        <mxPoint x="429" y="790" as="targetPoint"/>
                    </mxGeometry>
                </mxCell>
                <mxCell id="39" value="" style="endArrow=classic;html=1;" edge="1" parent="1">
                    <mxGeometry width="50" height="50" relative="1" as="geometry">
                        <mxPoint x="370" y="920" as="sourcePoint"/>
                        <mxPoint x="545" y="920" as="targetPoint"/>
                    </mxGeometry>
                </mxCell>
                <mxCell id="40" value="" style="endArrow=none;html=1;" edge="1" parent="1">
                    <mxGeometry width="50" height="50" relative="1" as="geometry">
                        <mxPoint x="415" y="920" as="sourcePoint"/>
                        <mxPoint x="415" y="880" as="targetPoint"/>
                    </mxGeometry>
                </mxCell>
                <mxCell id="41" value="" style="endArrow=none;html=1;" edge="1" parent="1">
                    <mxGeometry width="50" height="50" relative="1" as="geometry">
                        <mxPoint x="434" y="920" as="sourcePoint"/>
                        <mxPoint x="434" y="900" as="targetPoint"/>
                    </mxGeometry>
                </mxCell>
                <mxCell id="43" value="(a^n)*(u[n] - u[n-2])" style="text;html=1;strokeColor=none;fillColor=none;align=center;verticalAlign=middle;whiteSpace=wrap;rounded=0;" vertex="1" parent="1">
                    <mxGeometry x="340" y="840" width="160" height="30" as="geometry"/>
                </mxCell>
                <mxCell id="44" value="1/2" style="text;html=1;strokeColor=none;fillColor=none;align=center;verticalAlign=middle;whiteSpace=wrap;rounded=0;" vertex="1" parent="1">
                    <mxGeometry x="435" y="890" width="30" height="20" as="geometry"/>
                </mxCell>
                <mxCell id="45" value="1" style="text;html=1;strokeColor=none;fillColor=none;align=center;verticalAlign=middle;whiteSpace=wrap;rounded=0;" vertex="1" parent="1">
                    <mxGeometry x="385" y="870" width="30" height="20" as="geometry"/>
                </mxCell>
                <mxCell id="46" value="x[n] = 2&amp;amp;[n] + 2&amp;amp;[n-3]" style="text;html=1;strokeColor=none;fillColor=none;align=center;verticalAlign=middle;whiteSpace=wrap;rounded=0;" vertex="1" parent="1">
                    <mxGeometry x="90" y="635" width="160" height="30" as="geometry"/>
                </mxCell>
                <mxCell id="47" value="" style="endArrow=classic;html=1;" edge="1" parent="1">
                    <mxGeometry width="50" height="50" relative="1" as="geometry">
                        <mxPoint x="90" y="725" as="sourcePoint"/>
                        <mxPoint x="265" y="725" as="targetPoint"/>
                    </mxGeometry>
                </mxCell>
                <mxCell id="48" value="" style="endArrow=none;html=1;" edge="1" parent="1">
                    <mxGeometry width="50" height="50" relative="1" as="geometry">
                        <mxPoint x="127.5" y="725" as="sourcePoint"/>
                        <mxPoint x="127.5" y="685" as="targetPoint"/>
                    </mxGeometry>
                </mxCell>
                <mxCell id="49" value="" style="endArrow=none;html=1;" edge="1" parent="1">
                    <mxGeometry width="50" height="50" relative="1" as="geometry">
                        <mxPoint x="146.5" y="725" as="sourcePoint"/>
                        <mxPoint x="146.5" y="705" as="targetPoint"/>
                    </mxGeometry>
                </mxCell>
                <mxCell id="50" value="1/2" style="text;html=1;strokeColor=none;fillColor=none;align=center;verticalAlign=middle;whiteSpace=wrap;rounded=0;" vertex="1" parent="1">
                    <mxGeometry x="147.5" y="695" width="30" height="20" as="geometry"/>
                </mxCell>
                <mxCell id="51" value="" style="endArrow=none;html=1;" edge="1" parent="1">
                    <mxGeometry width="50" height="50" relative="1" as="geometry">
                        <mxPoint x="200" y="725" as="sourcePoint"/>
                        <mxPoint x="200" y="685" as="targetPoint"/>
                    </mxGeometry>
                </mxCell>
                <mxCell id="52" value="" style="endArrow=none;html=1;" edge="1" parent="1">
                    <mxGeometry width="50" height="50" relative="1" as="geometry">
                        <mxPoint x="219" y="725" as="sourcePoint"/>
                        <mxPoint x="219" y="705" as="targetPoint"/>
                    </mxGeometry>
                </mxCell>
                <mxCell id="53" value="1/2" style="text;html=1;strokeColor=none;fillColor=none;align=center;verticalAlign=middle;whiteSpace=wrap;rounded=0;" vertex="1" parent="1">
                    <mxGeometry x="220" y="695" width="30" height="20" as="geometry"/>
                </mxCell>
                <mxCell id="54" value="0" style="text;html=1;strokeColor=none;fillColor=none;align=center;verticalAlign=middle;whiteSpace=wrap;rounded=0;" vertex="1" parent="1">
                    <mxGeometry x="120" y="725" width="10" height="20" as="geometry"/>
                </mxCell>
                <mxCell id="55" value="1" style="text;html=1;strokeColor=none;fillColor=none;align=center;verticalAlign=middle;whiteSpace=wrap;rounded=0;" vertex="1" parent="1">
                    <mxGeometry x="137.5" y="725" width="10" height="20" as="geometry"/>
                </mxCell>
                <mxCell id="56" value="3" style="text;html=1;strokeColor=none;fillColor=none;align=center;verticalAlign=middle;whiteSpace=wrap;rounded=0;" vertex="1" parent="1">
                    <mxGeometry x="200" y="725" width="7.5" height="20" as="geometry"/>
                </mxCell>
                <mxCell id="57" value="4" style="text;html=1;strokeColor=none;fillColor=none;align=center;verticalAlign=middle;whiteSpace=wrap;rounded=0;" vertex="1" parent="1">
                    <mxGeometry x="212.5" y="725" width="7.5" height="20" as="geometry"/>
                </mxCell>
                <mxCell id="58" value="1" style="text;html=1;strokeColor=none;fillColor=none;align=center;verticalAlign=middle;whiteSpace=wrap;rounded=0;" vertex="1" parent="1">
                    <mxGeometry x="115" y="675" width="15" height="20" as="geometry"/>
                </mxCell>
                <mxCell id="59" value="1" style="text;html=1;strokeColor=none;fillColor=none;align=center;verticalAlign=middle;whiteSpace=wrap;rounded=0;" vertex="1" parent="1">
                    <mxGeometry x="190" y="675" width="15" height="20" as="geometry"/>
                </mxCell>
                <mxCell id="60" value="" style="endArrow=none;dashed=1;html=1;dashPattern=1 3;strokeWidth=2;" edge="1" parent="1">
                    <mxGeometry width="50" height="50" relative="1" as="geometry">
                        <mxPoint x="40" y="960" as="sourcePoint"/>
                        <mxPoint x="560" y="960" as="targetPoint"/>
                    </mxGeometry>
                </mxCell>
                <mxCell id="61" value="Dado que h[n] = (1/3)^n&amp;nbsp; (u[n] - u[n-3]) optenha:" style="text;html=1;strokeColor=none;fillColor=none;align=center;verticalAlign=middle;whiteSpace=wrap;rounded=0;" vertex="1" parent="1">
                    <mxGeometry x="147.5" y="980" width="330" height="30" as="geometry"/>
                </mxCell>
                <mxCell id="63" value="A) Y[n] para x[n]&amp;nbsp; = &amp;amp;[n]" style="text;html=1;strokeColor=none;fillColor=none;align=center;verticalAlign=middle;whiteSpace=wrap;rounded=0;" vertex="1" parent="1">
                    <mxGeometry x="147.5" y="1010" width="330" height="30" as="geometry"/>
                </mxCell>
                <mxCell id="64" value="B) Y[n] para x[n] = &amp;amp;[n-2]" style="text;html=1;strokeColor=none;fillColor=none;align=center;verticalAlign=middle;whiteSpace=wrap;rounded=0;" vertex="1" parent="1">
                    <mxGeometry x="147.5" y="1040" width="330" height="30" as="geometry"/>
                </mxCell>
                <mxCell id="65" value="C) Y[n] para x[n] = &amp;amp;[n] + &amp;amp;[n-2]" style="text;html=1;strokeColor=none;fillColor=none;align=center;verticalAlign=middle;whiteSpace=wrap;rounded=0;" vertex="1" parent="1">
                    <mxGeometry x="147.5" y="1070" width="330" height="30" as="geometry"/>
                </mxCell>
                <mxCell id="66" value="(u[n] - u[n-3])&amp;nbsp;" style="text;html=1;strokeColor=none;fillColor=none;align=center;verticalAlign=middle;whiteSpace=wrap;rounded=0;" vertex="1" parent="1">
                    <mxGeometry x="155" y="1160" width="330" height="30" as="geometry"/>
                </mxCell>
                <mxCell id="67" value="" style="endArrow=none;html=1;" edge="1" parent="1">
                    <mxGeometry width="50" height="50" relative="1" as="geometry">
                        <mxPoint x="197.5" y="1250" as="sourcePoint"/>
                        <mxPoint x="487.5" y="1250" as="targetPoint"/>
                    </mxGeometry>
                </mxCell>
                <mxCell id="68" value="" style="endArrow=none;html=1;" edge="1" parent="1">
                    <mxGeometry width="50" height="50" relative="1" as="geometry">
                        <mxPoint x="287.5" y="1250" as="sourcePoint"/>
                        <mxPoint x="287.5" y="1210" as="targetPoint"/>
                    </mxGeometry>
                </mxCell>
                <mxCell id="69" value="" style="endArrow=none;html=1;" edge="1" parent="1">
                    <mxGeometry width="50" height="50" relative="1" as="geometry">
                        <mxPoint x="367.5" y="1250" as="sourcePoint"/>
                        <mxPoint x="367.5" y="1210" as="targetPoint"/>
                    </mxGeometry>
                </mxCell>
                <mxCell id="71" value="0" style="text;html=1;strokeColor=none;fillColor=none;align=center;verticalAlign=middle;whiteSpace=wrap;rounded=0;" vertex="1" parent="1">
                    <mxGeometry x="277.5" y="1250" width="20" height="30" as="geometry"/>
                </mxCell>
                <mxCell id="72" value="2" style="text;html=1;strokeColor=none;fillColor=none;align=center;verticalAlign=middle;whiteSpace=wrap;rounded=0;" vertex="1" parent="1">
                    <mxGeometry x="357.5" y="1250" width="20" height="30" as="geometry"/>
                </mxCell>
                <mxCell id="73" value="&amp;nbsp;(1/3)^n&amp;nbsp; (u[n] - u[n-3])&amp;nbsp;" style="text;html=1;strokeColor=none;fillColor=none;align=center;verticalAlign=middle;whiteSpace=wrap;rounded=0;" vertex="1" parent="1">
                    <mxGeometry x="160" y="1280" width="330" height="30" as="geometry"/>
                </mxCell>
                <mxCell id="74" value="" style="endArrow=none;html=1;" edge="1" parent="1">
                    <mxGeometry width="50" height="50" relative="1" as="geometry">
                        <mxPoint x="190" y="1380" as="sourcePoint"/>
                        <mxPoint x="480" y="1380" as="targetPoint"/>
                    </mxGeometry>
                </mxCell>
                <mxCell id="75" value="" style="endArrow=none;html=1;" edge="1" parent="1">
                    <mxGeometry width="50" height="50" relative="1" as="geometry">
                        <mxPoint x="280" y="1380" as="sourcePoint"/>
                        <mxPoint x="280" y="1340" as="targetPoint"/>
                    </mxGeometry>
                </mxCell>
                <mxCell id="76" value="" style="endArrow=none;html=1;" edge="1" parent="1">
                    <mxGeometry width="50" height="50" relative="1" as="geometry">
                        <mxPoint x="360" y="1380" as="sourcePoint"/>
                        <mxPoint x="360" y="1370" as="targetPoint"/>
                    </mxGeometry>
                </mxCell>
                <mxCell id="77" value="0" style="text;html=1;strokeColor=none;fillColor=none;align=center;verticalAlign=middle;whiteSpace=wrap;rounded=0;" vertex="1" parent="1">
                    <mxGeometry x="270" y="1380" width="20" height="30" as="geometry"/>
                </mxCell>
                <mxCell id="78" value="2" style="text;html=1;strokeColor=none;fillColor=none;align=center;verticalAlign=middle;whiteSpace=wrap;rounded=0;" vertex="1" parent="1">
                    <mxGeometry x="350" y="1380" width="20" height="30" as="geometry"/>
                </mxCell>
                <mxCell id="80" value="1/3" style="text;html=1;strokeColor=none;fillColor=none;align=center;verticalAlign=middle;whiteSpace=wrap;rounded=0;" vertex="1" parent="1">
                    <mxGeometry x="310" y="1335" width="20" height="30" as="geometry"/>
                </mxCell>
                <mxCell id="89" value="B) Y[n] para x[n] = &amp;amp;[n-2]" style="text;html=1;strokeColor=none;fillColor=none;align=center;verticalAlign=middle;whiteSpace=wrap;rounded=0;" vertex="1" parent="1">
                    <mxGeometry x="250" y="1410" width="140" height="30" as="geometry"/>
                </mxCell>
                <mxCell id="90" value="" style="endArrow=none;html=1;" edge="1" parent="1">
                    <mxGeometry width="50" height="50" relative="1" as="geometry">
                        <mxPoint x="329.57" y="1250" as="sourcePoint"/>
                        <mxPoint x="329.57" y="1210" as="targetPoint"/>
                    </mxGeometry>
                </mxCell>
                <mxCell id="91" value="1" style="text;html=1;strokeColor=none;fillColor=none;align=center;verticalAlign=middle;whiteSpace=wrap;rounded=0;" vertex="1" parent="1">
                    <mxGeometry x="320" y="1250" width="20" height="30" as="geometry"/>
                </mxCell>
                <mxCell id="92" value="" style="endArrow=none;html=1;" edge="1" parent="1">
                    <mxGeometry width="50" height="50" relative="1" as="geometry">
                        <mxPoint x="319.56999999999994" y="1380" as="sourcePoint"/>
                        <mxPoint x="320" y="1360" as="targetPoint"/>
                    </mxGeometry>
                </mxCell>
                <mxCell id="93" value="1" style="text;html=1;strokeColor=none;fillColor=none;align=center;verticalAlign=middle;whiteSpace=wrap;rounded=0;" vertex="1" parent="1">
                    <mxGeometry x="310" y="1380" width="20" height="30" as="geometry"/>
                </mxCell>
                <mxCell id="99" value="1/9" style="text;html=1;strokeColor=none;fillColor=none;align=center;verticalAlign=middle;whiteSpace=wrap;rounded=0;" vertex="1" parent="1">
                    <mxGeometry x="350" y="1340" width="20" height="30" as="geometry"/>
                </mxCell>
                <mxCell id="100" value="" style="endArrow=none;html=1;" edge="1" parent="1">
                    <mxGeometry width="50" height="50" relative="1" as="geometry">
                        <mxPoint x="190" y="1515" as="sourcePoint"/>
                        <mxPoint x="480" y="1515" as="targetPoint"/>
                    </mxGeometry>
                </mxCell>
                <mxCell id="101" value="" style="endArrow=none;html=1;" edge="1" parent="1">
                    <mxGeometry width="50" height="50" relative="1" as="geometry">
                        <mxPoint x="280" y="1515" as="sourcePoint"/>
                        <mxPoint x="280" y="1475" as="targetPoint"/>
                    </mxGeometry>
                </mxCell>
                <mxCell id="102" value="" style="endArrow=none;html=1;" edge="1" parent="1">
                    <mxGeometry width="50" height="50" relative="1" as="geometry">
                        <mxPoint x="360" y="1515" as="sourcePoint"/>
                        <mxPoint x="360" y="1505" as="targetPoint"/>
                    </mxGeometry>
                </mxCell>
                <mxCell id="103" value="2" style="text;html=1;strokeColor=none;fillColor=none;align=center;verticalAlign=middle;whiteSpace=wrap;rounded=0;" vertex="1" parent="1">
                    <mxGeometry x="270" y="1515" width="20" height="30" as="geometry"/>
                </mxCell>
                <mxCell id="104" value="4" style="text;html=1;strokeColor=none;fillColor=none;align=center;verticalAlign=middle;whiteSpace=wrap;rounded=0;" vertex="1" parent="1">
                    <mxGeometry x="350" y="1515" width="20" height="30" as="geometry"/>
                </mxCell>
                <mxCell id="105" value="1/3" style="text;html=1;strokeColor=none;fillColor=none;align=center;verticalAlign=middle;whiteSpace=wrap;rounded=0;" vertex="1" parent="1">
                    <mxGeometry x="310" y="1470" width="20" height="30" as="geometry"/>
                </mxCell>
                <mxCell id="106" value="" style="endArrow=none;html=1;" edge="1" parent="1">
                    <mxGeometry width="50" height="50" relative="1" as="geometry">
                        <mxPoint x="319.56999999999994" y="1515" as="sourcePoint"/>
                        <mxPoint x="320" y="1495" as="targetPoint"/>
                    </mxGeometry>
                </mxCell>
                <mxCell id="107" value="3" style="text;html=1;strokeColor=none;fillColor=none;align=center;verticalAlign=middle;whiteSpace=wrap;rounded=0;" vertex="1" parent="1">
                    <mxGeometry x="310" y="1515" width="20" height="30" as="geometry"/>
                </mxCell>
                <mxCell id="108" value="1/9" style="text;html=1;strokeColor=none;fillColor=none;align=center;verticalAlign=middle;whiteSpace=wrap;rounded=0;" vertex="1" parent="1">
                    <mxGeometry x="350" y="1475" width="20" height="30" as="geometry"/>
                </mxCell>
                <mxCell id="109" value="C) Y[n] para x[n] = &amp;amp;[n] + &amp;amp;[n-2]" style="text;html=1;strokeColor=none;fillColor=none;align=center;verticalAlign=middle;whiteSpace=wrap;rounded=0;" vertex="1" parent="1">
                    <mxGeometry x="155" y="1550" width="330" height="30" as="geometry"/>
                </mxCell>
                <mxCell id="110" value="" style="endArrow=none;html=1;" edge="1" parent="1">
                    <mxGeometry width="50" height="50" relative="1" as="geometry">
                        <mxPoint x="160" y="1655" as="sourcePoint"/>
                        <mxPoint x="450" y="1655" as="targetPoint"/>
                    </mxGeometry>
                </mxCell>
                <mxCell id="111" value="" style="endArrow=none;html=1;" edge="1" parent="1">
                    <mxGeometry width="50" height="50" relative="1" as="geometry">
                        <mxPoint x="250" y="1655" as="sourcePoint"/>
                        <mxPoint x="250" y="1615" as="targetPoint"/>
                    </mxGeometry>
                </mxCell>
                <mxCell id="112" value="" style="endArrow=none;html=1;" edge="1" parent="1">
                    <mxGeometry width="50" height="50" relative="1" as="geometry">
                        <mxPoint x="399.92" y="1655" as="sourcePoint"/>
                        <mxPoint x="399.92" y="1645" as="targetPoint"/>
                    </mxGeometry>
                </mxCell>
                <mxCell id="113" value="0" style="text;html=1;strokeColor=none;fillColor=none;align=center;verticalAlign=middle;whiteSpace=wrap;rounded=0;" vertex="1" parent="1">
                    <mxGeometry x="240" y="1655" width="20" height="30" as="geometry"/>
                </mxCell>
                <mxCell id="114" value="2" style="text;html=1;strokeColor=none;fillColor=none;align=center;verticalAlign=middle;whiteSpace=wrap;rounded=0;" vertex="1" parent="1">
                    <mxGeometry x="320" y="1655" width="20" height="30" as="geometry"/>
                </mxCell>
                <mxCell id="115" value="1/3" style="text;html=1;strokeColor=none;fillColor=none;align=center;verticalAlign=middle;whiteSpace=wrap;rounded=0;" vertex="1" parent="1">
                    <mxGeometry x="280" y="1610" width="20" height="30" as="geometry"/>
                </mxCell>
                <mxCell id="116" value="" style="endArrow=none;html=1;" edge="1" parent="1">
                    <mxGeometry width="50" height="50" relative="1" as="geometry">
                        <mxPoint x="289.56999999999994" y="1655" as="sourcePoint"/>
                        <mxPoint x="290" y="1635" as="targetPoint"/>
                    </mxGeometry>
                </mxCell>
                <mxCell id="117" value="1" style="text;html=1;strokeColor=none;fillColor=none;align=center;verticalAlign=middle;whiteSpace=wrap;rounded=0;" vertex="1" parent="1">
                    <mxGeometry x="280" y="1655" width="20" height="30" as="geometry"/>
                </mxCell>
                <mxCell id="118" value="10/9" style="text;html=1;strokeColor=none;fillColor=none;align=center;verticalAlign=middle;whiteSpace=wrap;rounded=0;" vertex="1" parent="1">
                    <mxGeometry x="300" y="1580" width="60" height="30" as="geometry"/>
                </mxCell>
                <mxCell id="119" value="3" style="text;html=1;strokeColor=none;fillColor=none;align=center;verticalAlign=middle;whiteSpace=wrap;rounded=0;" vertex="1" parent="1">
                    <mxGeometry x="355" y="1655" width="20" height="30" as="geometry"/>
                </mxCell>
                <mxCell id="120" value="4" style="text;html=1;strokeColor=none;fillColor=none;align=center;verticalAlign=middle;whiteSpace=wrap;rounded=0;" vertex="1" parent="1">
                    <mxGeometry x="390" y="1655" width="20" height="30" as="geometry"/>
                </mxCell>
                <mxCell id="121" value="" style="endArrow=none;html=1;entryX=0.5;entryY=1;entryDx=0;entryDy=0;" edge="1" parent="1">
                    <mxGeometry width="50" height="50" relative="1" as="geometry">
                        <mxPoint x="329.83" y="1655" as="sourcePoint"/>
                        <mxPoint x="330" y="1610" as="targetPoint"/>
                    </mxGeometry>
                </mxCell>
                <mxCell id="123" value="1/3" style="text;html=1;strokeColor=none;fillColor=none;align=center;verticalAlign=middle;whiteSpace=wrap;rounded=0;" vertex="1" parent="1">
                    <mxGeometry x="360" y="1610" width="20" height="30" as="geometry"/>
                </mxCell>
                <mxCell id="124" value="" style="endArrow=none;html=1;" edge="1" parent="1">
                    <mxGeometry width="50" height="50" relative="1" as="geometry">
                        <mxPoint x="369.56999999999994" y="1655" as="sourcePoint"/>
                        <mxPoint x="370" y="1635" as="targetPoint"/>
                    </mxGeometry>
                </mxCell>
                <mxCell id="125" value="1/9" style="text;html=1;strokeColor=none;fillColor=none;align=center;verticalAlign=middle;whiteSpace=wrap;rounded=0;" vertex="1" parent="1">
                    <mxGeometry x="390" y="1620" width="20" height="25" as="geometry"/>
                </mxCell>
                <mxCell id="126" value="1" style="text;html=1;strokeColor=none;fillColor=none;align=center;verticalAlign=middle;whiteSpace=wrap;rounded=0;" vertex="1" parent="1">
                    <mxGeometry x="240" y="1590" width="20" height="30" as="geometry"/>
                </mxCell>
                <mxCell id="127" value="1" style="text;html=1;strokeColor=none;fillColor=none;align=center;verticalAlign=middle;whiteSpace=wrap;rounded=0;" vertex="1" parent="1">
                    <mxGeometry x="270" y="1445" width="20" height="30" as="geometry"/>
                </mxCell>
                <mxCell id="129" value="1" style="text;html=1;strokeColor=none;fillColor=none;align=center;verticalAlign=middle;whiteSpace=wrap;rounded=0;" vertex="1" parent="1">
                    <mxGeometry x="270" y="1310" width="20" height="30" as="geometry"/>
                </mxCell>
                <mxCell id="130" value="A) Y[n] para x[n]&amp;nbsp; = &amp;amp;[n]" style="text;html=1;strokeColor=none;fillColor=none;align=center;verticalAlign=middle;whiteSpace=wrap;rounded=0;" vertex="1" parent="1">
                    <mxGeometry x="160" y="1140" width="330" height="30" as="geometry"/>
                </mxCell>
                <mxCell id="133" value="1" style="text;html=1;strokeColor=none;fillColor=none;align=center;verticalAlign=middle;whiteSpace=wrap;rounded=0;" vertex="1" parent="1">
                    <mxGeometry x="270" y="1190" width="20" height="30" as="geometry"/>
                </mxCell>
                <mxCell id="135" value="" style="endArrow=none;dashed=1;html=1;dashPattern=1 3;strokeWidth=2;" edge="1" parent="1">
                    <mxGeometry width="50" height="50" relative="1" as="geometry">
                        <mxPoint x="40" y="1710" as="sourcePoint"/>
                        <mxPoint x="560" y="1710" as="targetPoint"/>
                    </mxGeometry>
                </mxCell>
                <mxCell id="139" value="" style="edgeStyle=none;html=1;" edge="1" parent="1" source="136">
                    <mxGeometry relative="1" as="geometry">
                        <mxPoint x="240" y="1760" as="targetPoint"/>
                    </mxGeometry>
                </mxCell>
                <mxCell id="136" value="ConvoluÃ§Ã£o" style="text;html=1;strokeColor=none;fillColor=none;align=center;verticalAlign=middle;whiteSpace=wrap;rounded=0;" vertex="1" parent="1">
                    <mxGeometry x="85" y="1745" width="90" height="30" as="geometry"/>
                </mxCell>
                <mxCell id="141" style="edgeStyle=none;html=1;" edge="1" parent="1" source="140" target="29">
                    <mxGeometry relative="1" as="geometry"/>
                </mxCell>
                <mxCell id="140" value="" style="shape=cross;whiteSpace=wrap;html=1;size=0.14035002055920814;" vertex="1" parent="1">
                    <mxGeometry x="420" y="570" width="30" height="30" as="geometry"/>
                </mxCell>
                <mxCell id="146" style="edgeStyle=none;html=1;" edge="1" parent="1" source="145">
                    <mxGeometry relative="1" as="geometry">
                        <mxPoint x="470" y="1760" as="targetPoint"/>
                    </mxGeometry>
                </mxCell>
                <mxCell id="145" value="" style="shape=image;verticalLabelPosition=bottom;labelBackgroundColor=default;verticalAlign=top;aspect=fixed;imageAspect=0;image=data:image/png,iVBORw0KGgoAAAANSUhEUgAAArQAAADcCAYAAACBBjLEAAAAAXNSR0IArs4c6QAAAARnQU1BAACxjwv8YQUAAAAJcEhZcwAAJOgAACToAYJjBRwAADuVSURBVHhe7d0JvFXjGsfx181QVygiDdyShJJEUWaNkpAIV4ZuJCVDgyEqoSJDKKLkchV1G0iGMoWkzKSkQcmQUikqiWvf/X/Pu46119nTOZ1p7f37fj6r9lp773P2WXsNz3rX8z7vDpEoAwAAAITU39z/AAAAQCgR0AIAACDUCGgBAAAQagS0AAAACDUCWgAAAIQaAS0AAABCjYAWAAAAoUZACwAAgFAjoAUAAECoEdACAAAg1AhoAQAAEGoEtAAAAAg1AloAAACEGgEtAAAAQo2AFgAAAKFGQAsAAIBQI6AFAABAqBHQAgAAINQIaAEAABBqBLQAAAAINQJaAAAAhBoBLQAAAEKNgBYAAAChRkALAACAUCOgBQAAQKgR0AIAACDUCGgBAAAQagS0AAAACDUCWgAAAIQaAS0AAABCjYAWAAAAoUZACwAAgFAjoAUAAECoEdACAAAg1AhoAQAAEGoEtECG++2338z//vc/NwcAQOYhoAUy2IYNG0z9+vVN37593RIAADIPAS2QwcqUKWMWL15sdthhB7cEAIDMQ0ALAACAUCOgBQAAQKgR0ALIN3U027Rpk9m8ebPN09X/+fX777/bn/PLL7/Y6ddffzWRSMQ9CwBA+ghogQy2bds296hwKOgcNWqU6dy5szn++ONN+fLlzXHHHWcuueQS06tXL7Nu3Trz559/ulfHt3XrVjNlyhRzxRVXmJNPPtlUq1bNHH744eacc84xPXr0sMEtAAD5sUOEJhEgYyk43H333W2weffdd7ulBaOf9eCDD5p+/fq5JXk1btzYBqVt27Y1FStWdEv/8u2335o777zTjBgxws4fcMABtgqDXvv555+bhQsXmubNm5uxY8eaPffc074GAIBUCGiBDFZYAa1aZvv3729/xllnnWUaNmxog9H169eb5cuXm3vvvde9Mod+34ABA8xuu+3mlhhbbaFDhw5m/vz5NvDt3r27OfPMM83OO+9sdtppJ1srd8GCBTYgVoD71FNPmQoVKrh3AwCQGAEtkMEKI6DVIeK1114zZ5xxhrnooovMXXfdFROo/vHHH2by5MnmtttuswGp57rrrjO33nqrTUv46aefTOvWrc17771nP8uNN95o9tprL/fKWKtWrbK/R69XcLvLLru4ZwAAiI8cWgBJqcPXww8/bJo1a2buuOOOmGBWdtxxR9OxY0czadIks+uuu7qlxrbaDhw40AaoF1xwgQ1mlYqglt5EwaxUqVLFtgLrd6r1FwCAVAhogZBRpyu1eKrKQKrJqz6gigLxno83BYfJXbp0aW4nrmR5rQcffLDNgfUP4nDPPfeYcePGmZdfftm2uI4fP962GKdy/vnn28BZLcMAAKRCQAuEzNq1a02LFi1swJdqUmunPPDAA3Gfjzc9+uij9j2eL774wuy7777mxBNPdEsS23///W3uq1+fPn1sLqyG39XPT4eC3po1a9pgurArNQAAMg85tEDIqHVWHa7UkSpIraPapb3/1TKrygTXXHON+dvfUl+/6j3Kfa1evbqdV2utqhJMnDjRpgyoA1cqyqnt3bu3uf/++90SYw499FCbknDIIYe4JaldeeWVtiqCfnfZsmXdUgAA8iKgBTLY9nYKU3rD0KFD8xXQiqoiqILBzJkz3RJj2rRpYyZMmGA7iaWjW7du5rvvvrPvKVeunFsKAEBepBwASEituirP9cMPP9gBEdKlVlp/MCsvvviirWGbzs9Ry/KaNWtMjRo1bHAMAEAyBLQAklKawOrVq83777/vliSn4WzVAUxatWpl//col3f06NEph7hV7uySJUvMYYcdFneABgAA/AhoASSlVtL27dvbHNhgBYQgdeBS0Dpnzhw7pO2TTz5pHnnkEfdsjp49e5oxY8YkHCJXrbsqD6bObxpe1181AQCAeAhoASSlHNyuXbvawRPefPNNtzQvpQYMHjzYVjNQPdrp06ebSpUqmYsvvtjWlPW7/PLLzbBhw/JUMFDrrgZdUKkv1a5VugMAAKmUGajK5wAykgLGIUOGmKZNm5qWLVu6pfmjFlKV/1KN2ptuuslWQKhdu3Zuy6mCUHUaU1UCBaJKERgxYoQdiKFMmTJ24IW6devakl6zZ8/OzaF99dVXzaJFi+zgCUppUACserf33XefadCggf3clStXtq8FACAZqhwAGawwhr716GcNGjTI/hyV4apXr54NmN966y2zfv16+xqN8KWyX02aNLHBrJ8Gefjoo4/M8OHDbeCaiFqDFcySOwsASBcBLZDBCjOglS1bttgauMuWLTPz58+31Q8U2NaqVcs0atTIdOnSJWb423jU0vvYY4/ZTmZffvmlbaVVgHzSSSfZltnTTz897dJeAAAIAS2QwQo7oPUozUCltdQKq9QDlfdKt0atR627Ovyoc5g6myk1gQEUAAAFQacwAPm2yy672FZUDXigIDS/wazoPfo5+hn6WQSzAICCooUWyGBq+Rw5cqTp0KGDqVq1qlsKAEBmIaAFAABAqJFyAAAAgFAjoAUAAECoEdACAAAg1AhoAQAAEGoEtAAAAAg1qhwApZxG55o6daodvCARDXLw66+/2td6k+ZVtmt76PCggROKm37vsGHDbJ1aAABSIaAFSrl169aZpk2bmsWLF7sl2eGdd96xfzcAAKmQcgCUchpRK9uCWbnvvvtsSy0AAKnQQguUctpF+/XrZ4YMGeKWJKbXXHbZZW4ufRs2bDAVKlRwc3lt3bo15va/PpPSGrRc7924caP58ccfzU8//WRWr15tVq1aZf9fu3atWbNmjZ02bdrk3p0e/b4ffvgh6ecCAEAIaIEQUD7sueeea6ZPn+6WxFezZk3z9NNPm6OPPtotKVnbtm2z02+//WaWLVtm3nzzTTNv3jzz3nvvmW+++ca9KjEF8rfffrubAwAgPgJaICQ+//xzc9ZZZ5mlS5e6JfG1adPGTJgwwZQvX94tKV3UgW3z5s1m0qRJZtq0aWbmzJk24I3nyCOPtEHwrrvu6pYAAJBXmYFR7jGAUmyfffaxt9+fffZZtyS+JUuW2KDxlFNOSVoZoaSUKVPGlC1b1jRs2NB06NDBtGrVyn7Ozz77zPz555/uVTmUutCgQQNTt25dtwQAgLwIaIEQUWCnXNS5c+e6JfHNmTPH1KlTx9SvX98tKZ0U3FavXt2ceuqp5qijjjI///yzDcj9dtppJ3P66afb1wIAEA8pB0DIKKBVy+aMGTPckvgU/E6ePNkGtmGhVIRBgwaZu+66yy0xNnVi1qxZNv0AAIB4KNsFhIwCvNtuu83sv//+bkl8CxYsMDfffLOtRhAWypUdPHiweeaZZ3IHdFAAP27cOEp4AQASooW2BChP8Nprr7WPddL2fwUa2enkk082Z599tltS/PTZ9BmDn03LdPv33nvvdUtQkh555BFzxRVXuLnEbr31VhvYlsZ82mQWLlyYmztbq1YtO9BC5cqV7Xy2uu6662x+tNIv/PumHmuZaveWFN0NeOONN+znCB47ZPjw4bkXKUhO5fB69+5tdtxxRzvvX5eqGtK6dWtzxhlnuCXIJDr/Kg7Q8Zrzbz5FVxiKWXRjjXTv3l1batxp/Pjx7pUlI9ln69Gjh3sVStpvv/0WiQa0cb8n/1SuXLnItGnT3LvC5f7778/9O+6++263NHtp//N/t/5J+21JGjduXNzPpUmfLXpCdq9EKr/++mvk6KOPjrsuNU2cONG9EpmG82/B0UJbAnSldc0115gHH3zQ9OzZ0y3Naa39448/zLHHHmvOP/98t7T4XXXVVTGted6VoVp/9HmjQYZ7BiVNAxq0b9/evP76625JfI0aNTLPP/986Fo4Vc5L9XdV3kt3LvQ3ZHMJr6uvvto88MADthVHLbXefqrDuCYdU0qK6h+rFd3rvOe1xup4oWOK/s/UFlodI6Ww7oKohVbbuzp/RgOcmHWqfaJZs2Y2jx6lm87nXit7urSv6Hv29hXOv+kjoC0B/oBWByvdigvK705QmLQT+mm+T58+ZsSIEexQpdBbb71lOnbsaEfVSubSSy81Dz30kC2ZFSaq2HDaaafZEcleeOEFW2c3W3kBbY8ePcywYcPyHCdK03FDdJwbOXJk6ANa5aNXqlTJXkRoP9MoeJo0Ap5GyNPAJ//6178KreOiP6AdP368Oeecc9wzfynJ7xo5dHGxfv16u+1/99135ttvvzXr1q3L3S6UOqCBYSpWrOjekRrn34KjU1gJ0xW9DkzBqSTF+zyF1fKAwnf88ceb66+/3s0l9vjjj5vHHnvMzYVH06ZNTdeuXe3oZ2oF1Eki23HcKF76W1q2bGn2228/e7ejbdu2NoC98cYbbU7jww8/XGTBulpng+tVE0qeOq9WrVrVdtBt0qSJvfBQv4b+/fvbBis1IOhiJz/ifdecf9PDWgJCTidSBXw6waaiVr3333/fzYWHSnmpJVoBuXf7FSgun3zyiR34IxG1wKWqOoLMopvbixYtcnPxKcjdY4893ByKGgEtkAHKlStnhg4davOvk/n6669tcKgBDMJk5513zp2A4qaKAhpOWi1yao3da6+93DM5NJqd9kFkDzUk6M6YtgtNAwYMcM/8RYPFsF0UHwJaIEMox++WW25Jma81ffp0G/wqHxBAaso7V+dE5apfeOGFeTpXqrzc3//+dzeHbKGhyLVdaOrWrZs5+OCD3TM5lCZFukDxYU0DGaR58+amb9++bi4x5f0psAWQPz/99JOtkex34oknhrbDGwqHOgsGUxBOOOEE9wjFgYAWyCDKL1WP8k6dOrkl8al37p133mm+//57twRAOpTL7adOOwQumDlzpnuUo169embPPfd0cygOBLRAhlGd1jvuuCNlCaF58+aZgQMHms2bN7slAFJRGTk/VeHQcNTIXmogUA1mv2OOOYb82WJGQAtkIJUX0nC3qQYhGD16tPn3v/9NKSwgDSrB9OGHH7q5HCrjRf5sdtuyZYt5++233VyOU045hfzZYsbaBjKUBiNIpz6t8mk//vhjNwcgEQW0wbJ3jRs3do+QrXS3SwMseJSGov4MKF4EtECG0nCJGqnpn//8p1sS31dffWWGDBkSc0AGkJfyZ/2Da+oOSKpSech8r776qnuUQznVpBsUPwJaIIPttttudujFhg0buiXxTZkyxQ6pmN9RbYBsojxJf0CrOqN0/MluGpJ79uzZbi6H8mepmV38CGgTUGvV2rVr7f+//PKLW1qylHiukjEaI1qF8eONne7RQVedfTS+tMaW1vs2bdpk/vzzT/cKZIsaNWrYfNpULQYaRUylvPwnbKRH+5X2Lx0vtL9pnH/tr/Go/q/2X+2b2peL+iJCv08nXf0u/b9t2zb3THzKB1yxYoX9O7zjX7JjTbbYunWr+eijj9xcjsMPPzx3v/KOuVpnK1eutMdczRfn/qRtSd+bzl363pId77Ud6DVr1qwxy5cvz/28yB99v8G86lQBrb4nrW99V6UlvsgEBLQBOpjrpK7xmNVLvHbt2qZZs2Z2hJh0NzydzDREp3qa6yRSGLThq8xShw4dzAEHHGBatGhhi+Or9p2fTjyzZs2yv7tnz542j1IF91VCRLdBdAt6wYIF7tXIFm3atDG9e/d2c/HpIKvtJtVwjviLTmYKTO+++267b6keaZ06dWwt4LFjx9qR2fxBhVr4VFlChdirV69ub1d37tzZHnOKImjcuHGjGTx4sDn77LPthc3JJ59sB98IBrX6O7755hubT33TTTfZNJWaNWuagw46yH7GSy65xOYJZnPnQZ0bgvmz+r51wbB48WJ7fL7yyitt7uQ//vEPO9jCcccdZ7eFVatWuXcUHW1b/fv3NyeddJIt8K/P8cADD+Q5B+lC6/XXXzd33XWXufrqq02rVq3sOUXBuToy6RigYAvpURqKf9/dZZdd7IAK8eiiV51wTz/9dHtO1naidT5t2jQ65haG6IEMTvTqNBLdyXU5HXe67rrrIj///LN7dXzRq/NINOjMfU/r1q0j0ZOKezZHdMONXHXVVfZ5/Z9K9IAUueCCC3J/pn9q27ZtJBpA29fp99x3332RypUrx32tN+n55557zr4nHdEDdiQaHNv36n+EU/QkFYkGUnm2h+B01llnRTZs2ODehUS2bt0aefPNNyMNGjSIux41HXLIIZFoEGT3oU8//TQSPYnFfZ2mmTNnup+cmH8/1M9MRt939MI8z+/RFD2hRqKBuH2djnvPPvtsJHoSjvtab9pzzz0jkyZNikRP3vZ96fAf56KBvVsaTq+88krM+jjwwAMjy5cvjzz00ENJv1dNhx56aGTp0qXuJ6UWvbiMHHPMMfa9EyZMcEsTW7BgQeSII46wrw8e/6MXWpG1a9fa1+n8FL1oSXmO0Db91Vdf2fcgud69e8esu+OPPz7yyy+/uGdz6Jyv83S7du1yXxe9oM19rO/js88+c6+Oxfk3fQS0zrZt2+yBSRtNjRo1IgMGDLAHoOjVVO5Gp+mZZ55x74jv5Zdfjnm9ThLewcSTn4BWJxvvpFS7du1I9Eo/MnHixJjfEb3Cjnz//feRHj165C7Tz3300Ucjb7/9tn1PcKfTAeubb75xvyU5dqjMoRPfYYcdFrMtxJt08aaADfH99ttvMfth165dIy+++GJkxYoVkVmzZkUGDhyY+9yxxx5rg9rjjjvOzp999tmRDz/8MPLtt99GZsyYEbnkkkvscu3HwWNFkH8/TBbQ6rnBgwfb1x500EH2ZKrgq0KFCnaZJl1sr1y5MjJ06NBIxYoV7TIdQ3RRrOOGPp9+RrVq1XLfo6ApP4FOJgW0Oid460HTGWecEbn44ovt43LlytnvZMyYMZH58+dHPvnkk8iFF14Y83p978HGjUTyE9DqZzZv3ty+Vuv5hx9+yHOOuPzyy+1y7/uoUqVK5Prrr4+MHz/eXmjpM//rX/+KeY8aUYKBGWLpezrppJNi1pvWcfCiT/vSPvvsY59XI9TYsWPtNqLvRRccWj5y5Ej36licf9NHQOtoh955553tRuMPWr0g15uGDBninslLgar/RKZJBzWd/PzyE9AqQNbn2mWXXSLvvvuuXaaTpv93lC9f3p6c9HjfffeNvP7663lOHtrBvCt4bxo1apR7Nrni2KH0O/T36UBcUtPTTz9tLyAymba9J554ImY7SDSNHj3avQtBixYtyl1POjkFg39tR6eddlrua9q3b2//P/XUUyObNm2y27vW7/7775/7Gk0KdJPx74f6GYksW7Ys0qhRI3vceOutt+wy3V06/PDDY35ft27dch9Pnjw57s8MtvLecccdaQen/uNcmANaBS5q1favBx1r9b8ClDfeeMO98i867gcvHmfPnu2eTS4/Aa13V1HfrReAfvnllzG/V9udtz3q8ZIlS+zr/PQ7GzZsGPM+XdggMbV4exeD3vTUU0+5Z3MomNVybS+PPfaY3Q/VmNSxY8eY91177bV5YgUpjvNvpiCgjdIG1qxZM7vBdOnSxS3NEbzK7tWrV8IDs05Ubdq0iXm9bu8EpRvQ6gBz5ZVX2tddeumlbmnEXmn7f4c36ao72a1i/Qz/6/v3728/SyrFsUOpZerEE0+M+XwlMU2dOtV9osylg7C243h/v386+OCDIwsXLnTvgkcpQGpt0zrq3r173H1IF5BqffGvz7333ju3BVZ3TRo3bhzzvKZ58+bZ5xPx74fJAlrvQvy8887LbS3S9+4FScEpWcuwTsL+16rlTsemdGRKQLtu3Tp7fPWvB01qXU+WhtapU6eY1ydqhQtKN6DVd3rCCSfY1z3wwANu6V9BVHBSOpzOU4kEzxH333+/ewbxvPTSSzHrS5PueniURqBlukuidB3R9jJs2LA87xs0aFDcYwkBbfroFBalJO3XXnvNVK5c2SbJ+wU7UEU3LrPDDju4uVjqLRocFlGdAgoqelCzn0uURO5RR5N4nn/+ebPHHnu4ubyCndqUoK6/pzQoW7asXVdNmjQp8KRE/HjL403Rk0WeqWXLlva5TFexYkVz44032r83GXUOu+2229LuDJkN1Jnq1ltvNZMnT7Ydu1QZIt5oQHqdOnL6XXbZZXbdy/z58817771nH3tUWq1WrVpuruC0X+tYINquy5QpYx+rM5COUUHqvLbXXnu5ubyiJ2D3KIc6okaDZDeXHb788ss8Hbu0/wwfPtyWxktEx3A/VY8oTDo/aYSqqlWrmvbt27ulJk+veznwwAPtd51s9EBtO37q8IjEguW61NHLK+P2yCOPmPr169uOldof1TFTtE08+OCD9rGfvkNGFttOLrDNWlu2bImceeaZ9uon2FqqnDgt96bdd9898tFHH7ln89KVtP/1++23X9wW03RbaNUJIRo821tJ/qtq5cb6f4+m6EnWPZvYkUceGfMeXREqdziV4rpC1N+oW7UFndRypv/1nSab1PqRaMomr776qm019G8T8Sbd0kxnO8kG2sbq1q1r14vX4hKPOlxFg8mY9ehv/VdOq79TiCYdC5K1uop/P0z0WuVEej9TeXoetbZ7y72pb9++7tnEvLtE3qRcS+1n6fAf54qihVYtp0oVil542eOv5ouC0iz866BOnTqRjz/+2D0bn1rGjzrqqJj3RYMc92xyOhZ520+yFlqlwOk1upPo30eD+bBKPVFKSTK63R38vDrXID6lGQXTUNTpVsu976VJkyZ5OgOqs6Y63vrfp5SkRHdXi+v8mwmy/nJALQ3PPvusfRwNbO3/nmhA6x7laNu2rTnkkEPcXKxokJpn+FC1GG7PaCEzZ87UBYctHaYWTNHveeONN+xjT/RkYUvDJBM9QNpag34q56XRpEoLtRxoTPSCTvp79L/WebJJ6zLRlE2OP/54W2oqFbVCvvnmm24uu+kOjFrFVK5J5XYSUav2559/7uZyWl/8r1dLrcojRQMP23KjEkqa15CZ28v7vSrtp9Yhz8svv+we5dD3n2poZB1/NJKcn0oNlYbjhmrqqrzi+eefb0uRdezY0a7PeK3Q20PHzrlz57q5HGqdVWtcMnpfcN35v4/tpbtrXku8fq73nUQDqjx3Fi+//PI857egov68mWbLli3ms88+c3M5dJelT58+9g6Y7vYptgjedalQoYK54YYb7LaqY4IGvnnooYeS3l1FerI+oFUA9N///tcGibo959FBQXX9/FTXL1HQo4PBJ5984uZyaBSZ7RktRLUgn3rqKTssqXfbUL8nmNZwxBFHpAzGvvjiC1vw22+fffZxj5CNtG326NHDBgTJqI6lDrrBW+jZSDU7J0yYYMaMGWNPTIm89NJLMbdvtY/uvvvubi5nWOKLLrrInsiefPJJexJMdus6PxS4qG72PffcYy/gRCkQwYsS1dlONcqV/galR/j5g6eS9PTTT5tJkya5uRwKIMaNG1eoNT11zA2eC9RYkeriQ+steMw99NBD3aPtp+9ANYZfeOEFG7B69Hn9F1OiWsKpbmcrOCvKzys6hvTs2dOm9hXnNGLEiDypM9vr008/jUn/076kNC2lE6jxS3FFonNs48aNzciRI+0FSb9+/Wy6IwqBbadFHsHyW+oQoI4ciahXcfQKK+Y9qlEZT7opB/EEP5cmlWJKxbsF4k0q36MOBenglkdmUxkm9Yj3bx/xpqK6bZxpogGFLenkX3c33nije3b7+PfDVOkJfrrNWbVq1ZjPlKoEoegY5n+PenR7da/T4T/OFfa2ow55/s/mTerYq2NsYQkec6MXHrZMYio333xzzPtUDSFZBzI/bUPppBzEoyo3/t+r7yydzxss7ahSYIVdtkulwvy/ozgnpfAVpuA51ZuU2qcOoUovUVywveuQ82/6yECOQ50n4nXuSnZLQFe3GpXHo9YWjbxS2N599133KMdhhx1m9ttvPzcXX/REkqeFQbdMvdYbZDeNCKVbZMk6i2gkIbUoJuoQib+oNTQ4RGrTpk3do5Kh40Y0qHFzxnYC08iBqXidUj0ahUp3tUqajmlKfYhn//33L9TtVKNq+em2cqrbw9oGgmkKGqWtONKagr9XnzdVS7xadYPfdVGcI3QMUZpINDDb7kktr/GWx5t0t6IwO/wqRgjeufCoQ96jjz5qunbtavcXDTsePB6giLjAFj5quWzRokXMVdeIESPcs3mpM5PXEuFNKqUSr6acFLSFVp0MgknoKqGTqqVGZb6iJ7CY9/lLvKTCFWLmU3H2RKW8VOc4VTkp/CUaGNjOnN76U+dQtbgVBv9+mJ8W2uCgAC1btrQdJJNRxy/VLPW/T2UI89P6WZQttDquBTveacCYZHfS8kvrSCM/+X9HNJByzyamFlG1jPrf5++gl0pBW2j1eYP1Tfv06eOeTUyj1Pm3WU2pOr0VlLbb4p6CdaK3l+54BGsMDx8+PPL444/bUm277rprzHMarEmDNOmz5Jfew/k3PbTQxqE8oldeecXN5bS2Rg/sbi4v5WsFr9bUOrs9+bPxKJ9NeTt+uvpOlculfD5/bpRy/8444ww3V3qo1aWkp2yl/E51LNT480HKC1POF9KjFrLosdXN5eRblmSHw3idV6KBX8rWN3UQ8t+pUkc2lQ8sLaWFlHeoMfB1d0EdwpSHrJzEfffd171i+6nlUmWx/NTSmorylaNBj5vL6USWqEW5MOnzBvtypNMyOX369JhtVn+j7soUBZ2vinvaZZdd3G8vHEuXLs1zzlefl0suucSMGjXKTJw40Z6bPSrXphKIixcvdktQFAhoA7RTB6sI6GSu21iJqHrABx984OZyKCm8sCmwWLlypZvL4e/IFo/SIBSc+w9WzZo1i/l7Nm/eXOIBXfQq1NYDVq/7kprU4zubOz7pNmrwZK2e8VWqVHFzSEXbcbCHuTqHpqKLYv8+Wph0+zsY5KQ6buiYoODQn0alW9D+HtsKlFXNoSSPG3vvvbcZOHCg7VinjovVq1d3zxSOYIqXGjfUwSoZrZcZM2a4uRw6h/hTerTO9J0X9rrTxZRq5nq076ZKLVFjRzCtQhUw/J0YS8M5ojQJpvDp+/XSXJSS06ZNG/PYY4/FBNLLli2znRb1vftp3WrfL6r9P6tEVyJ8dGsimMyfqsZr9GAa83rdYtQtiUR0y64gKQf33HNPzO9RXdxUyf7RK8LcIRq9SXUb/XQrRB0CEg2FWxy3PHTLu169ejGfsyQmjWOfjfQd33nnnTHr4u67706YNpPNlGKkjlG65a3HfqolGRxedtasWe7ZvLR+dQxQB6d0bkn790N9Z+lQukgwBSJ6Ee6ejU8jh7Vq1Sr3PZqC+4aOe+r8ovSlaKDjlsYqypSD4hBM1TjllFOSjqom2jZq1qwZ8z5/yo6O//r+VN830bZR0JSDYNqQhrtNdi6S8ePHx7xH0wcffOCezaGUO31mhsLN2WeDI4iqs1u87dsbUdCbvKGv/YYOHRq57rrrEqbKFMf5N1PQQhugurTB0VwS1Z4VvT5YDqcokun1e95//303l0O3MtVCkYxa2DSyj0fvOe+889xcTmuCSr9Eg5ekZYiKmq5qozu1ralb2FP0IBB3uTf5n1enhWykUkf9+/d3c8Z23IiecAs9bSbsVMKsc+fOttVVJbyuvfbamHJAagn1pwWptFKyFjKNPqXSUyrhozswRSHYwVWts6nKBOl2qr+VUccGb6QjUUu0bqGq88uSJUsysrOgbt8Hy18plSxVByu1bPtrfuuuhz9lR63aKqumkm3+FvDtpc8b/K71e5Md15XGpnrnfurIpJJuHv0tKu8XvXCxHUizndZz8Jzvb6H1U/1pP6Xr+Fu5v/32Wzui2L333ptn5EAUgAts4ajExrHHHhtzVZVshJU1a9ZEokFizOtTdbgqSAutyr1obH3/74kGIO7Z+HRlHrySvOmmm9yzOaZMmWKXq+RYopYHrhAzWzRwsZ0WvG1EnUrSLS+UTdThRiNreevJm+bOnetekbf0Uf369d0z8fXr18++Tq1xqVr+xL8fptNCqztO0Yu0mM+kFqFk9N0HW/rUGdVv2rRpuc8FW/P8/Me5sLXQatSx2rVr5/6dmtTpJxmdP9RR1/8etd756Xyi5U2bNk04OlRBWmhXrlwZ83s1Jbs7INrmvJHvvEmjrvndcsstdrk6OutOWrbT8dK/vjStWLHCPfsXfbfB86/uaPj3A5XO0/JatWolHOWO82/6aKEFAABAqBHQBujWfjBpOxr4u0d5aQSu4G0p3dYvbLo1GbwlqdSGZFQrT5/Pzz/8pm4bqjOF6PZpaem9jOKj3u+qk+il2Wg7UC/dwhq1KpPo1rqGqA3yapJqKNbg7VuNqqX3xaN9U72hRakuqg1b2JRSFOywms5xI3hLtVGjRnb0RI86cMppp52WtMNsmOmYG/zu6tev7x7Fp067SvPy89cg9q/bDh06mPLly9vHhSHYsUv1yVWnPBl1gg12YlRKjUfb9OjRo+1jdSYu7GoBYaSR2fxUDSJebWalawWHEtZ+5E9N8LYFpfMU5raQrYhgArQRBgdECAa4Hh3wVOpIvRQ9tWvXNnXq1HFzhSd4otRQmto5ktGJVkWePdphdFDyqJC2el1Ku3btbFkeZI+1a9fakkdebrbywDRsY0nmUpdmwQtXueCCC3KHt9TFYbA8lvap4FjuotxFjeWugEkBhEr+FAUFWAsXLnRzOTl9qcbnV+/2YBDsH/b71VdfNVOmTLGPNWxyqjz+sNLf6adj7sEHH+zm4tM24i+RKCrZ5dFwqMpFVZCr79wb0rwwBLc9fd5Ug2AEAy6V+PLnferiVn0wFLSpNFq2B7SqGOKvIiHKp0907qxWrZp7lMN/Man1Onv2bPtYVRHor7D9CGgDvJIbfmpFUcutR1fZU6dOtS2x8+bNc0tzKBguig5hb731lpvLoZHLUv0eJa/7x+LWiUytsqJkdLXMiTqFqbUA2UMdmdQJ78UXX7TzOmFpNB1dkCE+XQz6R+VTbWqtM3USUgcqr1OdOhd6FLCuXr3azeVQwKN1r5JQ6jCk/c9fIqkwxQvKUh03dIwIdoStV6+e/V8X8SpvJzp+lMZ61oVBx85gyS6V60q17oItuAp2dKwVlXpSRzpRJ6tKlSrZx4VBLfHB1mS1zqYKQIMl+fR3e9S57Y477rCPBw0axLEhSusnGNCqIUC1boO07oMdCL1R3BRDaN2q82Xr1q1TNk4hPQS0cejE1bNnTzdnzOTJk23Ap16p9913n7n00kttpYBvvvnGveIv2rgL+0pLt4W+/vprN5dDPafj7UR+apHVLUGPfoZOwDfccIO9xanW25tuusl0796dW0lZRHcUBgwYYP7zn//YeaUX6Fa6LpKQmO54qEXSo4tF3ebVEJcKUNRjXfWMVflAAavMmjXLvkfHE9WlVBCo24u6javWGq33VBUHCkq96YOVURTkpArKVC9VxwS/xx9/3AwZMsS2KmoYz4svvtj+nZl6m1TVLIK9znXMTVXNoUaNGjFVZFSAX3fX7rzzTtsir8L6uuDRHbHCTPHS3ZbgHQQF4Kk+r4JUfZcebRuquqFhZfX96k6CLrjOOussUtKidMfDXwVJg3goII1H60uDfegi0qM7YLq7oePFiBEjbKOYlqVqSUeacvqGIUi1BNUzN3qyye2h6J9UM3XgwIF5lmvYy1TyW+VAvR/9lRROOukk+/nSoTq1Z555Zu57vUlVDVTxIFEvWz96WWYO9Xq/4447YrYF1ZjUNonUVq1aFYle3MasP02VKlWyQ6J6PZW1f0aD20iFChXyvLZatWr22JHuPuzn3w+1XyajepfRk23u761Tp05axydRhZTohW/ue70peuEbueKKK9KqyCD+41yYqhzo76tevXru3636oapokw5VGwhWlvAm7XvpHHPzW+VA25L/91x22WUp68961EM/Xg1wVT5RDfZg3dRspoom/nWk73nz5s3u2by0j0YveiPNmzePeZ8m1at+9913U+4XnH/Tt4P+ia4oxKFbb+qINWbMGNsaq0kj0ei2Y3TDsrek1NLp0W05DSGYaohD1aFTS46uzKIHeptTlYxer+RxfQ5dEaqFJ9FtjnjUcqRcWeXs6Epet0F0K0yjwaQzJKdSHnr16mU/p/7u+++/3z2DMFEuuDrzdOnSxS3JuW18yy23kL+VD9FAwTz33HM2lUB3T1TXVa0wyiX1t1gqreO7776zIw/quKDWO9X31L6nlrGCtMqo5czbD3W3JdUxQCkCer1a5dUqmM5tc49a5/S5ddzTKEfq/KW/Uy2V/lGvktHn9I5zOm6EpV6tjrlPPPGEba1U7dV+/frZY2+6n1/biNLStO7UUq7cW333+j+d9a8OeEpH0S3qaEBrzj33XPdMfHq97haonrTSh7Te85PbrDQYbdPff/+9/VnKC9edSm2nqqWMHEoVUM12Dbmser06L3o59IkoxNJ5d/z48TY3XdtDixYt7HeqtJNU2xTn33xQQIu/6GpIV6TRjcgtyeEtV51BUT2+4447LuaKS/X60mnpym8LrUdX7focBaX36nfnt6VE74vuSPbz6n+EUzQ4idle1YqTrHUByWm/0HEieKwI0vM6bkRPhilfm4p/P0z3WKDXpfvaePSZdezJ73FD/Me5gry/pOmOxrZt29xc/nnrPr8/I78ttB69T1NBFeSzZhvtx5oKQus2v8cAfSecf9NDUowTXRc2QVt5Q8qBUsuEWlg8aglRq4TXAqNWF6+HoqjDlVq+ijLPSK2p6bbKxqP36vOFpZUEhUf50hr5y6OcOLXwkbtVcNqf1Es9VU91Pa/jhlrBC7NXe7r0ObfnuKHPrGNPNh431Ldge1oovXVfXK2c+p7SueuWSHF+1rDSflzQO1patyVxDMgWBLSOqgjoVr4StRXMnnnmmXaZAt2g6BVTbh1GT/v27VPeegBKgm4j6la1OjSIbmXq9hW1ZgEAmYKANko5LcqXCpY9CZbK8qh3uFe/VVS3r1OnTtt1ZQwUBa9ElEoGScOGDc3IkSNtLjgAAJmCgDZKt9LUYSpInT2C9Dq1bnmUhqDSV8G6jUBJU8qM6keqU4mos6LKzoVxW1VHFW8CACCIgDZKAW0wr0V5tKrL6c8b0zCAqsX46aef2nmNAqKRVJQ7S14qShMVWldvWK9HrHK3FMyqh3oYDR061Bbx79mzp+1pDACAHwFtlBL/vSHqdCtWHcMUuGpsdZU6UkqCSnRddtllua2zGhFGwaxGFWNQApQmCviUFuONXCUaFCSsozrpQlJ/jwrUaxhR9jcAQBABbZR6diqAVXCqYQrVkqURtjSyy4UXXmhrvmrsbdUkVN24vn372o5jek1waDugJOkC7KWXXjJXXHGFW2LsKEWqlxzWkX50Eakx5xs0aGBreQIAEERA62hYSw1coALayjFcuHCh7Sj2zDPP2KLiKsul4FbFpzVsqAZXIM0ApY2GOlVJLo/G3VdR+7AOnLBgwQI77KroglPF/QEACGKksADlHmpavny5HeVFLbAaeUV1JNUBrDBud2oUGm+kMNUG9deIVAubyiqphFhJUcqFPqNHjxW86/Mqh5GRSkonjTHepEmT3A6OSpG59957Qzvevi4ku3XrZl555RVTsWJFM2PGDNOoUSP3bHbyRgrTRYoO3V6rux6rH4DuLpWUyZMn2/rc/v4If/zxh0130ecN00hhJU2dH72RwnS3xX9Bum3bNtO6devQphAhOZ1/FQd4+wrn33xQQIvipdG6vBF04k3jx493rywZ3bt3j/u5NDFSSemkceYbN26c+z2dfvrpaY/lXhrNmzcv5u8555xzGNUsSvuft06Ck/bbkjRu3Li4n0tTWEcKKyn+kcLiTRMnTnSvRKbh/FtwtNCWAF1xqcXCa5n1t1qoRUPjrZ9//vluSfHr0aNH3NFMvCtFf9kylDyNG69KG1OmTLHzasVUHq06NYaNWiaU5nP77bebRYsWuaXGDngSPdC7ueylFhodsoP50FqmSa04JeXpp5+29Y7jHTv0veqz0UKbHrXQqqUuXqqQWmibNWtmOnTo4JYgkyg20H4S3Fc4/6ZGQFtCFLgm409DKG6l+bMhlmrN3nLLLbkHOVXp0G3fAw880M6HiVJ99LcoTcJP+erz5s0zVapUcUuyF8eN7MH6zE587wVHQAuElAJAtXrdcMMNdl6tdnPmzDFHH320nQ8LlcUbP368bZmdNWuWW/oXjcI3evRoynUBABIioAVCSLVmlWJwwQUXuCXGDsfcrl27Un9bV7fOfv31V9vx8vnnnzdTp0611RkSUbURlR0DACARAlogZJSPqFzFE0880S0xZuTIkebyyy8vVbejdGjR7bPNmzeb33//3daSVTm8jz/+2HzwwQd2sJJUatasaT766CNToUIFtwQAgLwIaIGQWbx4salTp46bM7YEXK9evVLektet/d12280+VqeTsmXL2seioFNl6fwUhKpTigLoeIGyfobSHvRzN27caP9fvXq1HZzku+++M6tWrbKTHq9Zs8a9K3+UbqA6tPE6GgEA4CGgBUJENWbr1q1r1q9f75ZkNm9EPgAAkmGkMCAkfvzxR1tQPVuC2Ro1asSkVQAAkAgBLRACqjXbuXNn8+mnn7olmU8d3MI6yhkAoHiRcgCUcspP7dOnjy1dlU00sII/VxgAgEQIaIFSTiWuNGpQSdRh1eHBKwOm/7fncOF/r/9nxXus0l7Dhg0z5cqVs8sBAEiGgBYIAVUc8ALL4qSyW16Fg+39/fl9f3B4VwAAEiGgBQAAQKjRBAIAAIBQI6AFAABAqBHQAgAAINQIaAEAABBqBLQAAAAINaocAEVMJbe0m6m26pYtW2w9WZXDKlu2bInUlgUAINMQ0AJFbNCgQWbmzJn2sYLaFStWmFWrVpl+/fqZ22+/3S4HAAAFR0ALFCG1xLZr18689NJLbslfFOS2aNHCzQEAgIIioAWKmNIM1q9fb959911z7rnn2mVHHnmkmTVrlilfvrydBwAABUenMKCI/f3vfzfVq1e3ObOek08+2ey8885uDgAAbA8CWqAY/O9//zMvvPCCmzOmQYMGBLQAABQSAlqgGGzbts2888479rEqG5xyyin2MQAA2H4EtEAx+PDDD83nn39uHx9xxBFm9913t48BAMD2I6AFisFrr73mHhnTtGlTs8MOO7g5AACwvQhogSKm/NmPP/7YzRlz2GGH2Y5ifkpJ+Pnnn82LL75ofvrpJ7c0+6hO7+bNm83atWvtuvjxxx/Npk2b7DrMj19//dVOqiyxcuVK+zNUQg0AkJkIaIEipmD1008/dXM5HcI8CtTef/99c+2115p69eqZ0047zTRp0sRMmDDBvSJ7/PLLL6ZPnz6mffv2plq1anZdqDrE2Wefba6//nqzbNkyO+paMgpcH3jgAfPPf/7T/OMf/7Ct4fr/jDPOMDfccIPZsGGDeyUAIJNQhxYoYnPmzDHHHnusfbzHHnuY7777zuy66662NXLNmjU2gG3evLm55ZZbzIgRI8ySJUvMoYceagYMGFDklRC0+5eG9AcFq1dffXVMJYigAw44wFx66aXm8ssvN/vss49bmkPrUj9j8ODB5t///repWLGiad26talSpYpt8Z4/f7754osvzEknnWTuvfdec9BBB7l3AgAyAQEtUMSGDx9uW2BFLYYaUEFB5Ntvv22rHWgI3KuuusoMGzbM3HPPPfZ1xx13nHn11VdtRYSvv/7atjoWlTvvvNPsuOOObq74KahXQK+gUwNPnHjiiaZly5Y2ANW6Gj16tG299ajF9rHHHrMXB6JWbqUWdOvWzXa869y5s12fderUMeXKlct9jTrmXXTRRfYiYcaMGTbYBQBkCAW0AIrGb7/9FunUqZMuGu00ePDgyB9//BEZO3ZsJBrURqIBbOT333+PbNiwIdKgQYPc13Xp0iUSDeIi0UAsMmrUqNzlhT0ddNBB9jOWFP3t1113nf0sd911V57P8ueff0bmzp0bad26dcznjgatkZ9//tm+JnphEDnkkEPscv2sjRs32uXxzJkzJ1KtWjX7uq1bt7qlAICwo4UWKELqmHT44YfbNAJ55ZVXbEtkNKAyDz/8sL19/re//c12CNPtcHUeUy6tnlMrragzUzTQs4/ToTzTnXbayc0lplZi5fdWqFDBLSl+aqVu1aqVbXXV35xoKOCvvvrKnHXWWeazzz5zS4xNUVCebc+ePc2iRYtMr169zG233ZbbKpuIWqQHDRpk0xu0zgEA4UdACxShBQsW2ABVDjnkENvhSWkF6gimPFkFs54vv/zSLFy40HYaU0cm/3PFSQG0Ok+lExTnh/KGg6kNWhe9e/e2Zc1SDTYxe/Zsc95559kcZI8CUqUlKF/2v//9b8KA2E+VExRAn3nmmfbCAgAQflQ5AIrQ3Llz3SNjc0Kffvppm+OpwHXLli22U5ZHOZ9qhaxZs2aJBbOi1mTlsarltjAntcD6qSOXgvh9993XdoxLRS3W999/f0wLrILZgw8+2Nx6661pBbOiDmPKn1Wrb6qqCQCAcKCFFigiCtguu+wyM3bsWDuvSge6Nb5u3To7X79+fdt5qVOnTrbzV2nh1cMtzM+kw0yLFi3Mbrvt5pbktASrZVU1Z+fNm5fW71OKxKOPPmrXm+fII480Tz31lA1s06HPok56S5cuta26qVIUAAClHwEtUESUP9uoUSObdlC2bFmbP6v0A1UsUOmojRs32teNGjXKdO3a1T6OR7tofgcWSJd+dmGnFqRLf5NSCBYvXmwrEKRbaUHr9eKLL7bBqKdNmzZ2PjhgRTy60FDKgf6fOHFiqbqYAAAUDAEtUER0S7tWrVr28VFHHWVeeuklU6lSJTs/cuRI28qo3U9BrmrVeq2XCtiUcqBAS8+/8cYb5uabby6SerG6/T5p0iQbcJcEDXagurFqLU03ZUAdw9TRLkgluZTWkCqoVQe7unXrmnbt2tlUBX+rMQAgnMihBYqIevB7TjjhhJiArWPHju6RMcuXL3ePcoItdY4655xzbAumAlq1JCrAVUBb2JN+dklSx7jVq1fbOrLp0LC4ujiQSy65JLcWrTz55JN2cIpUQ9w+88wzdhAGpSoQzAJAZqCFFigCChSvuOIKOyiA3Hfffeaaa66xj0UBVe3atW3AqtZGtdCqZfGdd96xnZ/8aQjquFRUgaeC5nRu0xeV9evXm1NPPdWuC7XUJks7UMu1glB1rtNADOPHjzfPPfeczVP2u+uuu2xJr3ijrCk/uEOHDnaghpdffjkmIAYAhBcttEARUEurv9WxRo0a7lEOry6tqLqBl8ep9IKqVavaklIe5bjq+aKYSjKYFaU8qOrDuHHjbBCfiFIS1DKrYFb/P/TQQ2bvvfe2aQbB9/Xt29emEnid7zxq3e3Tp4/NZVYObropDgCA0o8WWqAIrFy50taSlf3339/mffpbA1esWGEOOOAA20KrjlEq56U6q23btrW1atWTvySHoy1OanlVCsbzzz9vhwFWsKl1ptbj77//3rZaa9AEBahK3VDtWi/tQHTxoHQD5RlrGF3PYYcdZsuBaRhdlffSd/DWW2/ZiwVVRVBdXABAZiCgBYrA1KlTbWAqXbp0MSNGjLAtoh6Vn9LzGq1K5byUZvDEE0+Yxo0bm//85z9m9913d6/MDps2bTIDBw60wapoEAqlB3iDKKg1VSkbGoQhXpqAglrV9lWKx5gxYxLWl9X7+/fvT+4sAGQYAlqgCChH89JLL7WPdZv76KOPto/9NLCCAt1p06bZW+/HHHOM6dGjR9bmdW7dutVMnz7dlvHS9MMPP9hW1mrVqpkjjjjCrh//RUE8WqdK9dDwwgqG9X/lypVtWsdBBx1kW8BLqqIDAKDoENACRUQBmqoTxOuc5NHup9ZFVRyQVAFbNlCVArWwlilTxq4X/Z/fkdOUrqCOdFq/eqw85GxJ4QCAbERACwAAgFCjygEAAABCjYAWAAAAoUZACwAAgFAjoAUAAECoEdACAAAg1AhoAQAAEGoEtAAAAAg1AloAAACEGgEtAAAAQo2AFgAAAKFGQAsAAIBQI6AFAABAqBHQAgAAINQIaAEAABBqBLQAAAAINQJaAAAAhBoBLQAAAEKNgBYAAAChRkALAACAUCOgBQAAQKgR0AIAACDUCGgBAAAQagS0AAAACDUCWgAAAIQaAS0AAABCjYAWAAAAoUZACwAAgFAjoAUAAECoEdACAAAg1AhoAQAAEGoEtAAAAAg1AloAAACEGgEtAAAAQo2AFgAAAKFGQAsAAIBQI6AFAABAqBHQAgAAINQIaAEAABBqBLQAAAAINQJaAAAAhBoBLQAAAEKNgBYAAAChRkALAACAUCOgBQAAQKgR0AIAACDUCGgBAAAQYsb8H5P9iVFEofJ+AAAAAElFTkSuQmCC;" vertex="1" parent="1">
                    <mxGeometry x="246.37" y="1735" width="157.27" height="50" as="geometry"/>
                </mxCell>
                <mxCell id="147" value="y[n] = x[n] * h[n]" style="text;html=1;strokeColor=none;fillColor=none;align=center;verticalAlign=middle;whiteSpace=wrap;rounded=0;" vertex="1" parent="1">
                    <mxGeometry x="477.5" y="1745" width="90" height="30" as="geometry"/>
                </mxCell>
                <mxCell id="148" value="" style="endArrow=none;dashed=1;html=1;dashPattern=1 3;strokeWidth=2;" edge="1" parent="1">
                    <mxGeometry width="50" height="50" relative="1" as="geometry">
                        <mxPoint x="47.5" y="1810" as="sourcePoint"/>
                        <mxPoint x="567.5" y="1810" as="targetPoint"/>
                    </mxGeometry>
                </mxCell>
                <mxCell id="149" value="Convolusione os sianois" style="text;html=1;strokeColor=none;fillColor=none;align=center;verticalAlign=middle;whiteSpace=wrap;rounded=0;" vertex="1" parent="1">
                    <mxGeometry x="85" y="1830" width="175" height="30" as="geometry"/>
                </mxCell>
                <mxCell id="151" value="x[n] = {1,1,1,1,1}&amp;nbsp;" style="text;html=1;strokeColor=none;fillColor=none;align=center;verticalAlign=middle;whiteSpace=wrap;rounded=0;" vertex="1" parent="1">
                    <mxGeometry x="85" y="1870" width="175" height="30" as="geometry"/>
                </mxCell>
                <mxCell id="152" value="h[n] = {1, 0.5, 0.25, 0.12}" style="text;html=1;strokeColor=none;fillColor=none;align=center;verticalAlign=middle;whiteSpace=wrap;rounded=0;" vertex="1" parent="1">
                    <mxGeometry x="260" y="1870" width="175" height="30" as="geometry"/>
                </mxCell>
                <mxCell id="162" value="" style="endArrow=none;html=1;" edge="1" parent="1">
                    <mxGeometry width="50" height="50" relative="1" as="geometry">
                        <mxPoint x="290" y="1960" as="sourcePoint"/>
                        <mxPoint x="410" y="1960" as="targetPoint"/>
                    </mxGeometry>
                </mxCell>
                <mxCell id="163" value="" style="endArrow=none;html=1;" edge="1" parent="1">
                    <mxGeometry width="50" height="50" relative="1" as="geometry">
                        <mxPoint x="309.31" y="1960" as="sourcePoint"/>
                        <mxPoint x="310" y="1920" as="targetPoint"/>
                    </mxGeometry>
                </mxCell>
                <mxCell id="164" value="" style="endArrow=none;html=1;" edge="1" parent="1">
                    <mxGeometry width="50" height="50" relative="1" as="geometry">
                        <mxPoint x="329.71999999999997" y="1960" as="sourcePoint"/>
                        <mxPoint x="330" y="1930" as="targetPoint"/>
                    </mxGeometry>
                </mxCell>
                <mxCell id="165" value="" style="endArrow=none;html=1;" edge="1" parent="1">
                    <mxGeometry width="50" height="50" relative="1" as="geometry">
                        <mxPoint x="349.31" y="1960" as="sourcePoint"/>
                        <mxPoint x="350" y="1940" as="targetPoint"/>
                    </mxGeometry>
                </mxCell>
                <mxCell id="166" value="" style="endArrow=none;html=1;" edge="1" parent="1">
                    <mxGeometry width="50" height="50" relative="1" as="geometry">
                        <mxPoint x="369.72" y="1960" as="sourcePoint"/>
                        <mxPoint x="370" y="1960" as="targetPoint"/>
                        <Array as="points">
                            <mxPoint x="370" y="1950"/>
                        </Array>
                    </mxGeometry>
                </mxCell>
                <mxCell id="168" value="" style="endArrow=none;html=1;" edge="1" parent="1">
                    <mxGeometry width="50" height="50" relative="1" as="geometry">
                        <mxPoint x="205" y="2060" as="sourcePoint"/>
                        <mxPoint x="300" y="2060" as="targetPoint"/>
                    </mxGeometry>
                </mxCell>
                <mxCell id="169" value="" style="endArrow=none;html=1;" edge="1" parent="1">
                    <mxGeometry width="50" height="50" relative="1" as="geometry">
                        <mxPoint x="280" y="2060" as="sourcePoint"/>
                        <mxPoint x="280" y="2020" as="targetPoint"/>
                    </mxGeometry>
                </mxCell>
                <mxCell id="170" value="" style="endArrow=none;html=1;" edge="1" parent="1">
                    <mxGeometry width="50" height="50" relative="1" as="geometry">
                        <mxPoint x="260" y="2060" as="sourcePoint"/>
                        <mxPoint x="260.14" y="2030" as="targetPoint"/>
                    </mxGeometry>
                </mxCell>
                <mxCell id="171" value="" style="endArrow=none;html=1;" edge="1" parent="1">
                    <mxGeometry width="50" height="50" relative="1" as="geometry">
                        <mxPoint x="240" y="2060" as="sourcePoint"/>
                        <mxPoint x="240" y="2040" as="targetPoint"/>
                    </mxGeometry>
                </mxCell>
                <mxCell id="172" value="" style="endArrow=none;html=1;" edge="1" parent="1">
                    <mxGeometry width="50" height="50" relative="1" as="geometry">
                        <mxPoint x="220" y="2060" as="sourcePoint"/>
                        <mxPoint x="220" y="2050" as="targetPoint"/>
                        <Array as="points"/>
                    </mxGeometry>
                </mxCell>
                <mxCell id="173" value="" style="endArrow=none;html=1;" edge="1" parent="1">
                    <mxGeometry width="50" height="50" relative="1" as="geometry">
                        <mxPoint x="110" y="1960" as="sourcePoint"/>
                        <mxPoint x="230" y="1960" as="targetPoint"/>
                    </mxGeometry>
                </mxCell>
                <mxCell id="174" value="" style="endArrow=none;html=1;" edge="1" parent="1">
                    <mxGeometry width="50" height="50" relative="1" as="geometry">
                        <mxPoint x="129.31" y="1960" as="sourcePoint"/>
                        <mxPoint x="129.31" y="1930" as="targetPoint"/>
                    </mxGeometry>
                </mxCell>
                <mxCell id="175" value="" style="endArrow=none;html=1;" edge="1" parent="1">
                    <mxGeometry width="50" height="50" relative="1" as="geometry">
                        <mxPoint x="149.71999999999997" y="1960" as="sourcePoint"/>
                        <mxPoint x="149.71999999999997" y="1930" as="targetPoint"/>
                    </mxGeometry>
                </mxCell>
                <mxCell id="176" value="" style="endArrow=none;html=1;" edge="1" parent="1">
                    <mxGeometry width="50" height="50" relative="1" as="geometry">
                        <mxPoint x="169.31" y="1960" as="sourcePoint"/>
                        <mxPoint x="169.31" y="1930" as="targetPoint"/>
                    </mxGeometry>
                </mxCell>
                <mxCell id="177" value="" style="endArrow=none;html=1;" edge="1" parent="1">
                    <mxGeometry width="50" height="50" relative="1" as="geometry">
                        <mxPoint x="189.72000000000003" y="1960" as="sourcePoint"/>
                        <mxPoint x="189.72000000000003" y="1930" as="targetPoint"/>
                    </mxGeometry>
                </mxCell>
                <mxCell id="178" value="" style="endArrow=none;html=1;" edge="1" parent="1">
                    <mxGeometry width="50" height="50" relative="1" as="geometry">
                        <mxPoint x="209.86" y="1960" as="sourcePoint"/>
                        <mxPoint x="209.86" y="1930" as="targetPoint"/>
                    </mxGeometry>
                </mxCell>
                <mxCell id="179" value="" style="endArrow=none;html=1;" edge="1" parent="1">
                    <mxGeometry width="50" height="50" relative="1" as="geometry">
                        <mxPoint x="200" y="2010" as="sourcePoint"/>
                        <mxPoint x="320" y="2010" as="targetPoint"/>
                    </mxGeometry>
                </mxCell>
                <mxCell id="180" value="" style="endArrow=none;html=1;" edge="1" parent="1">
                    <mxGeometry width="50" height="50" relative="1" as="geometry">
                        <mxPoint x="219.31" y="2010" as="sourcePoint"/>
                        <mxPoint x="219.31" y="1980" as="targetPoint"/>
                    </mxGeometry>
                </mxCell>
                <mxCell id="181" value="" style="endArrow=none;html=1;" edge="1" parent="1">
                    <mxGeometry width="50" height="50" relative="1" as="geometry">
                        <mxPoint x="239.71999999999997" y="2010" as="sourcePoint"/>
                        <mxPoint x="239.71999999999997" y="1980" as="targetPoint"/>
                    </mxGeometry>
                </mxCell>
                <mxCell id="182" value="" style="endArrow=none;html=1;" edge="1" parent="1">
                    <mxGeometry width="50" height="50" relative="1" as="geometry">
                        <mxPoint x="259.31" y="2010" as="sourcePoint"/>
                        <mxPoint x="259.31" y="1980" as="targetPoint"/>
                    </mxGeometry>
                </mxCell>
                <mxCell id="183" value="" style="endArrow=none;html=1;" edge="1" parent="1">
                    <mxGeometry width="50" height="50" relative="1" as="geometry">
                        <mxPoint x="279.72" y="2010" as="sourcePoint"/>
                        <mxPoint x="279.72" y="1980" as="targetPoint"/>
                    </mxGeometry>
                </mxCell>
                <mxCell id="184" value="" style="endArrow=none;html=1;" edge="1" parent="1">
                    <mxGeometry width="50" height="50" relative="1" as="geometry">
                        <mxPoint x="299.86" y="2010" as="sourcePoint"/>
                        <mxPoint x="299.86" y="1980" as="targetPoint"/>
                    </mxGeometry>
                </mxCell>
                <mxCell id="196" value="y[n-1] = 1,25 + 1,5 + 2 = 4,75" style="text;html=1;strokeColor=none;fillColor=none;align=center;verticalAlign=middle;whiteSpace=wrap;rounded=0;" vertex="1" parent="1">
                    <mxGeometry x="167.5" y="2140" width="212.5" height="20" as="geometry"/>
                </mxCell>
                <mxCell id="197" value="y[n] = 1,12 + 1,25 + 1,5 + 2 = 5,87" style="text;html=1;strokeColor=none;fillColor=none;align=center;verticalAlign=middle;whiteSpace=wrap;rounded=0;" vertex="1" parent="1">
                    <mxGeometry x="167.5" y="2170" width="212.5" height="20" as="geometry"/>
                </mxCell>
                <mxCell id="198" value="y[n + 1] = 1,12 + 1,25 + 1,5 + 2 = 5,87" style="text;html=1;strokeColor=none;fillColor=none;align=center;verticalAlign=middle;whiteSpace=wrap;rounded=0;" vertex="1" parent="1">
                    <mxGeometry x="167.5" y="2200" width="212.5" height="20" as="geometry"/>
                </mxCell>
                <mxCell id="199" value="y[n + 3] = 1,12 + 1,25 + 1,5&amp;nbsp; = 3,87" style="text;html=1;strokeColor=none;fillColor=none;align=center;verticalAlign=middle;whiteSpace=wrap;rounded=0;" vertex="1" parent="1">
                    <mxGeometry x="168.75" y="2250" width="212.5" height="20" as="geometry"/>
                </mxCell>
                <mxCell id="200" value="y[n + 4] = 1,12 + 1,25&amp;nbsp; &amp;nbsp;= 2,37" style="text;html=1;strokeColor=none;fillColor=none;align=center;verticalAlign=middle;whiteSpace=wrap;rounded=0;" vertex="1" parent="1">
                    <mxGeometry x="173.75" y="2280" width="212.5" height="20" as="geometry"/>
                </mxCell>
                <mxCell id="201" value="y[n + 5] = 1,12&amp;nbsp; &amp;nbsp;= 1,12" style="text;html=1;strokeColor=none;fillColor=none;align=center;verticalAlign=middle;whiteSpace=wrap;rounded=0;" vertex="1" parent="1">
                    <mxGeometry x="178.75" y="2310" width="212.5" height="20" as="geometry"/>
                </mxCell>
                <mxCell id="202" value="y[n-2] =&amp;nbsp; 1,5 + 2 = 3,5" style="text;html=1;strokeColor=none;fillColor=none;align=center;verticalAlign=middle;whiteSpace=wrap;rounded=0;" vertex="1" parent="1">
                    <mxGeometry x="167.5" y="2110" width="212.5" height="20" as="geometry"/>
                </mxCell>
                <mxCell id="203" value="y[n-3] =&amp;nbsp; &amp;nbsp;2 = 2" style="text;html=1;strokeColor=none;fillColor=none;align=center;verticalAlign=middle;whiteSpace=wrap;rounded=0;" vertex="1" parent="1">
                    <mxGeometry x="167.5" y="2080" width="212.5" height="20" as="geometry"/>
                </mxCell>
                <mxCell id="210" value="y[n + 2] = 1,12 + 1,25 + 1,5 + 2 = 5,87" style="text;html=1;strokeColor=none;fillColor=none;align=center;verticalAlign=middle;whiteSpace=wrap;rounded=0;" vertex="1" parent="1">
                    <mxGeometry x="168.75" y="2220" width="212.5" height="20" as="geometry"/>
                </mxCell>
                <mxCell id="211" value="" style="shape=image;verticalLabelPosition=bottom;labelBackgroundColor=default;verticalAlign=top;aspect=fixed;imageAspect=0;image=data:image/png,iVBORw0KGgoAAAANSUhEUgAABuAAAAWECAYAAAAzxcJJAAAAAXNSR0IArs4c6QAAAARnQU1BAACxjwv8YQUAAAAJcEhZcwAAJOgAACToAYJjBRwAAP+lSURBVHhe7N0HeFNlF8DxU/ZG9gZBEURFxYUigoKCiopbGbKruFDRDxQR3HshrpatoLhw4GAJ7r0VJyCyRGTv1Xycm5P6NqRt2iZpkv5/z3Mf3nMzmty8Scs9OedN8e0hAAAAAAAAAAAAACKimP0LAAAAAAAAAAAAIAJIwAEAAAAAAAAAAAARRAIOAAAAAAAAAAAAiCAScAAAAAAAAAAAAEAEkYADAAAAAAAAAAAAIogEHAAAAAAAAAAAABBBJOAAAAAAAAAAAACACCIBBwAAAAAAAAAAAEQQCTgAAAAAAAAAAAAggkjAAQAAAAAAAAAAABFEAg4AAAAAAAAAAACIIBJwAAAAAAAAAAAAQASRgAMAAAAAAAAAAAAiiAQcAAAAAAAAAAAAEEEk4AAAAAAAAAAAAIAIIgEHAAAAAAAAAAAARBAJOAAAAAAAAAAAACCCSMABAAAAAAAAAAAAEUQCDgAAAAAAAAAAAIggEnAAAAAAAAAAAABABJGAAwAAAAAAAAAAACKIBBwAAAAAAAAAAAAQQSTgAAAAAAAAAAAAgAgiAQcAAAAAAAAAAABEEAk4AAAAAAAAAAAAIIJIwAEAAAAAAAAAAAARRAIOAAAAAAAAAAAAiCAScAAAAAAAAAAAAEAEkYADAAAAAAAAAAAAIogEHAAAAAAAAAAAABBBJOAAAAAAAAAAAACACCIBBwAAAAAAAAAAAEQQCTgAAAAAAAAAAAAggkjAAQAAAAAAAAAAABFEAg4AAAAAAAAAAACIIBJwAAAAAAAAAAAAQASRgAMAAAAAAAAAAAAiiAQcAAAAAAAAAAAAEEEk4AAAAAAAAAAAAIAIIgEHAAAAAAAAAAAARBAJOAAAAAAAAAAAACCCSMABAAAAAAAAAAAAEUQCDgAAAAAAAAAAAIggEnAAAAAAAAAAAABABJGAAwAAAAAAAAAAACKIBBwAAAAAAAAAAAAQQSTgAAAAAAAAAAAAgAgiAQcAAAAAAAAAAABEEAk4AAAAAAAAAAAAIIJIwAEAAAAAAAAAAAARRAIOAAAAAAAAAAAAiCAScAAAAAAAAAAAAEAEkYADAAAAAAAAAAAAIogEHAAAAAAAAAAAABBBJOAAAAAAAAAAAACACCIBBwAAAAAAAAAAAEQQCTgAAAAAAAAAAAAgglJ8e9gYAAAAgOPhhx+W9evXe+NixYrJ1VdfLfvss48XAwAAAAAAZIcEHAAAABDCqFGjZNCgQRaJjBgxQkaOHGkRAAAAAABA9mhBCQAAAAT58ccfZciQIRaJnHfeeV4CLr+0iu7++++XDh06SJ06daR06dKSkpKSuU2YMMGuKV6Sz71s3rx5dgkigeNbNLivcfv27W0vigp9X7tzgC9PZK93795ZjlWoLV4k0mMFAABQJOAAAAAQUStXrpSZM2dKenq6l3S644475JFHHvGSTG+++aYsXbrUrhmftm/fLt26dZNt27Z5catWrWTixIn5PrGnJ4KbNGki//vf/+Tdd9+Vv//+W3bs2GGXAgAAAACAZEQCDgAAAAX2+++/ewmmpk2bSu3ataVTp06Smprq7Rs+fLhce+210qdPH+nSpYs0aNBAatas6VWVvfjii7J161a7l/iglW8//PCDN9bn8tprr0m5cuW8OK/++OMP7zmvWbPG9gDx46+//vLWNnSrR3766Se7tGA0yVytWrUs9/3qq6/apQAAAACQ/EjAAQAAIN+WLVsm3bt3l+bNm3vVbppwCseqVavk5ZdflgsuuEBq1arlJenWrVtnlxaeGTNmeGu/KW0TqQmD+vXre3F+3HTTTbJ582aLRFq2bCmjR4/2KgFnzZqVuWnCEoi1hg0byoknnmiR36RJk2xUMNOnT8+SeK5evbqcfvrpFgGIV88++2yW30+6xQv9Uk/wY9PfqwAAAPGKBBwAAADyRZNIeuJrypQpkpGRYXv/U758eWnUqJEcccQRcvDBB0uNGjW8aptgGzdu9NpUNm7cWDZs2GB7Y+/ff//11pfx+XxePGbMGDnmmGO8cX7oc9HquYBmzZrJZ599JldccYWcdtpp0rFjx8xN14UDCoPOedfkyZNDvp/zKjiRp21dS5YsaRGAeNWmTZssv590ixctWrTY67FVqVLFLgUAAIg/JOAAAACQZ88884ycddZZe7VWPOigg+Thhx+W77//XjZt2iR//vmnfPnll15Lx3/++cdrN6nfWL/uuuu85JxLK+AKc220fv36eeuzKW1D2aNHD2+cX1999VWW53PJJZdImTJlLMreyJEjvSRgYGvfvr1dAkTeOeecIxUqVLDIX9U6e/Zsi/JHk9lvvfWWRX7BiT4AAAAASHYk4AAAAJAnn3/+uZes2r17t+0R2WeffbyKF028XXPNNXLIIYfYJVmVKlXK+8b6gw8+6K0bl5aWtlcirjAsWbJEDj/8cBkxYoT32O666y67JP9+++03G/lpchKIN1qpev7551vkV9A2lM8995zs3LnTIvE+D/T9BQAAAABFCQk4AAAAhE0r3nTdNvfkuq6R9uGHH0rPnj1DtpjMjrajGzBggPz6668ycOBA21s4GjRo4FWe6abVeXl5HtkJXtOuUqVKNgLiS3B12rRp07zWsPk1ceJEG/lR/QYAAACgKCIBBwAAgLBpgmrx4sUW+ZNor7/+eoGqu0qXLi1PPPGEvPTSS16FXLLYtm2bjfxSUlJsBMSXtm3bSpMmTSwS2bJli/d+zI/58+d77VcDSpQoId27d7cIAAAAAIqOFF9glXkAAAAgB6tXr5aGDRt6J+cDtGWjJuXiha5fpSf/ly9f7j1ebY159tlnS926de0ae9NKtR9//NGrxFu7dq23bpvermbNmnLUUUflu0WmHpdbb73VIpG5c+fGdD23lStXymeffeatvadrcmlVnz6vAw44QA477DBvnB96vD766CPvGOv96vpheqy0xaDed2HRxzVv3jxZunSpbNiwQapWrSoHH3ywtG7d2ksCBUTidYnmMcjIyPCSWNrOddWqVV4lmiam9Wdopeb+++8vBx54oF07cvSYuO/ldu3aecczr3T9xPvuu88ikS5dusgbb7xh0d40Ua3P9+eff/ae7+bNm6VixYpSrVo1r3Wlvob5qUh1E975fS76mfDNN9947yF9XNWrV/c+S44//nipXLmyXSty9HNIj8OKFSu8NTRr1arlrR2pX3TIiT6+Tz/91FvDUj/3AvPx6KOPlsaNG9u18kernr/++mv5448/ZP369bJr1y4pV66cdyz0vvXLF1WqVLFrR59WX7/33nuycOFC772nLVSbNm3qJZF13gTo633iiSdalP/fVdE8tvFCK1TdqtVFixbJvvvua1FkfPfdd956sHo89Us3tWvXluOOOy4iP0c/v3VOBHCKCwAAxBVNwAEAAAC5uf322/WsVuZWrlw537p16+zS2HB/frt27Wyvzzd9+nTfSSed5CtWrFiW6+g2bdo0u9Z/vv76a9///vc/32GHHeZLSUnZ6zbu1qRJE9+jjz7q27Jli906tEWLFoW8fW7b+PHj7R78RowYkeXyuXPn2iW52759u+/xxx/3tWzZMsfnVbx4cV+bNm186enpvs2bN9utc/bee+95x7hEiRIh71O3/fff3/fQQw95jyNWlixZ4rvwwgt9pUqVCvmYatSo4bvnnnt8O3fu9K5fkOMbzWOwfv1634033uirU6dOyPt1ty5duvief/55u2VkLFy4MMuc0fGff/5pl4Zn9+7dvnr16mV5rC+++KJd+h99ze6//35f+/btfaVLl85y/eCtSpUqvuuuu863bNkyu3V43PtwPytys23bNu+x7bffflnuw9309e/QoYPvgw8+sFvlTueZex86D5XOy1GjRvkOOuigLJcHtrVr13rXC6bHeuLEib4jjzwyx/f6gQce6H3G6PXzYvbs2b6TTz455Gequ+nPbt68uW/IkCG+v/76y24defr5O3ToUF/VqlVDPg6dRwMGDPCtWrXKu352xzsc0T624bj77ruz/Kw777zTLsmbs88+O8v9vPXWW3bJf3r16pXlOvq7LC9yOtZTpkzxNWvWLMvl7nbMMcfk6X0Uir6/3fsEAACIJ/x1AgAAgLDoyUj3JJeetIs19+frSbeMjAzflVdemWV/8BacgHvsscdCXi+3rUWLFr7ff//d7mVvhZ2A+/jjj32NGjXKcttwtuCfH0wTST179gx52+y2pk2b+n7++We7h+h58803fZUqVQr5GIK3448/3ksY5+f4RvsYfPvtt766deuGvJ/sNk10RVrwiWxNuufFzJkzs9xekyXBicjvvvsux6RGdlvlypVDJg+y49423ATcjz/+6CXc3dvmtvXp08e3Y8cOu4fshUpSrFmzxpuX7v7gLVQC7rfffvMdeuihIa+f3da6dWvfP//8Y/eQvXA+U7PbNKEfDZoc1vdTqJ8ZvOn76Pvvv893Ai6axzYvVq5c6StZsmTmz9B5qa9NXqxYsSLLlwUaNmwYMlkYjQScvu+7d++eZX92m34hJLffQzkhAQcAAOIZa8ABAAAgV9oOTVuxuU4//XQbFZ6bbrpJRo8ebZFI2bJlpXnz5nLEEUd4La5CCV6bTWnrsmbNmnltxVq1auW1+gumbfK0zZm20Io3zz//vNduzV2fL6BOnTpea0R9XtpCNC+2b9/uvc7PPPOM7fmP3u+RRx7ptVwMbpH3+++/e236gudMJL377rty7rnneu0mXdoeT9viaZtNtzXehx9+KOeff36e25NF+xhoq9AOHTp47Sxd2jZzv/3289qg6qY/o0yZMnZpdGgrOtekSZNsFB63jZ266KKL9lrXUVu8Br8Geh19rjpP9T2oLQX1+bu0/aG2s5w7d67tiSxtj6fvb21t6NLXVR+Pvs6hWtmOHz9ezjzzTO955YW2ctTb6bwM0PnasmVLb8uuxaW2ldXWfdrSz1W8eHGvPakevxYtWuw1V7SN4rHHHuu1+czJLbfckuUzNUBbuh566KFeS1dtDapzPxb0fXHSSSd57ydX4PkGvy56/c6dO3vvq7yK9rHNC21zqe2TA3Re6mdeXkyYMMGbZwH9+vXLVzvX/OjVq5dMnjzZov/mtv4eCm5/vHv3bunfv7988cUXtgcAACCJeGk4AAAAIAfBlS26aVVCrLk/X1sLBtqjaXWEtrrbunWrXdPvhx9+8C1YsMAiP20vp+3KLrjgAt+kSZN8ixcvtkuy+vfff31PPvnkXpVJZ555pl0jK/3Zs2bNytyCK6YeeOCBLJcHtuXLl9s9+OW1Quvzzz/fq/2iVoVp9VKoSgatunn11Vd93bp1826XU+WBtv5z71e3rl27elVMrtWrV/vuu+8+X9myZbNcV9v4bdy40a4VOVoVVLt27Sw/q2bNml7bOLdVqFZ76DE+5JBDMq+37777Zrldbsc32sfg8ssvz3J9rXR57rnnfJs2bbJr/GfXrl2+n376yXfcccf56tevb3sjRx9n+fLlszwerawMx4YNG7y2tO5tdW4G++KLL7zLtGrl4Ycf9qrOAu1BXfp+0nl69NFHZ7lPfT+GM6fc2+RWAaePPXhe6HPR11NfV5e+7vr6u9fVTVsw5iS4SqhWrVqZ444dO/o++uijLNVJWu2kc1dbYgZoRZPOc/d+tN2szpfgY6LHb+rUqXu10jzttNOyraRaunRplqor3S699FLf/Pnz7RpZ6WeJtv+97LLLvArFaFTAde7cOcvj0c+skSNHehViLp1H55xzTub1gl/P3Crgon1s82POnDlZ7l9b7YZLH4e2ww3cVqvMtPVrKJGugHOrSPX1++STT7IcF/0c08r04N+t+l7PDyrgAABAPOOvEwAAAORq9OjRWU5waYKnMLiPIbC1bds2rBPyAXqiNvjkbU70JPMRRxyR5WdqEiQ3eU2kBeTldnpyPvhEs7bKDHctJj3h/ssvv1iUlSZPglsF3nLLLXZpaF9++eVeLSEHDRpkl0bOwIEDs/wMbb2pzyU7epx07Tb3NoEtp+Mbi2PgnvTXpHK4czO7pEhBXXLJJVkeuyZgwjFu3Lgst9N5GIo+P30PhkuTUv37989y30888YRdmj33+rkl4IJbLmoySdeJzMmwYcOy3Ea/DPDVV1/ZpXsLTlIEtmuuucaukbvgZFRqamqu7S81Wa0JW/d2r7zyil2ala4f6V4vt7nu0s/gSK8Bp0ku9/HoFyc0KZWT4NclsOWWgIv2sc2vAw44IPO+NfkYWOMuN++++26Wx3X66afbJXuLdAIusA0fPtyuEdqvv/66V9Je2/HmFQk4AAAQz2hBCQAAgFytWbPGRn7Vq1e3UeHStlYvvPCCVKhQwfbkTtsTanuvcOnPeO6557K07tLWXvFAW/79+eefFolUq1ZNZs+eHbKFZij16tXzWm+G8vDDD2dpFajt/2699VaLQtPWn2lpaRb5jRkzxmsfGCnr1q3LcvxTUlLkxRdf9J5LdkqXLi0vv/yy1KhRw/aEJ9rHQJ+L29JUW2qGOzcPPPBAG0WWto5z6ftL23DmJrhdZfD9BOjz0/dguPR99/jjj3stKgO07WOk6Gswbtw4i/zGjh3rtcPMyR133CGnnnqqRSIZGRnefMkLbXf40EMPWZQzbXP4zjvvWCTez37qqaf2an0aTNv96dzXNrsBDz74oI2y+u2332zkd/nll9sod/oZHO7nTriCj+edd97ptaPMib4uJ598skXhicWxza/U1FQb+du3htsWNj093UZ+AwYMsFFsnHXWWXLbbbdZFJq21b3qqqss8nv77bdtBAAAkBxIwAEAACBXwQm47NYnys7777/vJYZy2z766CO7RXiuuOKKbNd6iyRdA0rX/wn4+OOPbVS4HnnkERv53XfffRFZm0mTEnpiOUCTXOGeWL7wwgu9daICNm/eLFOmTLGo4DQZunXrVotEzjvvPG+NtNzoyfJhw4ZZlLtYHAP3eajcTvjHgq4l2KhRI4tE1q5dK6+//rpFoenag++9955F/jWzevToYVHB6Rpxun5fgK6rF3zs8ktfly1btlgk0qZNGy8RGo7g5JkmK/OSbNYEhc6rcAS/1zU5Fe5t9TNS19gK0M/ZUGukxdN8/Pnnn73EWIAm2K+++mqLcnb//ffbKDyxOLb5pesy6hcIAjSZnxv9ff3KK69Y5F+rMtZrtt511102ypl+Vrq+/vprGwEAACQHEnAAAADI1caNG23kV758eRuF55xzzvGqEnLbunfvbrcIz8UXX2yj6GvcuLGN/AmAwrZ06VLvJHWAVr/l9fhl55NPPvGqLQKOP/54r1ohXH379rWRnyZgI2XevHk28rvkkktslDs9PiVKlLAoZ7E4BlpJqsmlgOnTp0e0WjA/NPEQfExzq7p55plnslQK6nu5bt26FkWG+/7btWuX/PjjjxYVjJs4VMGvW06aN2/uVbEF6Hxxk0Y5qVWrVq7VXAFaXedWaOmXAbKrXM3OKaecYiO/Dz74wEb/CX7Nnn32WRvFXvD7/KKLLgo7IXjooYfKYYcdZlHOYnVs80s/1/VLBgH6mf/hhx9aFJq+H92q1T59+oT9uRcJhxxyiLRo0cKinB188MFZHtuSJUtsBAAAkBxIwAEAACBXbostpRU9hU0fU0Hb8GmlwmOPPeYlZvSkoZ4UL1u2rJeECN608ipAK2YiVYGTX8EnefVkvlspURCfffaZjfzCTRQEdOjQwUZ+4SYlwvH555/byJ8sateunUW504SXnvANRyyOgSYU3Me/aNEirwJtxowZXmKgsAS3j9QEhdsqM5ie8Hdl134ymL6Pnn/+ebn00ku9ikFNAOn7WttOBr//9Dquf//910YFU1hz/cgjj/SeVzh++OGHLIlZvW1eNWzY0EZ+bvI+QBOnrsGDB8vNN98sf//9t+2JHfd9rtq3b2+j8IR7/Vgd24K47LLLbOQX3F4ymHu5zrF+/fpZFBt5OYb6GajVyQGF/QUEAACASCMBBwAAgFxVrVrVRn7xcJJM2+SFewI7mJ6810qXQFszbUOnFTWaZNi2bZtdK2faorAwLViwwEZ++TlxnB1tKehq2bKljcLTpEmTLElbrWpwK6TyS5NS7mPTE9/ByeHcaKI1HLE6BsOHD8+yvqBWV3bu3NlLRmn7OV3v7tdff7VLY0PXW9OKvwCtOMuujahWCrprh2l72q5du1oU2s6dO+Xee+/12vdpFauumaeJsBUrVsimTZvCmiuReP/pz3ErbipVqiT77ruvReHRaivXX3/9ZaOcuRV9uQlO6DzxxBOZiclwt+B194LbCiut5nOTcPq667pr+jnZtm1bGTlypMyZM2eviuho0GS0K9zEeUC47/NYHduC0Pei+zN0zcvsfgfr+/Gnn36yyJ8g1s+iWMrLGqvKragv7C+2AAAARBoJOAAAAOQqOAG3evVqG4VHE156sjt4mzt3rl0j7/RkeX5o4urwww+X8ePHy+7du21v3rktvgpD8EnevJ70zImu++XSyrG80tZpAXqcI3HSfsOGDd68CXB/RrjCvU2sjoEmNnRdJ7cVpdLqzIkTJ3rt47TVoa7jpOuqvfHGG3aN6NLknyu7NpTB+3VNpzJlyli0Nz3BrgnGoUOHFmhOROL9p0kMt9IwP/MpeF4Ez5vs5OXzK6+ft+HILoGjiVZ3/UKlx0jbHt56663SsWNH7/fBscce6yXn/vzzT7tWZAUnWPP62oR7/Vge24JwK0D1PTR58mSLsgpeI27AgAE2ip2c3v+5cT/fAQAAkgEJOAAAAOQqeO0rPcEYrROv4Qp3PSCXrtF02mmneeunuZo2bSr9+/eX+++/3zsB/dprr8nMmTNl1qxZmVvwOj+FLTh5UaFCBRsVnFYhufK65p8Kvk0kEnDBj6tcuXI2Cl+4zyWWx0CTbN999523zlVwIi5A2wDqSfczzzwzSzvUaDn//POzHF+tzAted02TYFOnTrXILzhxF+zyyy+Xd9991yK/GjVqeD/vjjvu8JKO06ZN89peuu+/G264wa4dOYU5z/Py+RWNatvsWpxqQlHXK9RKsP3339/2ZqWVcdpqU9tTarVkz549vYRxJBX0vR7uaxnLY1sQui6jewxCtaHUuee+H/W1zK0aFQAAANFFAg4AAAC50mqH4sWLW+T35Zdf2ihxPPXUU1na5emab2+//ba3T09oXn/99V5LPE1yaCs2rfYIbMFVgIUtuPVi8AnrgghO5uVnzb/g2+S1VWQowSfVdQ2xvAr3ucT6GGiVmybWNNGm66Lpuk8tWrQQbXEXrFu3bnLttddaFB1aoXX22Wdb5KfJMZdW47kVX5qo18+K7Hz77bdZ7kOTUA8//LCXEH/hhRdk2LBhXqJBkwadOnXK8v7TRE+kxes8DxacfNLPKDc5mZ/tf//7n93b3vR1GThwoPz+++/yxRdfyD333ONVLYaq2tNk07PPPiuHHXZYRFulFvS9Hu5rGetjm1/a2lWrSwP0vRT8O1i/POI+b12LMbuEPgAAAGKDBBwAAABypSeqtW2j66233rJR4tDEhksrbfTEcjgiva5PQQUnBHX9ukipUqWKjfzy06bNvY0mbyORmNCT0G5CSlub5lW4z6WwjoH+XD3R/uSTT3prOenr+tJLL+1VAfPII494Sato0hP4Lq3Ac9u2Bifkgq8fTB+v22JOWxpec801YSUJovH+0/nkrr+Xn9c4eA4Gz5tICG5zuc8++2RJTuZn0+RuOHRtySFDhnhfVNBk69dffy133XXXXmvfaeL4vPPOi1j1lz5HV17f6+G+loV5bPNKk/Ku4Cq4eGg/CQAAgKxIwAEAACAsZ511lo389GS6rsmVKPTEsFZzBGjFRk7VOsE0GRJPtG2mK5IViY0aNbKRn7ZHzIuFCxdmacXXsGHDkJVceaXJEvexLVmyJM9z8Pvvv7dRzuLlGGiC4Nxzz/WSXYsXL/ZaqAY8+OCDNoqODh06SIMGDSwSWbFihVfho1atWuW1iQzQ10ZbEeZE2xYG6PWDEwo5icb7T18P9/npXMpra93geRE8byKhcePGNvL7448/bBRb+prpFzFuvPFGrwLr5ZdflrJly9ql4rUonTFjhkUF06RJExv5Bbc/zU247/N4ObbhOProo73fWwFaMRuoeAuuiDvhhBOkWbNmFgEAAKCwkIADAABAWLQlmVuBoyf+Hn30UYvin1ZE6NpFAXk5OaktKpctW2ZRfGjbtq2N/HRdLV2TKxJat25tI7/gNbtyE3z94PsriKOOOspG4lVT6XpV4dIqmnATOfF4DDQZp23mAvSEe6Re81BCJdUmTZrk/auPw30/nXTSSVmSWaG464Tpum/hVotp8vy9996zKLLiea4HaOLF/ez9+OOPZdu2bRYVnnPOOUcGDx5skd+HH35oo4Jx3+cqr69/uNeP12ObHTdprQn+QFV3cDUc1W8AAADxgQQcAAAAwlKtWjXp27evRX533HFH2JUGhc1tfad27Nhho9w98cQTNoofdevWlUMOOcQif4JRWwRGgiYR3LaAelI9L5Uh48aNs5Ffu3btbFRw7du3t5FfICEUDj0+btIoJ/F6DLRtYoAmpqLdGjW4reSrr77qVYrltf2kct+DeXn/vf766946cdEQ/LpMmDDBRrnTNc8++ugji0RKly4txxxzjEWRo/NQE5wB+uWH8ePHW1S42rRpYyO//LSFDSX4fa6Jpp07d1qUM61K1IqwcMTzsQ1F13901y7UxNvWrVuzJOY1sa3tQAEAAFD4SMABAAAgbCNHjsxS5aIn0c8880z55ZdfbE/80gRiiRIlLPK3wwsnGaMncuMxAacGDRpkI7///e9/XpvAgtJ1kNwTuJo4uf766y3Kma5X9sknn1jkXz/w4osvtqjg9L7KlCljkf/nua1Fs7Nu3Tq58847LcpdPB8DVzTWHHMdcMABWVq16sn+ESNGyDfffGN7xFvbTquhclO7dm0bibee2Pz58y3K3qZNm/aqsookfV3Kly9vkcgHH3zgJRnDEfy4LrjggiwJ0ki64YYbbOSnr8Fff/1lUeGJ1hp4uo6am8zUCuRRo0ZZlLPgY5WbeD22oeh7rXv37haJfPbZZzJ8+HDv8y2gR48eWT4jAQAAUHhIwAEAACBsmsSaOnWqlCxZ0vaIty6VVkFohUJwlVlutLVjrBQvXjzLCV1NVOW2hpZWPOnad+FWXsSatgfcb7/9LPJXwXXs2DHsaiE9qa1VPKFce+21XgvCgNdee82reMyJJiv79+9vkZ/GlSpVsqjg9AS/W22lc04TH8uXL7c9e9M2jZpM03XL8iLax0DbFw4dOjTHxx5s2rRpNvInKWJxoj24uu2RRx6xkd/555+fpY1fdo477jgb+WnCWKv4srNlyxYvsafr6UWLJlqDK3s1zq2yV5M0b775pkX+dp06X6JF1/Tq1KmTRf41+E455ZQ8fflBj7UmF4cMGWJ7srriiivkjTfeCPtzXN9XwUmxI444wkYFd80119jIb9iwYTJ37lyLQtNkVGCdwnDF4thGUvDaicG/x2g/CQAAED9IwAEAACBPtBomLS0tS2JC2+BpJcnhhx8ujz32mPz88892SVZ6YnfRokXy1FNPyfHHHy+XXnqpXRIbl1xyiY38brzxRq+q6Z9//rE9flrVoSc1jzzySK8SIiUlJU9rxsWKtk/ThKi2vgvQqqKDDz7Yq/bS5GgwrZTQRJK2MmvSpEmWSi2XPvfghIKe3NZE1o8//mh7/LSa6YEHHvASsevXr7e94iUHc0tY5cddd90lNWvWtEjkzz//lFatWskzzzyTZf0mPSk+Z84cb50n/Vftu+++3r/hiPYx0FaO9957r/eYTjvtNBk7dqyXlA6VAFmyZInccsstcuGFF9qe2J1ov+iii3JM9PXu3dtGOdPKHPdzQxNYZ5xxxl6VcPoaahXhoYcemplMOfDAA71/o0HfK+680NdSk4X6GaBjl77u5557rtx22222x0+rqPTzL5q03apbgazJc014aaJK2y6Gmjf6+GfPnu3NY32OZ599tlc1FYq209SK5saNG3ufi/PmzfPmaDD9QsI777zjzXW3+lQrHLt06WJRwem80y8UBGjCr3PnznLrrbfulUzXOaTvy8B7LS/vcxXtYxtJhx12mPeZFop+ycRtTQwAAIBCtucPSQAAACDPXn31Vd8+++yjZyVDbhUqVPA1btzYd9RRR/mOPPJIX7NmzXzly5cPeV3dqlev7hs7dqzde2ju9du1a2d7w7djxw7fYYcdluV+dCtWrJj3+I455hjf/vvv7ytevHiWy2+66SZfr169suxbtGiR3WtoI0aMyHL9uXPn2iU5y8/tpk6d6itdunSW2wW2evXq+Vq1auU74ogjfA0bNvSlpKRkuXz8+PF2L3vbtm2br2PHjlmuH9jq1q2b+bqWLFlyr8urVavm++qrr+yeIm/WrFkhn3O5cuV8Bx98sO/www/3Va1aNctlp5xyiu+WW27Jsi+34xvNYzBt2rS9bqNbxYoVfQcccIDv6KOP9u5ff07wdY4//njfrl277J6i76KLLtrrMejWpEkTX0ZGhl0rd5dffnnI+2nQoIH3fFu0aOG9hu5lJ5xwgi89PT3LvpzmrXKvG85nxRdffOGrUqVKltvppq+rvhb6Ouh7Kfhy3Tp37uzbvn273VNoOs/c2+j7PD++//5771i59xXYKleu7B0//Rw76KCDfHXq1Al5veyOx6GHHrrXdfXzon79+t5lrVu39u6/TJkye11PPzOnT59u9xQ5S5Ys8TVq1Givn1eiRAlf06ZNvd8v+vjcy/R1ev7557PsC+d4R/PYRtq4ceNC/vwxY8bYNcKX199twQo6t93XV8d5pcfc/fkAAADxhAo4AAAA5Iu2ZtQ2bVqRoxViwXTtJq120wqJL7/80qso2Lx5s136H20pqNUWv//++16t4CJNW2dq9VfTpk1tj59WSunj0+oFbTu5e/duu0Tkuuuui0oVVyRpC0atxKhfv77t+Y+2mfz666/lq6++8qr59vwfwC7JnVbWaZWSVi4F07aJgdc1uEWnHt8PP/zQq0qLFq2M0SopXRPJpW0LtUpJ1yjTyswArbh84YUXQs7VnBTGMdi4caNXCff555979x/colKrlN5++22vrWqsBLehDND9eTmmDz/8cMgqKa3w0+erlUz6GgaceOKJ3nvWXb8xGo488kh5//33vapQl76u+lro66DvpWBa/ff666971aixoNVN+l52WyYGaOWlHj/9HPvpp5+yXQ+yYcOGNsqdfl5oS1utAtN1M/X+3SpTpZ/hL7/8spx++um2J3L0M02rV91Wu0rX79TfGfr7xW25W7duXa86r1atWrYnfLE+tgWhv3e1fapLPwu1ahAAAADxgwQcAAAA8k1bdunab9pycvDgwXudvM6Onhzt2rWrd1s9kXn//ffvdTIxWvQEqZ60vfLKK3Nsq9e6dWuZMWOG14Yur0mbwqAJJj0hrY83t3aZmizQBJa2bNTWoTnR6+r1tB3dSSedlGMiRE+S68/XBFjz5s1tb/RoIkdPhusaZNklQKpXry533323t3ZU5cqVbW/eROsYaMJCWyxeffXVXtvQ3OaZJtxOPvlkLyFVoUIF2xsb+nM1ueHSxxvc1jU3eiz18WsiTlsWZkdb+o0ePdpLLMfqs0FfA02y6OdRTp9l+vp36NBBPvjgAxk/fnyWNTFjoUaNGl6SSROG2sKzfPnydklo+jppe0xdb1C/NKHtFkPR9d/0mOu8DOeY63zQ1puaoNQvZESLvqf0cev6aprsC0UT5dqSVROF+jrmV7SObaTpmotuO1qln+W5PV4AAADEVoqWwdkYAAAAKDBNqOmJSF1/TNfI2bFjh/fNfD1xWq1aNa/KoFGjRnbtwqVVenoSXavetMKhbNmyXlJRk2+xqmSIFj3+mmjU9e30ddAT1FWrVvWSc7qGUH5P1OoaclrZpVVZq1ev9u5HE6p6n7kl/qJJn6MmyLSSSivI9LnqiXhdszDS1VPROgY6BzWhuGDBAm+NK60E09dNkyFaUaf3H6tkVCxoFZPOUf280OOoCUZNyunz1PXfCtsvv/ziVVLqe0hfC/38qlevnpfszm8yNxq0Sk+rB7XiWNev1EpjnZP6mXvAAQdIixYt8vx49TSBJtY0qa+Vs7oWnFYG62e5vkYtW7b07ttd0y8W9PfJe++9JwsXLvSeqz5PfW+ccMIJe1XDRkI0jm2k6HPW318B+l7SSs680irOiRMnWiTec83rGnqFqX379t6cCOAUFwAAiCck4AAAAAAAABKEtr11K2w1aa3J4vwgAQcAABA9tKAEAAAAAABIEGlpaTbyu/TSS21UcI0bN/Zaa7pbvNBkYfBjc5NvAAAA8YYEHAAAAAAAQAJYs2aNpKenWyRSqVIl6dGjh0UAAACIJyTgAAAAAAAAEsB1113nrXMZkJqaKhUqVLAIAAAA8YQ14AAAAAAAAOLM/PnzZfny5ZKRkSFLliyRZ599VubNm2eXipd4W7hwodSoUcP25F3gZ+SkY8eONipcifRYAQAAFAk4AAAAAACAOKNrnk2cONGivY0ePVquuOIKiwAAABBvaEEJAAAAAACQQAYOHEjyDQAAIM6RgAMAAAAAAIhjxYsXl5o1a0qXLl1k+vTp8sQTT9glAAAAiFe0oAQAAAAAAAAAAAAiiAo4AAAAAAAAAAAAIIJIwAEAAAAAAAAAAAARRAIOAAAAAAAAAAAAiCAScAAAAAAAAAAAAEAEkYADAAAAAAAAAAAAIogEHAAAAAAAAAAAABBBJOAAAAAAAAAAAACACCIBBwAAAAAAAAAAAEQQCTgAAAAAAAAAAAAggkjAAQAAAAAAAAAAABGU4tvDxkDUlS9fXrZt2ybFixeXmjVr2l4AAAAAAAAAAFDU/PPPP7J7924pU6aMbN682fYmBxJwiClNvGVkZFgEAAAAAAAAAACKumLFinmJuGRCAg4xVapUKdm5c6f3ZqpTp47txfbt20XfiikpKVK6dGnbCyQO5jASGfMXiYz5i0TF3EUiY/4ikTF/kciYv0h0zOHQVqxY4RXtlCxZUnbs2GF7kwMJOMRU/fr1ZdmyZVKvXj1ZunSp7cWMGTO81pxaZtupUyfbCyQO5jASGfMXiYz5i0TF3EUiY/4ikTF/kciYv0h0zOHQkjlnUMz+BQAAAAAAAAAAABABJOAAAAAAAAAAAACACCIBBwAAAAAAAAAAAEQQCTgAAAAAAAAAAAAggkjAAQAAAAAAAAAAABFEAg4AAAAAAAAAAACIIBJwAAAAAAAAAAAAQASRgAMAAAAAAAAAAAAiiAQcAAAAAAAAAAAAEEEk4JLYqlWr5Mknn5ROnTrJfvvtJ+XKlZOyZctKgwYN5JRTTpE77rhDPv74Y9m9e7fdAgAAAAAAAAAAAAVFAi4JZWRkyKOPPipNmjSRyy+/XGbOnCkLFy6UrVu3yrZt22Tp0qUya9YsGT58uLRp00a++eYbuyUAAAAAAAAAAAAKigRcktm1a5ecf/75cs0118imTZtsr3jJuLZt23pb06ZNpVgxXnoAAAAAAAAAAIBoSPHtYWMkge7du8uUKVO8cYkSJWTQoEFy1VVXSaNGjbx9ARs2bPAq4yZMmCC33367HH744XZJdNWvX1+WLVsm9erV8yrx4DdjxgyvOrFMmTJey1Ag0TCHkciYv0hkzF8kKuYuEhnzF4ksFvNXvxyum3ZoAiJJl9LZsWOHlCpVSo477jjbCySORJ/DWtSjOQfdIimZcwYk4JKIJt40Aad0rbc33nhDOnTo4MXxggRcaPwHDomOOYxExvxFImP+IlExd5HImL9IZNGavzt37pSNGzd6X/jWJVCAaFi/fr3oqeyUlBSpXLmy7QUSR7LMYc09VKpUSSpWrCglS5a0vfmXzDkD+hAmCW03qW0nAx588MG4S74BAAAAAAAgueg5qQULFsjKlStJviGqtGoosAGJKFnmsH7W62e+fva7y2BhbyTgksRzzz0nq1at8sYHHHCAXHrppd4YAAAAAAAAiAY98arVCjTYQixo0qJ06dIk4JCwkm0O62e//g4gCZc9WlAmiWOOOUY+//xzb3zbbbfJ8OHDvXG8oQVlaLQwQaJjDiORMX+RyJi/SFTMXSQy5i8SWSTnr7ad1OoH99SirgukbcnKlSsnxYsXt71AZOhJfp1v2r6vQoUKthdIHIk+h3fv3i1btmzx2g3rWp8B+nz222+/fLejZA04xDXtHVulSpXMP3g+/PBDadOmjTeONyTgQuM/cEh0zGEkMuYvEhnzF4mKuYtExvxFIovk/F2zZo3XgixAE29169b1TsQC0cAacEh0yTKH9TksX77cS8QF1KpVS6pWrWpR3rAGHOLaF198kZl8U4cccoj378cffyy9e/f2ss/6h5W+AVq2bOmtFfftt9961wEAAAAAAADyyj3xqpVvJN8AoGjQz3r9zNfP/gD3dwL+QwIuCXz//fc2EilfvryXbLvsssu8KriJEyfKwoULZfv27bJ27Vr54Ycf5NFHH5VWrVrJgAEDZMeOHXZLAAAAAAAAIHfaemzr1q0W+avfSL4BQNGhn/n62R+gvxPctpTwowVlEhg2bJjcdddd3rh27drSoUMHmTx5shdrv22tiNMWlVq++fvvv3v7Azp27CjvvPNOgfpyP/TQQ94WjhUrVkhGRoZUr15dnn32WdsLbf8QoAlUINEwh5HImL9IZMxfJCrmLhIZ8xeJLFLzt1ixYlKxYkVvvZ/SpUtLtWrVvHXfgGhyT2OT8EUiSrY5rOvBrV692iv+0XVBN27c6J37z6sePXrIv//+yxpwiE9XXnmlPP744xb95+KLL/YSY5qUC/juu++kf//+8uWXX9oekVtuuUVuvfVWi/Ju5MiReb69/mE2duxYiwAAAAAAAJAoNPGmX/YuVaqUl4CrUaOG9y8AoOjQxNuqVau8f7XTnnbg00RcXvXr189L5JGAQ1zShFpwMqtbt26ZVXDBNBPdunVrmT9/vhdr28q//vor34skUgFXcHyDEomOOYxExvxFImP+IlExd5HImL9IZJGav9pJqUKFCl4CTreaNWuSgEPUJVv1EIqeZJvDmnj7559/vOSbbps2bZLdu3fbpeGjAg5xbdCgQTJq1CiLRMqWLStLlizxqsyyM3PmTOnUqZNFIk8++aS3bly01a9fX5YtW5aUb6aCmDFjhvdHsP7x674uQKJgDiORMX+RyJi/SFTMXSQy5i8SWaTmr7YdW7x4sUUijRo1ogUlom79+vVeAkMTF5UrV7a9QOJItjkcqd8FyZwzKGb/IoHpN45cp556ao7JN3XyySd7304KeP/9920EAAAAAAAAAACAgiABlwS0naOrVatWNsqeZtkPP/xwi0QWLlxoIwAAAAAAAAAAABQECbgkcOCBB9rIL7fqtwD3erpAIgAAAAAAAAAAAAqOBFwSOOigg2zkp4sfhkN7fgdo728AAAAAAAAAAAAUHAm4JNCgQQNp0qSJRSKLFi2yUc7+/PNPG4nUqlXLRgAAAAAAAAAQX+6++26pUqWK7LPPPtK7d2/bi3ilSyAFNvc8dLJr3759lufubk888YRdK3a6du0a8rHoNnLkSLsWooUEXJI4++yzbSQya9YsG2Vv5cqV8v3331sk0rp1axsBAAAAAAAASGbXX3995kl47YxVkOVp5syZk+Wk/vTp0+0SACjaSMAliT59+kixYv6Xc/78+fL666974+w88MADsmvXLotEzjrrLBsBAAAAAAAASGa9evWykX85m6lTp1qUdxMnTrSRv8tW586dLQKKtoMPPlg6deqUuTVs2NAuiZ1WrVpleQx169a1SxALJOCShK4D16NHD4tE+vfvn6XCzfX888/Lww8/bJF4b7wjjjjCIgAAAAAAACA5bd2qFVsi990n0q+fSPfu/n811v16eVFwyCGHyOGHH26RyKRJk2yUN5s3b5ZXXnnFIj2e3aVEiRIWAUXb4MGD5Z133sncunTpYpfEzi233JLlMZx88sl2CWKBBFwSuf/++6Vx48beeNWqVXL00UfLlVde6VXDffDBBzJlyhSvVeXFF18su3fv9q5XvXp1SUtL88YAAAAAAABAMlqyRE+Gi9SrJ9Kxo8iQISLjxolMmeL/V2Pdr5fr9fT6yc6tgvvkk0/kjz/+sCh8L7/8speEC3DvEwCKOhJwSaRmzZry1ltvZZayavn4448/7rWXPOGEE7xvoLz66qveZUrLTWfMmFEopa8AAAAAAABAtPl8Ik8/LdKihchDD4nkttSZXq7X0+vr7fT2yapbt25SsmRJi0SeeeYZG4XPrZw77LDDpGXLlhYBAEjAJZnmzZvLDz/8IAMHDpQKFSrY3qx0YdXLL79cvv76a68HLAAAAAAAAJBsdu4U0RVbLrtMZNMm2xkmvb7ermdP//0koxo1ashpp51mkcizzz4rvjxkHJcuXSpz5861iOo3AAhGAi4JVapUSZ544glZuXKlVxH35JNPyp133ulVw2nF25o1a7yxLooKAAAAAAAAJBvNI/Xu7W8xWRCTJ4v06ZO8lXBu0mzhwoXy4YcfWpQ7TdhlZGR4Y133TSvqXFu3bvWWxhk0aJC0bdtWateuLaVLl5by5ct7Hbl0PaxRo0bJprxmR/Pgt99+k2HDhslRRx3lnQvVn1+nTh057rjj5Pbbb5clYfYabd++vaSkpHjbhAkTvH07duzYMz8me8+jSZMmUrZs2SyXB9Pn+fTTT8uZZ57pXV+PQ8WKFaVp06Z75lgfmTlzpl0zd3rcp02b5h3zZs2aeeeD9TXQ+9MlinSdrxtvvFHmzJmTuRRRpCxYsECuv/56adGihVcAUqVKFa/ycciQId4cKojPP//cWzdN1yfUbm/6eum80flz9913y7///mvXLJjff/898/XU7eeff7ZLcqfLPAVuV7VqVdm2bZtdUjDu4/nzzz+9fRs2bPDeIzpfdf5qYU2DBg3koosuknfffde7DuIbCbgkVq5cOTn11FPlsssuk5tuusmrejvllFO8XwYAAAAAAABAskpLK3jyLUCTcOnpFiSZ008/XapVq2ZR3tpQutfVc5CaMAl47rnnvISBLo2jCQRN7GmxgCattmzZ4iW+3nzzTS8516hRI3njjTfslpGhSSdNCB188MFy1113yZdffin//POP9/P//vtvb827W265xUte3XPPPXar8GkCp3Xr1tKjRw/veSxatCjHRIwmbTTRpudp9bnq9fU4aFJO197TpF2nTp28Lbck019//eX97HPOOcc7zppk3Lhxo/ec9f40eTN79mzveXXs2FEefPBBu2XBPfXUU3LIIYd496lJK13/b926dV5Htvvuu8873pqYzatVq1bJeeedJ8ccc4w89NBD8u2333r79PXSeaPzR89v6zF0257ml96PJlUDxo4da6PcudfV11+TYtGgc/bQQw/13iM6X3X+6pJTWnk6depU6dChg1x11VV5qlpF7JGAAwAAAAAAAJA0tKjp+ustiJDBg/33m2xKlSolF198sUUiL774YlgVPZocmD9/vkV7t5/UKilNCgVocu7oo4/2kgZazVO9enW7RLxuXV27do1YEk6rw/Q5aUJop/UP1aoirdjSpMsBBxzg7VNapaeVYldeeaXtyd3q1au95/HNN994sVbztWvXTo488siQSwJppV337t29xF/AvvvuKyeccIK0adPGq6IK0Co4rfbKLgmnSTv92V988YXtEa+S7ogjjvCSbccff7yXXCpW7L/T/oEqxYLS5Jsue6THLECrsfS56/p/xYsX9y675JJLvKRkuDQZqXPi5Zdftj3iFZDo8TzppJPkoIMO8l4/pck+nWuPPfaYFxdEamqqjfxrGQbmSk60ws9tu9q/f38bRZa+t/S5azJVn7smNk888UTv38CxUKNHj45oghWRRwIOAAAASCD6/905c0Tuu0/koYcO2rO18v7VWPc7/x8G4gpzF4mM+QsklkceEW8Nt0jS+3v0UQuSTG/t1Wk0waFtI3PjViFpAumMM86wyE+TBJpcSktLk2XLlnlVTJ999plXmfXRRx951U0ffPCBV/GkNEnUt2/fLEm7/NKEhCYSAzp37uxVmf30009e8uTXX3/1Kra0iixAl+sJt/rv1ltv9Sr4NOn16aefyuLFi2XevHleUkyfp/68AK1U0kq7AE3EacWaJp3ee+89r7JLj8ULL7yQmZT85ZdfZMCAAd44mC41pM9FadtJfcxr1671EqKzZs3yjmmgIu61117zqso0MVZQ+pi0EitAqxb152k1nj53TUbq66wtMbUiy51TOdGKrrPPPjvzOWl7UH1OOg/1eGoLzR9//NH7Odp2MUDbVOpzLgitIAxUf+prEM68HzduXGbFmbY11dab0aBJTH0N+/Xr5x1Xna/aclL/1eScViEGjBw50mtViTi1Z8IAMVOvXj39hPL+xX/eeecd36uvvur9CyQi5jASGfMXieKvv3y+667z+apU0f/xZb/p5Xo9vT4QD5i7SGTMXySbSP3tu3nzZt/8+fMzN43jxZYtub9n87vp/er9J6ODDjpoz3MUbzv99NNtb2g7duzwVa9ePfP6l19+uV3yn02bNtkoZ1u3bvW1bt06875Gjx5tl+xtyJAhmdfr1auX7c1q5cqVvjJlymRe77TTTvPt2rXLLs1K5+3RRx+ded2qVavueX1Dv8Dt2rXLvJ5uhx9+uG/jxo12aWhr1qzxVa5cOfM299xzj10S2s8//+yrWLFi5vXff/99u+Q/J510UublY8aMsb05y+7554XOicDPrVGjhm/RokV2yd569OiRed3Alt31b7nllszrNG7c2Ld8+XK7JLQBAwZkXl+PRUENHjw48/5OPfVU2xuaHsfAuW3dnn76abskK3eujB8/3vb6rVu3zrd27Vrv32CB2wS2oUOH2iV7+2vPHxzlypXLvO7YsWPtktzpeydwuxEjRtje/InU74JkzhlQAQcAAADEMf2v2NNPi7RooVUXImvX2gXZ0Mv1enp9vZ33XzmgEDB3kciYv0Dk7d4tsmxZ9DctYsntPZtfer/aJTHUz43kpscq1twWkjNmzPDWm8rOW2+9laVFYnD7SaVtEcOh62fdeeedFolXtVUQuj5XoIWmPob09PRsK8DKlSvnXT9wubbC1LXawqGVfaHaTbr0OuvXr/fG2k5Q16TLSfPmzeXmm2+2SOSJJ56w0X90/a8ArTAMR0Er4LTa7+2337ZI5I477vBaaGZH20O6bTWzo+00tYViwMSJE70KuJw88sgjmVVrWhGm1YwF4bah1HnvHt9g77zzzp7355436B46t9zWrZGmbVK1dWl2tPWnVjcGaFUp4hMJOAAAACBO6TIEPXqIXHZZ3tso6fX1dj17+u8HiCXmLhIZ8xeIDl3+qn796G9Ol7qouPDC0D83kpuzVFjM9NjzwRdI1OzatUuee+45bxyK235Sk0a6tltBBNpQqoK2FXz11VdtJHL++edL3bp1LQpN19TStdMC3Ntn5/DDD/fWJ8uN29LymmuusVHOtEVlgLvWWIAmLAO+//57G0WXtmYMrCNXsWJFrz1iTvbZZ58szyM7msjVpKdq1aqVt/ZdbjRpqi0rAzQJVxCa6NI17JQ+x/Hjx3vjUDRZG3DBBRd4xyJatB1riRIlLApN1/sL0BahiE8k4AAAAIA4pNUTunRCmF/CzdbkySJ9+lCNgdhh7iKRMX8BFFVaeXTKKadYlDXJ5tL1xqZPn25R6Oq3YLre2ZgxY+Tqq6/2qoa6dOnirZMW2M4991y7pv/+tTIqP3Q9sW+//dYikVNPPdVGOdPHE6Dr1OXGTXxkRxNL8+fPt0jkxBNPtFHO6tWr5yWwlK4nF6i4CtB15wKuuuoqefPNN/f8ronuLxtdiy3ghBNOyJIEzE44x17XqwvQCsFwadI04Ouvv7ZR/rlVcJqAC3U8tSLUnff9+/e3UXQce+yxNsqezpUAXTMP8YkEHAAAABCH0tIKfgI4QE8Ep6dbAEQZcxeJjPkLoChzk2ma2Pjpp58s+s/zzz8vO3bs8MbFihWTnlrymw2tyunUqZPst99+MmDAAK81od5ek0ba7s/dXIG2jXmlrRIDj00dcsghNsqZe71Vq1bJhg0bLApNn09u9NgFEjlayaTtAt2kY05boIWmclt9qiuvvDKzUlGTQpo8bNiwoZdEmrznF89ff/3lXRZJf/zxh42yJr9yctBBB9koez/++KONxEtuhToWoTZN5gYEH5/80ARwoK2lJovnzJnjjV3aHnOnlba3aNFCjjvuOG8cLbVr17ZR9rQaMCC/SWtEHwk4AAAAIM4sWSJy/fUWRMjgwf77BaKJuYtExvwFUNSdddZZUrlyZYuytlAMcCvjtHWjW4Xjev/9971qrZkzZ+a5Qksr2fIjuAookFTJTfXq1W3kp1V4OQmn9eDq1att5G/pGZxwzGlzE3DByUht1Thu3DgpXbq07fGvC6dr3Wkb0UaNGknTpk299eYWLFhg1ygY93iEe0zDuZ57jDRZG+pYhNrcxF1+k7UuPZZu8tltNRmgxzygX79+NoqeUqVK2Sg80a6CRP6RgAMAAADizCOP5H3dodzo/T36qAVAlDB3kciYvwCKOm0teKEucme0oiqw9pf6/fff5dNPP7Uo+/aTWkGm668FqnI0YTVo0CCv8k3vY+PGjV5SSpMGgS0SghN34SYxgq+XWwJQK/9ys3nzZhsVjHv8A3QNNm1vOXDgwJCJLq1Yu++++7z1+TQRp8e6INyqwnCPqZsgzE4kjlGo45MfbhvKadOmZa5Npz788MPMNdb0+ee2Bh7gStnzAUd6FDFTv359r3exfjtGv50BP/32hn67Rf/Q0dJ8INEwh5HImL+IN1u3aj9//aap7Ygg/UKzrmtftqztACJI5+6RR+o3kW1HBDF3EW3RnL9Vqsie/wczfxEfIvW3ryZWFi9ebJF4VTduO7RQdu8W+ftvC6Loww9FLrrIgiiYOlWkTRsLokS7z1mXwZj7+OOP9zy//57grFmzvEo3NXz4cLnjjju8caVKlfa8nn/v+Wzb+8PtkUcekWuvvdYbV9nzIajrqmlVVnY0Iaf3F6BtAPfdd1+L/jN06FC59957vbEm/yZMmOCNA7Qyym0nqe0YGzRoYFH2tN2mu7aarr1Ws2ZNi/zat28v7733njfWdcJ664KhOdCWimeccYY3Ll++vGyK9Dc8jCagdN27efPmeY9v7ty53vF06dp7jxbg2yB6bAJrrd1+++1y8803e+OcaNVc1apVLQr9mh655xfvV1995Y3vv/9+uT7SZeh51K5dO69yU+nx0uOm+vTpkznXNLH8wgsveOPs5DRXtGJP0zEpKSlZqk2V7gvI7j3g0tc8sLagfgb/+eef3jg3+ni0paYaMWKEjBw50hvnR35+F4SS1DkDTcABsbLnTaQJX+9f/Oedd97xvfrqq96/QCJiDiORMX8Rb2bP1i/IsbGxsbEl0zZnjn3IA4UsUn/7bt682Td//vzMTeN4sWWLz1elSuj3YkE3vV+9/2R3wAEH7Hm+4m09e/b09mVkZPj23XffzP39+vXz9ody2mmnZV5v5MiRtjd7P//8c+b1dVu0aJFdktWQIUMyr9OrVy/b+5+///47y/289957dknOXnjhhczbFC9e3Ldjxw675D/t2rXLvM748eNtb/Y+//zzzOvrtmnTJrskurZt2+abOnVqltdKn1N2xzQcnTt3zryvnF5311dffZV5G91C/Xx3ntxwww22t/BMnjw58/G0bNnS27dhwwZf+fLlM/fPmDHD25+TnObKunXrfGvXrvX+DRa4jW7hvF5z587NvH6jRo1sb+70vRO43YgRI2xv/kTqd0Ey5wxoQQkAAADEEfsSKAAgifDZDsSOFmT16WNBhPXtWzSqWd0We6+88orXKlArg9wKm+zaTyqtPAvQKqfcfPLJJzYqmFq1akndunUtEvn8889tlDOt0AvQCrqSJUtalH+HHnpolupA92dEk7Z+vOCCC7xq18Dz2L17t8yZM8cb58fhhx9uo/CPaTjXa926tY0kS2vTwnLuuedmtvT8/vvv5YsvvpDnnnsus1WmVncFqkGBcJGAAwAAAOLIr7/aAACQNGzpGAAxcs01IhUqWBAhFSuKDBpkQZLr2bNnZjs8TT5oEi7Qsk41adJEjj/+eIv2tnPnThuFJ7iVZEG0bdvWRuIlT3Kj66NN1b6ixr19QehaYdqKMMA9frFwwAEHSIsWLSzyt9XML/eY/PDDD5nroeXk+eeft1H23Da42vpU164rTJq8dJPPY8eO9baAvn37hrX+H+BixgAAAABxZNs2GwAAkgaf7UBs6bJfDzxgQYTo/YWxnFhSaNiwYebaUiotLU1efvlli/wVcu56VcHq1KljI5GPPvrIRqG9+OKLmetuRYImSQJ03bKXXnrJotB0rS93zal+/frZqOAC6+CpyZMne2t2FZTP61QYHnfdOXc9trw6+eSTpbYuTGiGDRtmo9B03cDAGmg5Ofroo+W4447zxlqld8UVV3hr2hWm1NRUG/mTpoFKPk286VpwQF6RgAMAAADiSJkyNgAAJA0+24HY0/Po3btbUEB6PwMGWFBE9O7d20YiH374oWzYsMEba+LNrRIKpV27djYSGT16tFc1FYq2SXR/TiRoskgTOwGaUMuuxeVrr70mN954o0UiXbp08VpHRoo+llNPPdUba4Kpa9euXjVhbhYtWiTXX3+93HnnnbbnP4cddpiXzNuWyzc7nnzySVmwYIFFIieccIKN8q5EiRIyePBgi/xtSW+//XaLsvrxxx/3vF/Cf+Pdd9993v2rmTNnyjnnnCNr1qzx4uzs2LHDewzawjK345BXzZs3z6z4c+/7lFNOkQZFJQOPiErRheBsDERd/fr1ZdmyZVKvXr0s3y4p6vQPDv1QL7Pnf2Vu+TWQKJjDSGTMX8SbPf8HlSFDLIgC/cLqwIEWABH0xBMid91lQRQwdxFN0Z6/+tl+ww0WAIUoUn/7btmyRRYvXmyRf22kcuXKWRQ/tBOiFq1Mnmw78kFzCePHi0RgWbCEoq0nterJraJSmsjJrbpp+fLlsv/++8vWrVu9uEKFCnt+hw/0qurKly/vrRE3bdq0zGRU//79ZcyYMd5YaQJq3333teg/Q4cOlXvvvdcb6xp02bWu/Pnnn72153SequLFi3ttNTXBVqNGDVmxYoVX0afVdwG69peu++WuIefSdpKB5z1+z4QIN3GoySRNCLrJsKOOOkrOPvtsadmypVSuXNl7nP/88498++233s/48ssvvesN2fOfgnvuuccbBwQqDytWrCinnXaaHHPMMd6xrlKlipeY0jaOelz1vR6gPyucxF9OtFWn/iytKgzQuaCvw3777Sfr16+X2bNnS3p6uvcZc+GFF2Zp7Znda6pGjRolg5z+rjpfLrroIi+Rq6+HJujWrVsnv//+u3ds3nnnHS9WOsf08yySNMHZo0cPi/y0klLXiAtHTnNFj5OmY/R11Nfe5VaV5nS8ArSiMlCpqp/B7hqNOdHHE2iJOmLECBk5cqQ3zo9I/S5I6pyBJuCAWNnzJtKEr/cv/rPnF4fv1Vdf9f4FEhFzGImM+Yt4M3u2fkEuetucOfaDgAhj7iKRMX9RVETqb9/Nmzf75s+fn7lpHK8yMny+p5/2+SpUCP3+zG7T6+vt9PZFVe/evfccC8myjR071i7N2aRJk3wpKSl73T54a9u2rW/r1q1Z9i1atMjuJashQ4ZkXqdXr162N7QPPvjAV7ly5Sz3m91Wu3Zt3w8//GC3DK1du3aZ1x8/frztDc/KlSt9xx9/fJafGc6mzzdYqOvltB1zzDG+NWvW2K0LZsWKFb6mTZuG/DnudvDBB/vWrVuXZV92r2mAHtPSpUtnuU04m86dSNu2bZuvatWqmT+jZs2avh07dtiluctpruhxWbt2rfdvsMBtdMvteKm5c+dmXr9Ro0a2N3f63gncbsSIEbY3fyL1uyCZcwa0oAQAAADiiC6DUKWKBRGm93vssRYAEcbcRSJj/gLJS4tKtB3l/Pki2kUvt/e6Xq7X0+vr7ZyilCJHq5tcWtly/vnnW5QzrTjTFo+NGze2PVlpxZauJfbuu+9GvIJJHX/88V47RK1kKlWqlO3NqmzZsnL55Zd7LTIPPvhg2xt5NWvW9KqVJk2alOvPKV26tHTo0MGrJAu11pq29NR2iLlVGWm7RK0W/OCDD7xjHQlaEalromlbz5IhSkL1sesafNryM7i6KzdalaWVi3rfWiWZE60Mu/LKK+WLL76IytzR59GsWTOL/Gsehnq+QDhoQYmYogVlaLQ/Q6JjDiORMX8Rj/Skz0MPWRBBer8PPGABEAXMXSQy5i+KgqLWgjIU7YqoS4J99ZXIL7/oOk/+dRqbNxc54gh/wrxsWbsyCkxbF2pC5rvvvvPWkatevbqXQNE2fdklxrKTU/u+nGzcuNFLgGnrS70PTUhpYlBbHGoSLtb0nKgek7///tt7PPoYtDXmAQcc4K1BF85j0uOqLTN/++03r6WmtgzV97Um+/Q+DjnkEClWLHq1N6tXr/ZaTuox1eSUJvy0HWLVqlXtGvmnrTQ/++wz77npz9H18ypVquR9zmgCM7fWjAWl7R+1rWYgbfLLng8KNyGXm/y2oIwVWlDGFgk4xBQJuNA4+YtExxxGImP+Ih4tWSLSooVI0JIbBVKxoshPP+m3YW0HEAXMXSQy5i+KAhJwSGTxkLxA8tPKw7tsYdi2bdvK+++/743DRQKOBJyLFpQAAABAnNETtTffbEGEaPUFJ4ARbTrHIl3pw9xFrDB/AQAo2rRK86mnnrJIvBalBfHggw9K586dM7fp06fbJbFz2223ZXkMs2bNsksQCyTgAAAAgDiTkSF7/mNkQQR07y4yYIAFQJTpejk65yKBuYtYY/4CAFA0bd26VS677DJZs2aNFzdp0kTOO+88b5xfug6hVh4HNm3ZGWtff/11lsewfPlyuwSxQAIOAAAAiDOPPCIyZ44FBaQngMePF0lJsR1AlOlc0zlX0CQGcxeFgfkLAEDRMWrUKOnatauccsopXvvE5557zi4Rrw1liRIlLALyhwQcAAAAEEe+/VbkxhstKIAKFUSeflrkmWdESpa0nUCM6JzTuadzUOdiXjB3UdgKMn/VpZcyfwEASARaHfbaa695bRlXrVple0X69u0rF154oUV5M2/ePG+dt1BbQVta5serr74a8rHoVpD13xAeEnAAAABAnNiyRaRbN5EdO2yH44orRAYPFqlSxXZkQy/X682f72+lRvUFCovOPZ2DOheZu0g0eZ2/rj//ZP4CAJBoypUrJ0cffbSkp6fLmDFjbC9QMCk+TXUCMVK/fn1ZtmyZ1KtXT5YuXWp7of13t23bJmXKlJFOnTrZXiBxMIeRyJi/iCeaZHviCQscRx4p8vHH/mqKrVtFPvlE5KuvRGbPXrpn/vr2zN8U6dixvhxxhMixx4qULWs3BOIIcxeJLLv5u+d/uTJzpv86AZp8W7BApHFj2wHEkUj97btlyxZZvHixReK1btOT10A0rV+/3qvaSdnzQVu5cmXbCySOZJvDkfpdkMw5AyrgAAAAgDgwfXro5Jv+/2XKlP9amWmC4qSTRG64QeS6637as33t/aux7ieBgXjF3EUiy27+jhsnUizozIp+zXnsWAsAAABQZJGAAwAAAArZ33/rOgMWBBk1SqRpUwsAAHGlXj2RLl0scGhibudOCwAAAFAkkYADAAAACpFWSvTpI+Ks+Z3pnHOyT8wBAOKDrhUXbMUKkTfftAAAAABFEgk4AAAAoBCNHi3yzjsWOOrWFUlL868lBACIX50769olFjj0MxwAAABFFwk4AAAAoJD8+KN/PaFQJk0SqVbNAgBA3CpeXKR/fwsc+uWKxYstAAAAQJFDAg4AAAAoBNu2iVx8scj27bbDcf31Ih06WAAAiHvaLrhY0BkWbTE8dqwFAAAAKHJIwAEAAACFYOhQfwVcsMMOE7njDgsAAAmhQQOR006zwKEJuF27LAAAAECRQgIOAAAAiDFtS/booxY4ypYVmTJFpHRp2wEASBipqTZwLF8u8tZbFgBJpFhQyefu3bttBAAoKoI/+4trX25kQQIOAAAAiKFVq0R697YgyEMPiRx4oAUAgIRy6qki9epZ4EhLswGQREqUKGEjvy1bttgIAFBUBH/2k4DbGwk4AAAAIEZ0PaB+/URWrrQdjjPOELn0UgsAAAlH8xH6GR/s7bdF/vrLAiBJaAKurJbumw0bNuz5O2fPHzoAgCJBP/P1sz9AfycEfzkDJOAAAACAmHn6aZE33rDAUauWf52glBTbAQBISJqAC/4sz8gQGTfOAiCJVKpUyUa61uEuWb58OUk4ACgC9LNeP/P1sz/A/Z2A/6TsOVj8ZkTM1K9fX5YtWyb16tWTpUuX2l7MmDFDtm3bJmXKlJFOnTrZXiBxMIeRyJi/iJWffxY54giRrVtth0OrIzp3tiAPmL9IVMxdJLLc5u/pp++97tue/wrLokX+KjmgMEXy83fnzp2yYMGCLEk3rX7Qk7DlypWjFRkibtOmTd58S0lJkQoVKtheIHEk+hzWNd+07aRWvrnJN30+++23n5QsWdL25E0y5wxIwCGmSMCFxgkIJDrmMBIZ8xexsH27SOvWIt9+azscgwaJPPKIBXnE/EWiYu4ikeU2f197TaRrVwscWgHdpYsFQCGJ9OevnkzW8zucXkQs6Mn/ABK8SETJOIc1+abn/AuSUEzmnAEtKAEAAIAou/nm0Mm3Qw4RueceCwAASUEr4OrUscCRlmYDIInoCVc9caonYIFo27Fjh2zfvt37F0hEyTaHI5F8S3Yk4AAAAIAomj1b5IEHLHCULi0yZYpImTK2AwCQFLTNZN++FjjefFOERjBIRnriVVuP1apVS8qWLWt7gcjTpEVgAxJRssxh/azXz3z97Cf5ljNaUCKmaEEZGi14kOiYw0hkzF9E0+rVIi1biixfbjsco0aJXHWVBfnE/EWiYu4ikYUzf3W9t/32Ewk+43LrrSK33GIBUAhi8fmr6wJpmzW31RoQCR9//LGXuChVqpQcd9xxthdIHIk+h7Vtpm663mckJXPOgAQcYooEXGicgECiYw4jkTF/ES36V/a554pMm2Y7HJ07i7z1lrbssB35xPxFomLuIpGFO3/1s37PVbNo0MCfnGPpIhQWPn+RyJi/SHTM4dCSOWdAC0oAAAAgCsaNC518q1FDZPz4giffAADxLTXVBo4lS/ZOygEAACA5kYADAAAAIuy330SuvtqCIJqYq13bAgBA0jrjDJFatSxwpKXZAAAAAEmNBBwAAAAQQTt3inTvLrJli+1wXH65SJcuFgAAklrJkiJ9+1rgmD5dZNkyCwAAAJC0SMABAAAAETRihMiXX1rgOPBAkfvvtwAAUCT0728Dx+7d/lbEAAAASG4k4AAAAIAIee89kXvuscBRqpTIlCki5crZDgBAkdCkicjJJ1vgGDPGn4gDAABA8iIBBwAAAETA2rUiPXuK+Hy2w3H33SKHHWYBAKBISU21gWPxYpFZsywAAABAUiIBBwAAABSQJt0uu0xkyRLb4ejYUeSaaywAABQ5Z54pUrOmBY60NBsAAAAgKZGAAwAAAAromWdEXnjBAkfVqiITJ+75o5u/ugGgyNI2xH36WOB4/XWRFSssAAAAQNLhVAAAAABQAAsWiFxxhQVBdI2funUtAAAUWf3728Cha8CNH28BAAAAkg4JOAAAACCfdu0S6dFDZNMm2+EYMEDk7LMtAAAUafvvL9KhgwWO9HSRjAwLAAAAkFRIwAEAAAD5dMcdIp9+aoHjgANEHn7YAgAA9khNtYHjzz9FZs+2AAAAAEmFBBwAAACQDx99JHL77RY4SpQQmTxZpHx52wEAwB5du4rUqGGBIy3NBgAAAEgqJOAAAACAPFq/3t96MlTbME3KHXmkBQAAmFKlRHr3tsDx2msif/9tAQAAAJIGCTgAAAAgj6680t82LFj79iI33GABAABB+ve3gUPXE50wwQIAAAAkDRJwAAAAQB5MmSLy7LMWOPbZR2TSJJHixW0HAABBdI3QE0+0wJGeHrqqGgAAAImLBBwAAAAQJq16GzjQgiC6hk+DBhYAAJCN1FQbOBYuFHn3XQsAAACQFEjAAQAAAGHYvVukZ0+RDRtsh0PX9Dn/fAsAAMjB2WeLVKtmgUO/yAEAAIDkQQIOAAAACMM994h8+KEFjiZNREaNsgAAgFyULu3/4kawadNEVq60AAAAAAmPBBwAAACQi88/FxkxwgKHrvc2ebJIxYq2AwCAMAwYYAPHrl0iEydaAAAAgIRHAg4AAADIwcaNIt26+VtQBtOkXOvWFgAAEKZmzUTatbPAkZ4ukpFhAQAAABIaCTgAAAAgB4MGiSxYYIGjTRuRG2+0AACAPEpNtYHjjz9E5s2zAAAAAAmNBBwAAACQjRdfFBk/3gJHpUoizz4rUqKE7QAAII/OOUekalULHGlpNgAAAEBCIwEHAAAAhLBkSejqBPXkkyL77msBAAD5UKaMSK9eFjheeUVk1SoLAAAAkLBIwAEAAABBdL23Sy4RWbfOdji6d/evCQcAQEENGGADx86dIhMnWgAAAICERQIOAAAACPLgg6HX4GnUSOTxxy0AAKCADjxQpG1bCxzahtLnswAAAAAJiQQcAAAA4PjqK5Gbb7bAUWzPX8667lvlyrYDAIAICNXu+PffRd57zwIAAAAkJBJwAAAAgNm82d9eUtt/BRs2TOT44y0AACBCzj1XpEoVCxzp6TYAAABAQiIBBwAAAJjrrhP57TcLHMccIzJ8uAUAAERQ2bL+dUeDvfSSyOrVFgAAACDhkIADAAAA9nj1Vf+aO8EqVBCZPFmkZEnbAQBAhA0YYAPHjh0ikyZZAAAAgIRDAg4AAABF3vLlIv37WxBk9GiR/fazAACAKDjoIJE2bSxw6BdDfD4LAAAAkFBIwAEAAKBIy8gQ6d07dJuvCy4I3RYMAIBIS021geOXX0Q+/NACAAAAJBQScAAAACjSHn1UZNYsCxz164s89ZRISortAAAgis4/X2SffSxwhGqPDAAAgPhHAg4AAABF1nffiQwdaoFDk27PPCNSpYrtAAAgysqWFenZ0wLHiy+KrFljAQAAABIGCTgAAAAUSVu3inTrJrJjh+1wDBki0r69BQAAxMiAATZwbN/u/1IIAAAAEgsJOAAAABRJN9wgMn++BY4jjhC59VYLAACIoUMOETn2WAsc2obS57MAAAAACYEEHAAAAIqc6dNFHn/cAke5ciKTJ4uUKmU7AACIsdRUGzj0CyMff2wBAAAAEgIJOAAAABQpK1eK9O1rQZBHHxVp1swCAAAKwQUXiFSubIFDq+AAAACQOEjAAQAAoMjQ9l19+oisWmU7HGefLdKvnwUAABQSrcbu0cMCxwsviKxdawEAAADiHgk4AAAAFBnadvLtty1w1K0rkp4ukpJiOwAAKEQDBtjAsW2byLPPWgAAAIC4RwIOAAAARcJPP4lcf70FQSZOFKlWzQIAAArZoYeKHHOMBQ5tQ6nV3AAAAIh/JOAAAACQ9LRqoFs3ke3bbYdj8GCRjh0tAAAgTqSm2sDx448in35qAQAAAOIaCTgAAAAkvZtuEvn+ewscWmFw550WAAAQRy68UKRiRQscWgUHAACA+EcCDgAAAElt5kyRhx+2wFGmjMiUKSKlS9sOAADiSPnyIj16WOCYOlVk3ToLAAAAELdIwAEAACBprVol0quXBUEefFCkRQsLAACIQ6HaUG7dKjJ5sgUAAACIWyTgAAAAkJR8PpH+/UX+/tt2OLp0ERk40AIAAOLUYYeJHHWUBY6nn/b/ngMAAED8IgEHAACApKRr5Lz+ugWOWrVExo4VSUmxHQAAxLFQVXA//CDy+ecWAAAAIC6RgAMAAEDS+eUXkWuvtSDIhAkiNWtaAABAnLvoIpEKFSxw6BdNAAAAEL9IwAEAACCp7Ngh0q2bf42cYFdfLdK5swUAACQATb51726B4/nnRdavtwAAAABxhwQcAAAAksrw4SLffGOB4+CDRe691wIAABJIqDaUW7aITJliAQAAAOIOCTgAAAAkjXffFbn/fgscpUv7T1KWKWM7AABIIK1aiRxxhAWOp58W8fksAAAAQFwhAQcAAICksHq1yCWXhD4RqZVvhxxiAQAACShUFdx334l8+aUFAAAAiCsk4AAAAJDwNOl26aUiy5bZDkenTiJXXWUBAAAJ6uKLRcqXt8CRlmYDAAAAxBUScAAAAEh448eLvPyyBY7q1UUmTNjzRy9/9QIAElzFiiLdulngeO45kQ0bLAAAAEDc4FQEAAAAEtrvv4tcfbUFQcaNE6ld2wIAABJcqDaUmzf7k3AAAACILyTgAAAAkLB27hTp3t1/8jHYwIEiZ5xhAQAASeCII0QOP9wCB20oAQAA4g8JOAAAACSsW28V+eILCxzNm4s88IAFAAAkiZSU0FVwX38t8tVXFgAAACAukIADAABAQnr/fZG77rLAUbKkyJQpIuXK2Q4AAJKIrgMX6nccVXAAAADxhQQcAAAAEs66dSI9e4r4fLbDoUm5UO25AABIBpUqiVx8sQUO/fLJxo0WAAAAoNCRgAMAAEBC0aSbru/211+2w9Ghg8h111kAAECSCtWGctMmkeeftwAAAACFjgQcAAAAEsqzz4Y+wVi1qsjEiXv+wOUvXABAkjvqKJFDD7XAQRtKAACA+MHpCQAAACSMhQtFrrjCgiBjxojUq2cBAABJLCUldBXcl1+KfP21BQAAAChUJOAAAACQEHbtEunRI/T6Nv37i5x9tgUAABQB3buLlC1rgSM93QYAAAAoVCTgAAAAkBDuvFPkk08scDRtKvLwwxYAAFBEVK4sctFFFjgmT/avBwcAAIDCRQIOAAAAce/jj0Vuu80CR4kS/hONFSrYDgAAipBQbSi1UnzqVAsAAABQaEjAAQAAIK5t2OBvPZmRYTscmpQ76igLAAAoYo45RuSQQyxwpKXZAAAAAIWGBBwAAADi2pVXiixaZIHjhBNE/vc/CwAAKIJSUkJXwX3+uci331oAAACAQkECDgAAAHHruedEnnnGAsc++/j3Fy9uOwAAKKK0SrxMGQsc6ek2AAAAQKEgAQcAAIC4tHixyMCBFgR5+mmRhg0tAACgCNMvpVx4oQWOZ58V2bzZAgAAAMQcCTgAAADEnd27RXr2FFm/3nY4evUSueACCwAAQMg2lLqG6gsvWAAAAICYIwEHAACAuHPvvSIffGCBo0kTkVGjLAAAAJ5jjxU56CALHGlpNgAAAEDMkYADAABAXPn8c5ERIyxw6Hpv2k6rUiXbAQAAPCkpoavgPv1U5PvvLQAAAEBMkYADAABA3Ni0SaR7d5Fdu2yH45Zb/N/wBwAAe+vRQ6RMGQsc6ek2AAAAQEyRgAMAAEDcuOYakT/+sMBx3HEiN91kAQAA2EvVqiLnn2+B45lnRLZssQAAAAAxQwIOAAAAceHll0XGjrXAUbGiv/VkiRK2AwAAhBSqDeX69SIvvmgBAAAAYoYEHAAAAArd0qUiAwZYEOSJJ0QaN7YAAABkq00bkQMPtMCRlmYDAAAAxAwJOAAAABSqjAyRSy4RWbvWdji6dfOvaQMAAHKXkhK6Cu7jj0V+/NECAAAAxAQJOAAAABSqBx8UmTvXAkejRiKPP24BAAAIS8+eIqVLW+BIT7cBAAAAYoIEHAAAAArN11+LDBtmgaPYnr9Sn3lGZJ99bAcAAAhLtWoi551ngWPSJJGtWy0AAABA1JGAAwAAQKHYssXfYnLnTtvhuOkmkbZtLQAAAHkSqg3lunUiL71kAQAAAKKOBBwAAAAKxeDBIr/+aoHj6KNFbrnFAgAAkGf6JZZmzSxwpKXZAAAAAFFHAg4AAAAx9/rrIk89ZYGjfHmRyZNFSpa0HQAAIM9SUkJXwX34ocj8+RYAAAAgqkjAAQAAIKZWrBDp18+CII89JrL//hYAAIB8u+QSkVKlLHCkp9sAAAAAUUUCDgAAADGTkSHSu7fIv//aDsd55/kvAwAABVe9usi551rgmDhRZNs2CwAAABA1JOAAAAAQM6NGicycaYGjfn2Rp5/2t8wCAACREaoN5dq1Ii+/bAEAAACihgQcAAAAYuL770WGDLHAoUm3SZNEqla1HQAAICLatRNp2tQCR1qaDQAAABA1JOAAAAAQdVu3inTrJrJjh+1w/O9/IieeaAEAAIgY/ZJLqCq4998X+eUXCwAAABAVJOAAAAAQdVr59tNPFjhatRK57TYLAABAxPXqJVKypAWO9HQbAAAAICpIwAEAACCq3npL5LHHLHCULSsyZYpIqVK2AwAARFyNGiLnnGOBY+JEkW3bLAAAAEDEkYADAABA1Pzzj0ifPhYEeeQRkWbNLAAAAFETqg3l6tUi06ZZAAAAgIgjAQcAAICo8Pn8yTdNwgU76yyRAQMsAAAAUdW+vcj++1vgSEuzAQAAACKOBBwAAACi4okn/O0ng9WpIzJmjEhKiu0AAABRVaxY6C++zJsn8ttvFgAAACCiSMABAAAg4n76SeT66y0IomvOVK9uAQAAiInevUVKlrTAkZ5uAwAAAEQUCTgAAABE1PbtIt26iWzbZjsc110ncvLJFgAAgJipWVOka1cLHBMm+H93AwAAILJIwAEAACCibrpJ5PvvLXC0bCly110WAACAmEtNtYHj339FXn3VAgAAAEQMCTgAAABEzKxZIg89ZIGjTBmRKVNESpe2HQAAIOZOOkmkSRMLHGlpNgAAAEDEkIADAABAROg36Hv1siDIAw+IHHSQBQAAoFAUKyYyYIAFjnffFfn9dwsAAAAQESTgAAAAUGA+n0j//iIrVtgOx2mniVx+uQUAAKBQ9e4tUqKEBY4xY2wAAACAiCABBwAAgAJLTxd57TULHDVriowfL5KSYjsAAEChql1b5MwzLXDo7+sdOywAAABAgZGAAwAAQIH88ovINddYEGTCBH8SDgAAxI/UVBs4Vq0K/WUaAAAA5A8JOAAAAOSbflO+e3eRrVtth+Oqq0ROPdUCAAAQN04+WaRRIwscaWk2AAAAQIGRgAMAAEC+3XKLyNdfW+A46CCRe++1AAAAxJVixUQGDLDAMXu2yIIFFgAAAKBASMABAAAgX+bOFbnvPgscpUqJTJkiUras7QAAAHGnTx+R4sUtcIwZYwMAAAAUCAk4AAAA5NmaNSI9e4r4fLbDoZVvLVtaAAAA4lLduiJnnGGBY9w4f4tpAAAAFAwJOAAAAOSJJt0uvVRk2TLb4TjlFJGrr7YAAADEtdRUGzj++UfkjTcsAAAAQL6RgAMAAECeTJgg8tJLFjiqVfNfpuvKAACA+KdfnGnY0AJHWpoNAAAAkG+cHgEAAEDY/vhD5KqrLAiiLavq1LEAAADEPV0Drn9/CxwzZ4osWmQBAAAA8oUEHAAAAMKyc6dI9+4imzfbDsdll4mceaYFAAAgYfTtG7p6fcwYGwAAACBfSMABAAAgLLfdJvL55xY4mjUTefBBCwAAQEKpV0+kSxcLHFrZrl++AQAAQP6QgAMAAECuPvhA5K67LHCULCkyZYpIuXK2AwAAJJzUVBs4/v5bZPp0CwAAAJBnJOAAAACQo3XrRHr0EMnIsB2OO+8UadXKAgAAkJA6dxapX98CR1qaDQAAAJBnJOAAAACQoyuuEPnrLwscJ50kMniwBQAAIGEVLy7Sv78FjhkzRP780wIAAADkCQk4AAAAZGvyZH+LyWBVqohMnLjnj0n+mgQAICn07bv373WfT2TsWAsAAACQJ5wyAQAAQEiLFokMHGhBkPT00K2qAABAYmrQQOS00yxwaAJu1y4LAAAAEDYScAAAANiLnmjTdd82brQdDv2G/LnnWgAAAJJGaqoNHCtWiLz5pgUAAAAIGwk4AAAA7OWuu0Q+/tgCx/77izz6qAUAACCpnHqqSL16FjjS0mwAAACAsJGAAwAAQBaffCJy220WOEqU8K8HV6GC7QAAAElFf9f362eB4+23Rf76ywIAAACEhQQcAAAAMm3YINK9u8ju3bbDceutIkcdZQEAAEhKmoBLSbHA+Hz+teAAAAAQPhJwAAAAyHT11SKLFlngaNtWZMgQCwAAQNJq2NDfijKYJuB0jVgAAACEhwQcAAAAPFOnikycaIGjcmWRZ54RKV7cdgAAgKSWmmoDx7Jl/laUAAAACA8JOAAAAHjrulx2mQVBnnpKpFEjCwAAQNI7/XSROnUscKSl2QAAAAC5IgEHAABQxOl6bz17iqxbZzscuv+iiywAAABFQokS/rXggr31lsiSJRYAAAAgRyTgAAAAirj77hN5/30LHI0bi4webQEAAChSNAGXkmKBycgQGTfOAgAAAOSIBBwAAEAR9sUXIrfcYoFD13ubPFmkUiXbAQAAipR99xXp1MkCx5gx/up5AAAA5IwEHAAAQBG1aZNI9+4iu3bZDsfw4SLHHmsBAAAoklJTbeBYulTknXcsAAAAQLZIwAEAABRR114r8vvvFjg08TZsmAUAAKDI6tJFpHZtCxxpaTYAAABAtkjAAQAAFEGvvOJvIRWsYkWRZ58VKVHCdgAAgCKrZEmRvn0tcEyfLrJsmQUAAAAIiQQcAABAEaMnzAYMsCDI44+LNGliAQAAKPL697eBIyNDZNw4CwAAABASCTgAAIAiRE+Y9eolsmaN7XBcdJFIjx4WAAAA7NG4scgpp1jg0Er63bstAAAAwF5IwAEAABQhDz0kMmeOBY6GDUWefFIkJcV2AAAAmNRUGzj++ktk5kwLAAAAsBcScAAAAEXEN9+I3HSTBY5ie/4i1HXf9tnHdgAAADjOPFOkVi0LHGlpNgAAAMBeSMABAAAUAVu2iHTrJrJzp+1w3HijSNu2FgAAAAQpWVKkTx8LHG+8IbJ8uQUAAADIggQcAABAEXD99SK//GKB46ijREaMsAAAACAb/fvbwKFrwI0fbwEAAACyIAEHAACQ5PTb6bq+W7Dy5UUmT/Z/qx0AACAn++0n0rGjBY70dJGMDAsAAACQiQQcAABAEvv7b5G+fS0IMmqUSNOmFgAAAOQiNdUGjsWLRWbNsgAAAACZSMABAAAkKf02eu/eIv/+azsc554bei0XAACA7Jx1lkiNGhY40tJsAAAAgEwk4AAAAJLUY4+JzJhhgaNePf+JspQU2wEAABCGUqVCf4Hn9ddFVqywAAAAAB4ScAAAAEno++9F/vc/CxyadJs0SaRqVdsBAACQB/3728Cxa5fIhAkWAAAAwEMCDgAAIMls3SrSvbvIjh22w3HDDSInnWQBAABAHun6saH+lkhP97e/BgAAgB8JOAAAgCQzdKjIjz9a4GjVSuT22y0AAADIp9RUGzgWLRKZM8cCAAAAkIADAABIJm+/LTJqlAWOsmVFJk/2r90CAABQEF27ilSvboFD15gFAACAHwk4AACAJPHPPyJ9+lgQ5OGHRZo3twAAAKAASpcW6d3bAserr4qsXGkBAABAEUcCDgAAIAn4fCL9+oU+6XXmmaFbRQEAAOTXgAE2cOzaJTJhggUAAABFHAk4AACAJPDUUyLTp1vgqF1bZMwYkZQU2wEAABABBxwg0r69BY70dJGMDAsAAACKMBJwAAAACW7+fJHrrrMgiH4LvUYNCwAAACIoVIX9ggUic+daAAAAUISRgAMAAEhg27eLdOsmsm2b7XBcc41Ip04WAAAARNjZZ4tUq2aBIy3NBgAAAEUYCTgAAIAENmyYyHffWeBo2VLk7rstAAAAiIIyZUR69bLAMW2ayD//WAAAAFBEkYADAABIULNnizz4oAUOPRk2ZYr/XwAAgGgaMMAGjp07RSZOtAAAAKCIIgEHAACQgFavFrnkEguC3H+/yEEHWQAAABBFzZuLnHCCBQ5tQ+nzWQAAAFAEkYADAABIMHoyS79tvmKF7XCcdprIFVdYAAAAEAOpqTZw/PGHyLx5FgAAABRBJOAAAAASzNix/rVVgtWoITJunEhKiu0AAACIgXPPFalSxQKHVsEBAAAUVSTgksS8efMkJSUlz9svv/xi9wAAABLBb7+JDBpkQZDx40Vq1bIAAAAgRnTd2V69LHC88orIqlUWAAAAFDEk4AAAABLEjh0i3bqJbNliOxzadvL00y0AAACIMW2PHUz/dpk0yQIAAIAihgRcEipTpox06tQprK1ChQp2KwAAEO9GjBD56isLHC1aiNx/vwUAAACFQP8eOf54CxzahlLXrwUAAChqSMAloVq1ask777wT1la/fn27FQAAiGfz5once68FjlKlRKZMESlb1nYAAAAUktRUGzi0ffb771sAAABQhJCAAwAAiHNr14r07Bn62+P33CNy6KEWAAAAFKLzzhPZZx8LHFoFBwAAUNSQgAMAAIhjmnS79FKRpUtth+Pkk0UGDbIAAACgkGlF/iWXWOB46SWR1astAAAAKCJIwAEAAMSxSZNEXnzRAke1aiITJuz5Y46/5gAAQBwZMMAGjh07/H/TAAAAFCWcsgEAAIhTCxaIXHmlBUHGjBGpW9cCAACAOHHwwSLHHWeBQ9tQhmqnDQAAkKxIwAEAAMShnTtFuncX2bTJdjhSU0W6drUAAAAgzujfKsF++UXkww8tAAAAKAJIwCWhdevWyQUXXCD77ruvlC1bVipWrCiNGzeWrl27yujRo2XDhg12TQAAEK9uv13ks88scDRrJvLQQxYAAADEofPPF6lc2QKHVsEBAAAUFSTgktD69evlxRdflMWLF8u2bdtk06ZN8ueff8prr70mV111lTRs2FAee+wxuzYAAIg3+u3wO++0wFGypMiUKSLly9sOAACAOFSunEjPnhY4dF3bNWssAAAASHIpvj1sjAQ2b948OfHEEy0Sr/qtXr16Urp0afn3339l/vz5smvXLrvUr2/fvjJ27FiL8u+hhx7ytnCsWLFCMjIypHr16vLss8/aXmiiNKBMmTI2AhIHcxiJLN7m7+bNJWTgwOPkn3/K2p7/9Ov3q5x//p8WAXz+InExd5HImL/hWbSowp6/adpY9J/LLvtZunb9yyLEGvMXiYz5i0THHA6tR48eXg5D8xlLly61vcmBBFySeP/99+X222+XPn36SOfOnaVq1ap2iZ9WwWnCa/jw4d5kDrjnnntkyJAhFuXPyJEj5dZbb7UoPNWqVYtI8g8AgGTz8MOt5L33Glj0n0MOWbXn9+3HUoz+BQAAIEEMGdJWfv016/mJBg02yKhRcyUlxXYAAIAirV+/frJ69WoScEh8S5YskRNOOMFrSanKlSsnCxculFq1anlxflABV3B8+wGJjjmMRBZP8/fdd+vIffe1tOg/FSrslCef/Fhq1PjvsQKKz18kKuYuEhnzN3wzZ9aVhx46xKL/PPjgZ3LQQessQiwxf5HImL9IdMzh0KiAQ1L57LPPpHXr1hbpGjN3yk033WRRdNWvX1+WLVuWlG+mgpgxY4b3AawfvJ06dbK9QOJgDiORxcv81e/GHHqoyIYNtsPxwgsi559vAeDg8xeJirmLRMb8Dd/mzSJ16+79902vXiITJliAmGL+IpExf5HomMOhJXPOgCZGRdAxxxwj7du3t0hk1qxZNgIAAIVBl2nt0SN08q1PH5JvAAAgMZUv7/8bJ9jUqSJr11oAAACQpEjAFVFuAu63336zEQAAKAx33y3y0UcWOPbbT+TRRy0AAABIQKmpNnBs2yYyebIFAAAASYoEXBFVp04dG4nXXxUAABSOTz8VufVWCxzFi/tPTFWsaDsAAAASkLbYPvpoCxxpaSIsigIAAJIZCbgiasuWLTYSKVeunI0AAEAsbdwo0r27yO7dtsOhSbljjrEAAAAggYWqgvvhB12j3gIAAIAkRAKuiJo/f76NRGrWrGkjAAAQS1dfLbJwoQWO448XGTrUAgAAgAR34YWhq/q1Cg4AACBZkYArgrZu3Sqvv/66RSLHHXecjQAAQKy88ILIhAkWOCpVEnn2WX8LSgAAgGRQoYK/6j/Y88+LrF9vAQAAQJIhAVcEDR8+XFauXGmRSNeuXW0EAABiYckSkUsvtSDIU0+JNGpkAQAAQJII1YZy61b/mrcAAADJiARcEpg5c6YMHjxYli5dantC27lzpwwdOlQefPBB2yPSqlUrOfPMMy0CAADRpuu99ewpsm6d7XD06CFy8cUWAAAAJJHDDxc58kgLHE8/LeLzWQAAAJBESMAlgS1btshDDz0kjRo1khNOOMGrcJs6darMmTNHPvjgA5k2bZrceOONst9++8m9995rtxKpWrWqTJkyRVJSUmwPAACItgceEHnvPQsc++4rMnq0BQAAAEkoVBXc99+LfPGFBQAAAEmEBFwSycjI8BJud9xxh1x00UXSsWNHLyF3zjnnyD333CNLtN+Vadq0qcyePVuaNWtmewAAQLR9+aXIzTdb4Ci25y8yXfetcmXbAQAAkIQuusi/HlywtDQbAAAAJBEScEmgefPm3jpuVapUsT3Z23fffeW+++6Tb775Rg7X/g8AACAmNm8W6dZNZNcu2+HQpFybNhYAAAAkqYoV/X8PBXvuOZENGywAAABIEiTgkoAm4LTN5Jo1a+SPP/6QN954Q5588km5++67vWq4UaNGyfPPPy8LFiyQRYsWyQ033CDly5e3WwMAgFi49lqR33+3wNG6tcjw4RYAAAAkuVBtKLdsEZkyxQIAAIAkQQIuyeg6b126dJHLLrtMhg4dKsOGDZOrrrpKLrzwQmnSpIldCwAAxNK0aSLp6RY4tAXT5MkiJUrYDgAAgCR3xBEirVpZ4Hj6aRGfzwIAAIAkQAIOAAAgipYvF+nf34Igjz8uwvdjAABAUROqCu7bb0W++soCAACAJEACDgAAIEoyMkR69RJZs8Z2OC68UKRnTwsAAACKkIsvFgm1MkZamg0AAACSAAk4AACAKHnkEZHZsy1wNGgg8uSTIikptgMAAKAIqVTJn4QLpuvAbdxoAQAAQIIjAQcAABAF2kbpxhstcGjS7ZlnRKpUsR0AAABFUKg2lJs3izz3nAUAAAAJjgQcAABAhG3ZItKtm8iOHbbDMXSoSLt2FgAAABRRRx4pcthhFjhoQwkAAJIFCTgAAIAIu+EGkZ9/tsChJ5puvdUCAACAIky7AoSqgvvqK/8GAACQ6EjAAQAARND06SJPPGGBo1w5/7omJUvaDgAAgCJOOwbo30jB0tNtAAAAkMBIwAEAAETI33+L9O1rQZBRo0SaNrUAAAAAUrmyyEUXWeCYPFlk0yYLAAAAEhQJOAAAgAjw+UT69BFZtcp2OM45J/vEHAAAQFEWqg2lJt+ef94CAACABEUCDgAAIAJGjxZ55x0LHHXriqSl+dc5AQAAQFZHHy3SsqUFDv37CQAAIJGRgAMAACigH38UueEGC4JMmiRSrZoFAAAAyEK/pBSqCu6LL0S++cYCAACABEQCDgAAoAC2bRPp1k1k+3bb4bj+epEOHSwAAABASN27i5Qta4EjPd0GAAAACYgEHAAAQAEMHSryww8WOA47TOSOOywAAABAtvbZR+TCCy1wPPusyObNFgAAACQYEnAAAAD5pGu+PfqoBQ79BveUKSKlS9sOAAAA5ChUG8qNG0WmTrUAAAAgwZCAAwAAyIdVq0R697YgyEMPiRx4oAUAAADIVevWIgcfbIEjLc0GAAAACYYEHAAAQB75fCL9+omsXGk7HGecIXLppRYAAAAgLCkpoavgPvtM5LvvLAAAAEggJOAAAADy6OmnRd54wwJHrVoiY8f6TyABAAAgb3r0EClTxgJHeroNAAAAEggJOAAAgDz4+WeR666zIMiECSI1algAAACAPKlSReT88y1wPPOMyJYtFgAAACQIEnAAAABh2r5dpFs3ka1bbYdj0CCRzp0tAAAAQL6EakO5YYPICy9YAAAAkCBIwAEAAIRp+HCRb7+1wHHwwSL33GMBAAAA8q1NG5EDD7TAkZZmAwAAgARBAg4AACAMc+aI3H+/BY7SpUWeey70eiUAAADIG11LN1QV3CefiPzwgwUAAAAJgAQcAABALlavFrnkEguCaFJOK+AAAAAQGT17+r/kFCw93QYAAAAJgAQcAABADnw+kQEDRJYvtx0OXfPtyistAAAAQERUqyZy3nkWOJ55RmTLFgsAAADiHAk4AACAHIwbJzJtmgWOGjVExo/3t0kCAABAZIVqQ7lunchLL1kAAAAQ50jAAQAAZOO330SuvtqCIJqYq13bAgAAAERU27YizZpZ4EhLswEAAECcIwEHAAAQws6dIt27h25zdPnlIl26WAAAAICI0y4DoargPvpI5KefLAAAAIhjJOAAAABCGDlS5MsvLXAceKDI/fdbAAAAgKi55BKRUqUscKSn2wAAACCOkYADAABFztatInPmiNx3n8hDDx20Z2vl/aux7p85U+Tuu+3KjpIlRaZMESlXznYAAAAgaqpXFzn3XAsckyb5/54DAACIZyTgAABAkbFkicjgwSL16ol07CgyZIgm2+rL++838P7VWPefeqqIz2c3cmhS7rDDLAAAAEDUhWpDuXatyMsvWwAAABCnSMABAICkp8m0p58WadFCK978J21ykpFhA4cm5q691gIAAADERLt2Ik2bWuBIS7MBAABAnCIBBwAAktrOnSI9eohcdpnIpk22M4907ZExY/b84cRfTgAAADGVkhK6Cu6DD0R+/tkCAACAOMRpJAAAkLS08q13b/+6bQWxY4fIsGGh21ICAAAgunr18q/FGyw93QYAAABxiAQcAABIWtqaqKDJt4DJkznJAwAAUBhq1BA55xwLHBMnimzbZgEAAECcIQEHAACS0pIlItdfb0GEDB7sv18AAADEVqg2lGvWiLzyigUAAABxhgQcAABISo88kv8137Kj9/fooxYAAAAgZtq3F9l/fwsc2vEAAAAgHpGAAwAASWfrVpHx4y2IsHHj/PcPAACA2ClWTGTAAAsc770n8uuvFgAAAMQREnAAACDpfPyxyNq1FkSY3u8nn1gAAACAmOndW6RkSQscrNMLAADiEQk4AACQdL76ygZREu37BwAAwN5q1hTp2tUCx4QJItu3WwAAABAnSMABAICkE+02RL/8YgMAAADEVGqqDRyrV4tMm2YBAABAnCABBwAAks62bTaIkmjfPwAAAEI76SSRJk0scKSl2QAAACBOkIADAABJp0wZG0RJtO8fAAAAoRUrJjJggAWOuXNFfvvNAgAAgDhAAg4AACSdZs1sECXNm9sAAAAAMde7t0iJEhY4xoyxAQAAQBwgAQcAAJLOEUfYIEqiff8AAADIXu3aImedZYFj/HiR7dstAAAAKGQk4AAAQNI57jiRKlUsiDC932OPtQAAAACFIjXVBo5//xV57TULAAAAChkJOAAAkHTKlhXp08eCCOvb13//AAAAKDwdO4rsu68FjrQ0GwAAABQyEnAAACApXXONSIUKFkRIxYoigwZZAAAAgEJTrJjIgAEWOObMEfnjDwsAAAAKEQk4AACQlBo0EHngAQsiRO9P7xcAAACFTzseFC9ugWPMGBsAAAAUIhJwAAAgaem3onWR/kjo3j30t6wBAABQOOrUETnzTAsc48eL7NhhAQAAQCEhAQcAAJLWM8+I/P23BQWgyTc9kZOSYjsAAAAQF1JTbeD45x+R11+3AAAAoJCQgAMAAElJT7xcd50F+aRryD39tD+RV7Kk7QQAAEDcOPlkkUaNLHCkpdkAAACgkJCAAwAASenaa0XWrLHAcdRRIlWqWJANvXzwYJH58/3fqqbyDQAAID7pGnD9+1vgmDVLZOFCCwAAAAoBCTgAAJB03n5bZMoUCxxNmojMmyeybJnInDki990ncsopS+WEE5Z4/2qs+/XyBx4QadDAbggAAIC41aePPxEXbMwYGwAAABQCEnAAACCpbNokMnCgBUG0FVG5ciJly4qcdJLIDTdom8qf9mxfe/9qrPv1cgAAACSGevVEunSxwDFunMjOnRYAAADEGAk4AACQVG65RWTxYgscvXuLdOhgAQAAAJKKtg0PtnKlyBtvWAAAABBjJOAAAEDS+OILkUcftcBRo4a/pSQAAACSU6dOoduHawcEAACAwkACDgAAJAVtL6QL8Gdk2A6HJuWqVbMAAAAASUfXgNO/BYPNnCmyaJEFAAAAMUQCDgAAJIUHHxT5/nsLHKeeKnLRRRYAAAAgafXtK1Is6EyXzycydqwFAAAAMUQCDgAAJLw//hC59VYLHOXLizz5pEhKiu0AAABA0qpfX+T00y1wjBvn75YAAAAQSyTgAABAQtNvNeui+9u22Q7HnXeKNGpkAQAAAJKe/l0YbMUKkTfftAAAACBGSMABAICENn68yNy5FjiOPlrkyistAAAAQJHQubO/Ei5YWpoNAAAAYoQEHAAASFgrV4pcf70FjhIlRNLT/YvxAwAAoOjQvwP79bPA8c47IosXWwAAABADJOAAAEDCGjRIZO1aCxw33CDSsqUFAAAAKFL69hUpFnTGS9uWjx1rAQAAQAyQgAMAAAlJ1/GYOtUCx/77iwwfbgEAAACKnIYNRU491QKHJuB27bIAAAAgykjAAQCAhLNxo8jAgRYE0fU9ypa1AAAAAEVSaqoNHMuXi7z1lgUAAABRRgIOAAAknGHDRJYsscCh632ceKIFAAAAKLJOO02kbl0LHPplLQAAgFggAQcAABLKp5+KjB5tgaNWLZH777cAAAAARVqJEv4vZwV7+22Rv/6yAAAAIIpIwAEAgISxY4fIgAH+RfSDjRolUqWKBQAAACjyNAGXkmKBycgQGTfOAgAAgCgiAQcAABKGVrj9+KMFji5dRM4/3wIAAABgj0aNRDp3tsAxdqzIrl0WAAAARAkJOAAAkBB++03k9tstcFSoIPLEE3t/uxkAAABITbWBY+lSkXfesQAAACBKSMABAIC4p62C9OTJ9u22w3H33SINGlgAAAAAOE4/XaROHQscaWk2AAAAiBIScAAAIO5pm6D33rPA0bq1yMCBFgAAAABBSpYU6dvXAsebb/or4QAAAKKFBBwAAIhrK1aI3HCDBQ49mZKeLlK8uO0AAAAAQujXb+925dphYdw4CwAAAKKABBwAAIhrV18tsn69BY4hQ0QOPtgCAAAAIBuNG4uccooFjjFjRHbvtgAAACDCSMABAIC49frrIi+9ZIGjWTORYcMsAAAAAHKh6wkHW7JEZMYMCwAAACKMBBwAAIhLGzaIXH65BUF00fwyZSwAAAAAcnHGGSK1alng0L8rAQAAooEEHAAAiEs33iiybJkFDv328gknWAAAAACEQdcP7tvXAsf06aH/5gQAACgoEnAAACDufPyxyJNPWuCoU0fk3nstAAAAAPKgf38bOHQNuPHjLQAAAIggEnAAACCubN8uMmCAiM9nOxyPPSayzz4WAAAAAHnQpInIySdb4Bgzxp+IAwAAiCQScAAAIK5ohdv8+RY4zjpL5JxzLAAAAADyQduZB1u8WGTWLAsAAAAihAQcAACIGz//LHLnnRY4KlUSefxxkZQU2wEAAADkw5lnitSsaYEjLc0GAAAAEUICDgAAxIWMDH/ryR07bIfjnntE6tWzAAAAAMinUqVE+vSxwPH66yIrVlgAAAAQASTgAABAXNBvHX/0kQWONm1ELr3UAgAAAKCA+ve3gUPXgBs/3gIAAIAIIAEHAAAK3bJlIkOGWOAoWdKfmCvGXywAAACIkP33F+nQwQJHerq/KwMAAEAkcDoLAAAUuquuEtmwwQLHTTeJtGhhAQAAABAhqak2cPz5p8js2RYAAAAUEAk4AABQqKZN82/BDjxQ5MYbLQAAAAAiqGtXkRo1LHBo9wUAAIBIIAEHAAAKzbp1IldcYUEQbQFUurQFAAAAQASVKiXSu7cFjtdeE/n7bwsAAAAKgAQcAAAoNEOHiqxYYYFj4ECRNm0sAAAAAKKgf38bOHbtEpkwwQIAAIACIAEHAAAKxQcfiDz9tAWOunVF7r7bAgAAACBKDjhA5MQTLXBoJ4aMDAsAAADyiQQcAACIue3bQy98rx5/XKRyZQsAAACAKAr1N+nChSLvvmsBAABAPpGAAwAAMXfXXSK//GKB45xz/AviAwAAALFw9tki1apZ4EhLswEAAEA+kYADAAAx9dNPoVtMatXbY49ZAAAAAMRA6dIivXtb4Jg2TWTlSgsAAADygQQcAACIGV1LY8AAkZ07bYfjvvv8678BAAAAsaR/nwbbtUtk4kQLAAAA8oEEHAAAiJknnxT55BMLHG3bivTvbwEAAAAQQ82aibRrZ4EjPd3/BTIAAID8IAEHAABiYulSkRtvtMBRqpR/jY1i/FUCAACAQpKaagPHH3+IzJtnAQAAQB5xqgsAAESdzydyxRUiGzfaDsfNN4s0b24BAAAAUAjOOUekalULHPpFMQAAgPwgAQcAAKLu5ZdFXn/dAsdBB4kMGWIBAAAAUEjKlBHp1csCxyuviKxaZQEAAEAekIADAABRtXatyJVXWuBISREZM8bfghL/Z+9OwOwcz8eP35NVIiF2saa1Lz9rq/hrqF0XbS1dQkuQoBRBNBuJiCSWpEUrdoq2li66KqpUa621tNRWaxGxJxLZ5p/3zE1f4yB75pz5fK5rrnm+70zO9bv6O2a7z/s8AAAsan365KJk2rSIH/84AwBgDhjAAQAL1HHHRbz0UkZJsSXllltmAADAIrbeehGf/WxGSbENZbGlOgDAnDCAAwAWmL/8pekut+ZWWSVi5MgMAABoIfr2zUXJY481/VwLADAnDOAAgAViypTqf8AonH12RNeuGQAA0ELsuWfEUktllBR3wQEAzAkDOABggRgxIuLRRzNK9t474ktfygAAgBakU6eIb387o+QXv4iYMCEDAGA2GMABAPPdgw9GnHJKRkm3bhFnnpkBAAAtUJ8+uSiZOjXi0kszAABmgwEcADBfzZgRcdBBEdOn54WS00+PWHHFDAAAaIE22CDi//2/jJJiG8rGxgwAgI9hAAcAzFc/+lHEXXdllGy3XcQBB2QAAEALVu0s43//O+Kvf80AAPgYBnAAwHzzzDMRgwZllHTs2PSK4YaGvAAAAC1YcW5xsX16c8XPtAAAs8MADgCYL4rteL7znYhJk/JCyQknRKy1VgYAALRwnTpFfOtbGSU//3nEK69kAAB8BAM4AGC+uOqqiN//PqPk//4von//DAAAqBF9+uSi5J13Ii67LAMA4CMYwAEA8+zVVyOOOCKjpNhy8oILItq3zwsAAFAjiheSbbVVRkmxDWWx+wMAwEcxgAMA5tmxx0aMH59RUgzlttgiAwAAakzfvrkoefjhiFtvzQAA+BAGcADAPPnznyMuvjijZLXVIkaMyAAAgBr0ta9FLLlkRklxFxwAwEcxgAMA5trkydVfFVwYNy6iS5cMAACoQZ07R+y7b0ZJcf5xsQ07AMCHMYADAOba8OERTzyRUfKNb0R8/vMZAABQw/r0yUXJO+9EXH55BgBAFQZwAMBceeCBiNNOyyhZeumIM87IAACAGrfxxhGf+UxGSbENZWNjBgBAMwZwAMAcmzEj4qCDmt43N2ZMxPLLZwAAQB2otu36P/8ZcfvtGQAAzRjAAQBz7MwzI+6+O6Nkhx0i9tsvAwAA6sTXvx7RtWtGSXEXHABANQZwAMAceeqpiCFDMkoWWyzinHMiGhryAgAA1InFF4/Yd9+MkiuvjHjttQwAgBIDOABgthVnXBx6aMTbb+eFkmHDItZcMwMAAOpMtW0op0yJ+MlPMgAASgzgAIDZ9rOfRfzxjxklm2wScfTRGQAAUIeKn3k/9amMkmIbyuKFagAAZQZwAMBsmTAh4sgjM0razPpp4oILItq3zwsAAFCnqt0F9+CDEXfemQEAkAzgAIDZcswxTUO45o46KmLzzTMAAKCOfeMbEV26ZJQUd8EBAJQZwAEAH+uGGyIuvTSjpEePiOHDMwAAoM517RrRq1dGyRVXRLzxRgYAwCwGcADAR3r77YhDDslo5pxzIhZfPAMAAFqBattQTp4c8ZOfZAAAzGIABwB8pGHDIp58MqNkn30idtklAwAAWoli+/XNNssoKbahbGzMAABaPQM4AOBD3XtvxJgxGSXLLBPx/e9nAABAK1PtLrgHHoi4++4MAKDVM4ADAKqaPj3ioIMiZs7MCyXF8G255TIAAKCV+eY3q2/FXtwFBwBQMIADAKr6wQ8i7rsvo2SnnSL23TcDAABaoSWWaBrCNfezn0W8+WYGANCqGcABAB9QnPl2wgkZJZ06RZxzTkRDQ14AAIBWqto2lJMmNQ3hAAAM4ACA9ykOjj/kkIjJk/NCyfDhEZ/8ZAYAALRin/pUxCabZJTYhhIAKBjAAQDvc/nlETfckFGy2WYRRx2VAQAArVyxK0S1u+DuvTfinnsyAIBWywAOAHjPyy9H9OuXUdK2bcQFF0S0a5cXAACA6NUronPnjBJ3wQEABnAAwHuK4dsrr2SUHH10xKabZgAAABVLLhnxjW9klPz0pxFvvZUBALRKBnAAQMV110X85CcZJcWZb8OGZQAAAO9TbRvKiRMjrrgiAwBolQzgAICYNCnikEMymjnnnOrb6gAAABFbbBGx0UYZJbahBIDWzQAOAIgTToh46qmMkv32i9hppwwAAOADGhqq3wV3990R996bAQC0OgZwANDK/f3vET/4QUbJcstFjBmTAQAAfKh99ono1Cmj5PzzcwEAtDoGcADQik2bFtGnT8TMmXmhpBjKLbNMBgAA8KG6dYv4+tczSoozlovz4ACA1scADgBasbFjIx54IKNk110jvvnNDAAA4GNV24byrbcirrwyAwBoVQzgAKCVevzxiGHDMko6d44YN67pLAsAAGD2bLllxIYbZpScd14uAIBWxQAOAFqhxsaIgw+OmDIlL5SMGBHRo0cGAAAwW4oXsFW7C+6uuyLuvz8DAGg1DOAAoBW65JKIP/85o+TTn4444ogMAABgjuy7b8Rii2WUnH9+LgCAVsMADgBamZdeijjmmIyStm2b/jBQvAcAAObcUktFfO1rGSWXXx4xaVIGANAqGMABQCtz1FERr72WUdK/f8TGG2cAAABzpdo2lG++GXHVVRkAQKtgAAcArcgf/hBxxRUZJWuuGXHCCRkAAMBc23rriPXXzyg577xcAACtggEcALQSEydGHHpoRjPnnhvRqVMGAAAw1xoaqt8Fd8cdEf/4RwYAUPcM4ACglRgyJOKZZzJKDjggYvvtMwAAgHn2rW9FdOyYUVKcuQwAtA4GcADQCtx5Z8SZZ2aULL98xGmnZQAAAPPF0ktH7L13Rslll0W8/XYGAFDXDOAAoM5NmxbRp09EY2NeKCmGcsUfBwAAgPmr2jaUb7wRcfXVGQBAXTOAA4A6V9zh9uCDGSVf+ELE176WAQAAzFfbbBOx7roZJeedlwsAoK4ZwAFAHXv00YjhwzNKunSJOPvspgPiAQCA+a/4WbvaXXC33Rbx0EMZAEDdMoADgDo1c2bTL/zvvJMXSk4+OWK11TIAAIAF4tvfjujQIaPk/PNzAQDULQM4AKhTF10U8Ze/ZJR85jMRhx2WAQAALDDLLBOx114ZJZdeGjF5cgYAUJcM4ACgDr34YkT//hkl7do1vdq2bdu8AAAALFDVtqF8/fWIn/88AwCoSwZwAFCHjjii6Zf65r73vYj/+78MAABggevZM2LttTNKzjsvFwBAXTKAA4A689vfRlx9dUZJ8Uv/kCEZAADAQtHQUP0uuL/9LeJf/8oAAOqOARwA1JE334z4zncymileYbvYYhkAAMBCs99+ER06ZJQU28MDAPXJAA4A6sjgwRHPPZdR0qdPxLbbZgAAAAvVsstG7LFHRsmPfxwxZUoGAFBXDOAAoE7cfnvEj36UUbLiihGnnpoBAAAsEtW2oXzttYhf/CIDAKgrBnAAUAemTm26y62xMS+UnHVWRLduGQAAwCKx3XYRa66ZUVJsFQ8A1B8DOACoA6ecEvHPf2aU7L57xJ57ZgAAAItMQ0P1u+BuuSXikUcyAIC6YQAHADWu+GV9xIiMkq5dm7akLH7RBwAAFr399oto3z6j5PzzcwEA1A0DOACoYTNnNr2KttiCsrnRoyNWWSUDAABY5JZfPuKrX80o+fGPI6ZMyQAA6oIBHADUsOKVsn/9a0bJ1ltHHHJIBgAA0GJU24bylVcifvWrDACgLhjAAUCN+u9/I447LqOk2NKmGMy18V0eAABanM99LmKNNTJKzjsvFwBAXfCnOQCoUd/9bsSbb2aUDBwYsf76GQAAQItSvFCuT5+Mkptvjnj00QwAoOYZwAFADbrmmohf/jKjZN11IwYNygAAAFqk/fePaNcuo6TYyQIAqA8GcABQY954I+KwwzKaKX5h79gxAwAAaJFWWCHiK1/JKLnkkoh33skAAGqaARwA1JgBA5rOf2vukEMittkmAwAAaNH69s1FyYQJTbtdAAC1zwAOAGrI3/4Wcc45GSUrrRQxenQGAADQ4u2wQ8QnPpFRct55uQAAapoBHADUiGIrmmqHtRd++MOIJZfMAAAAWrw2bar/fP/nP0c89lgGAFCzDOAAoEaMGhXxyCMZJV/9atMbAABQW3r3jmjXLqPkggtyAQDULAM4AKgB//pXxMiRGSVLLNF09xsAAFB7VlwxYvfdM0ouvjhi6tQMAKAmGcABQAs3c2bT1jTTpuWFklNPbTr/DQAAqE19++ai5OWXI3796wwAoCYZwAFAC3fOORG33ZZR8tnPfviZcAAAQG3YaaeI1VfPKDnvvFwAADXJAA4AWrDnnosYMCCjpEOHpl/Ii4PbAQCA2lX8TF/thXV/+lPEE09kAAA1x5/tAKCFamyMOPzwiLfeygslgwdHrLtuBgAAUNN6945o2zaj5IILcgEA1BwDOABooX75y+rnPqy/fvW74gAAgNpUnOv8pS9llFx0UcTUqRkAQE0xgAOAFuj115vufmuuoSHi/PObtqAEAADqR9++uSgZPz7it7/NAABqigEcALRAxx0X8eKLGSXf+U7E1ltnAAAAdWPnnSNWWy2jpDj7GQCoPQZwANDC/OUvTXe5NbfyyhEjR2YAAAB1pTgD7qCDMkquvz7iP//JAABqhgEcALQgU6ZU33qmcPbZEUsskQEAANSdAw6IaFPlr3UXXJALAKBmGMABQAty8skRjz6aUbLXXhG7754BAADUpWLXiy9+MaPkoosipk3LAABqggEcALQQDz4YMXp0RsmSS0aceWYGAABQ16rtiFGcD/2732UAADXBAA4AWoAZMyL69ImYPj0vlJx+ekT37hkAAEBd23XXiFVWySg577xcAAA1wQAOAFqA4ny3O+/MKNl224gDD8wAAADqXtu2EQcdlFFy3XURTz2VAQC0eAZwALCIPftsxKBBGSUdOza9yrWhIS8AAACtwgEHRLRp9le7xsaICy/MAABaPAM4AFiEil+iv/OdiIkT80LJ8cdHrL12BgAA0GqsumrE5z+fUVIM4KptWw8AtDwGcACwCF19dfXD1DfcMKJ//wwAAKDV6ds3FyUvvBDx+99nAAAtmgEcACwir74a8d3vZpQUW05ecEFEhw55AQAAaHV22y1i5ZUzSopt6gGAls8ADgAWkeIOt/HjM0qKodxnPpMBAAC0Su3aRRx4YEbJtddGPPNMBgDQYhnAAcAicNNNERddlFFSnPUwYkQGAADQqhUDuGKHjLLiHOniLDgAoGUzgAOAhWzy5OrnORTGjYvo2jUDAABo1VZbrWkryuaKAdz06RkAQItkAAcAC9lJJ0U8/nhGyde/HvGFL2QAAADMUu3Fe88/37QVJQDQchnAtRJPPfVUdOnSJRoaGt57GzZsWH4UgIXlgQciTjsto2SppSLOOCMDAAAgFS/S6949o+S883IBALRIBnCtxMEHHxyTJk3KAmBRmDEjok+f6lvFjBkTscIKGQAAAKldu6az4Jr7wx8inn02AwBocQzgWoHLL788rr/++iwAFpWzzor4+98zSrbfPmL//TMAAACaKQZwDQ0ZaebMiIsuygAAWhwDuDo3YcKE6NevX2W93nrrxUorrVRZA7BwPf10xJAhGSWLLRZx7rkf/GUaAADgXT16ROyyS0bJBRc07bQBALQ8BnB1rhi+FUO4wjnnnBPt27evrAFYeBobIw49NKLaTsBDh0asuWYGAADAh+jbNxclzz0X8cc/ZgAALYoBXB0rtp0stp8s9O7dO3r27FlZA7BwXXFFxLXXZpRsvHHEMcdkAAAAfIQvfjFixRUzSs47LxcAQItiAFen3n777TjkkEMq62WXXTZOO+20yhqAheuVVyKOPDKjpM2s78Dnnx/hxmQAAGB2FL87HHBARsnvfhfx/PMZAECLYQBXp44//vj4z3/+U1mffvrpscwyy1TWACxcxR1uL7+cUVIM5T796QwAAIDZcNBBuSiZOTPioosyAIAWwwCuDt1zzz1xxhlnVNbbbbdd7LfffpU1AAvXn/4U8eMfZ5SsvnrE8OEZAAAAs+kTn4jYeeeMkgsuiJgxIwMAaBEM4OrM9OnT46CDDpr1Q9eM6NChQ4wbNy4/AsDC9PbbEQcfnNHMOedEdOmSAQAAMAf69s1FyTPPRFx/fQYA0CIYwNWZMWPGxP33319Zf+9734t11123sgZg4TrxxIgnn8wo6dUrYtddMwAAAObQ7rtHrLBCRsl55+UCAGgRDODqyBNPPBEnFn/xnWWttdaKQYMGVdYALFz33Ve8ICKjZOmlI77//QwAAIC50L59RO/eGSW//W3Ef/+bAQAscg2Ns+SaGrfjjjvGjTfeWFnfcMMNlW6uR48e8fTTT1fWQ4cOjWHDhlXW82Ls2LGVt9nxwgsvxMyZM2PZZZeNyy+/PK8yZcqUXEUstthiuYLa4Tn8PzNmNMSRR34mHn98ybzyP8ce++Csr81+I25pPH+pZZ6/1CrPXWqZ5y8twX//2ykOOKBn1v/st99j8c1vVtmKI3n+Uss8f6l1nsPV7bvvvjFhwoRYeeWV47nnnsur9cEArk5cfPHFs37wOqCy3meffT50uLUgBnDFY7x7593sWmaZZeLCCy/MAqgf11yzRlxyyYZZ/7PxxuNnfb28PRoa8gIAAMA8GDp0q3jggeWzmiy33Ntx7rk3RBt7XgFQIw488MB45ZVXDOBomcaPHx/rrbdevPrqq7HUUkvFI488Essv//4fwN7lDriWyasfqHWew01efLFTHHzw1vHOO+3ySpOOHWfEOefcGt27T84rtCSev9Qyz19qlecutczzl5billtWiJEjN8n6nxEj7o5PfeqVrPfz/KWWef5S6zyHq3MHHC3aN77xjbjyyisr63PPPTf69u1bWVezIAZwc2KVVVaJ559/vi7/Y5oX1113XeULcPGFd5dddsmrUDs8hyOK76a77hpx/fV5oeTUUyP698+gxfH8pZZ5/lKrPHepZZ6/tBRTpxZ/Z4l4+eW8kPbYI+IXv8hoxvOXWub5S63zHK6unmcGbkivcbfffvt7w7etttoq+vTpU1kDsHD95CfVh2+bbhrRr18GAADAfNKhQ0Tv3hklv/lNsQNRBgCwyBjA1biXXnopV03DuDZt2kRDQ8OHvr1791uhOLet/LGnnnoqPwLAnChecXrUURklbdtGXHBBRLv370gJAAAwXxx0UC5Kpk+PuOSSDABgkTGAA4B5dPTREa9UOWKhuPNts80yAAAA5rO11orYfvuMkvPPj5g5MwMAWCQM4Gpcx44dY5lllpntt+IOuXd16tTpfR9rW9yqAcAcue66iMsvzyj5xCeKO40zAAAAFpC+fXNR8p//RNx4YwYAsEgYwNW43XbbLSZMmDDbb6uuumr+y4jjjjvuQz8GwMebNCnikEMymjn33IjOnTMAAAAWkK98JWLZZTNKzjsvFwDAImEABwBzaejQiGrHZ37rWxE77ZQBAACwAHXsGLH//hkl11wT8dJLGQDAQmcABwBz4Z57Ir7//YyS4pWnY8dmAAAALAR9+uSiZPr0iEsuyQAAFjoDOACYQ9OmRRx0UPVDzX/wg+rbvwAAACwoa68dsd12GSXnn1/99xYAYMEzgAOAOVTc+Xb//Rklu+wS0atXBgAAwELUt28uSp54IuKmmzIAgIXKAA4A5kDxC2xx9ltznTtHnHNORENDXgAAAFiIvvrViKWXzig577xcAAALlQFcK/PUU09FY2Nj5W3YsGF5FYDZMetLZxx8cMSUKXmh5KSTInr0yAAAAFjIFlssYr/9Mkp+9auI8eMzAICFxgAOAGbTpZdG3HhjRsnmm0cccUQGAADAItKnTy5KijOsf/zjDABgoTGAA4DZULxi9OijM0rato244IKIdu3yAgAAwCKy3noRn/1sRkmxDWWxowcAsPAYwAHAbDjqqIhXX80oOfbYiE02yQAAAFjE+vbNRcnjj0fcfHMGALBQGMABwMe49tqIn/0so2SNNSKGDs0AAABoAfbcM2KppTJK+vWLGDt2g1lvm1Xen3pq0xb7kyfnJwAA85UBHAB8hIkTIw45JKOZc8+N6NQpAwAAoAUofkf59rczSh54IOL661eJW25ZtfL+e9+L2HHHiJVXjjjmmIhnn81PBADmCwM4APgIxx8f8cwzGSX77x+xww4ZAAAALURx1tuSS2bMhtdeK+6Mi1h//aYXGTorDgDmDwM4APgQd90VccYZGSXLLx9x+ukZAAAALcS0aRH77hsxfHhemAPv7v7xrW81PQ4AMG8M4ACgiuIXzoMOqv7qz2Iot8wyGQAAAC1A8btLsVPHT3+aF+bST34S0bu3O+EAYF4ZwAFAFcUdbg8+mFHy+c9HfP3rGQAAAC3EeefN+/DtXcUQ7vzzMwCAuWIABwDNPPZYxIknZpQsvnjEuHERDQ15AQAAoAV49tmIY4/NmE+OOabpcQGAuWMABwAlxTYrBx8c8c47eaHk5JMjVlstAwAAoIX4wQ+aznCbn4rHq3YmNgAwewzgAKDk4osjbropo2SLLSIOPzwDAACghZg8uen3mAXhoouaHh8AmHMGcACQXnyxaZuV5tq1azr/oG3bvAAAANBC3HZbxGuvZcxnxePefnsGADBHDOAAIB15ZMTrr2eUHHdcxEYbZQAAALQg99yTiwVkQT8+ANQrAzgAmOV3v4u46qqMkrXWijj++AwAAIAW5t//zsUC8sgjuQAA5ogBHACt3ltvRRx6aEYz550XsdhiGQAAAC3MlCm5WEAW9OMDQL0ygAOg1Rs8OOK55zJKDjwwYrvtMgAAAFqgBf2CQS9IBIC5YwAHQKtWHCj+wx9mlKywQsRpp2UAAAC0UOusk4sFZN11cwEAzBEDOABaralTI/r0iWhszAslZ50VsdRSGQAAAC3U5pvnYgFZ0I8PAPXKAA6AVuvUUyP++c+Mki99KWKvvTIAAABasK23XnAvHiwed6utMgCAOWIAB0Cr9O9/R5x0UkZJly4RP/pRRENDXgAAAGjBOnWK6N07Yz474ICmxwcA5pwBHACtzsyZEX37Nm1B2dyoURGrrpoBAABQA446qunFhPNT164RRx6ZAQDMMQM4AFqdCy6IuOWWjJItt4w49NAMAACAGlG8iPD00zPmk+LxvDgRAOaeARwArcoLL0Qcd1xGSfv2TYO5tm3zAgAAQA0pdvnYZ5+MeVQ8Tp8+GQDAXDGAA6BV+e53I954I6NkwICIDTbIAAAAqDHFOdYXXzzvQ7iNN256HOdiA8C8MYADoNX49a8jfvGLjJJ11okYNCgDAACgRhU7e1x2WcS55879mXBPPhnx5psZAMBcM4ADoFUofoE87LCMZs4/P2KxxTIAAABqWHHnWrEd5b/+FXHMMRFLLZUfmE1vvRVxyikZAMBcM4ADoFUYODDi+eczSopfTD/72QwAAIA6seqqEaef3vR70I03Rpx6asTOOz8XPXs+W3lf9PXXV9+K/6yzIp57LgMAmCsGcADUvVtvjTj77IyS7t29shMAAKhvnTpFbL99RP/+EUcf/c9Zb/dW3he9004Ro0fnJ5ZMmRIxfHgGADBXDOAAqGvvvBPRp09GMz/8YUS3bhkAAACt0Be+EPH//l9GyUUXRfz73xkAwBwzgAOgrhWv5nz44YySr3wlYo89MgAAAFqp4sy4anfBzZgRcfzxGQDAHDOAA6BuFYO3kSMzSpZYounuNwAAACK22abpTrjmrr464u67MwCAOWIAB0BdmjmzaevJqVPzQknx6s6VV84AAACg8uLF4m645gYNygUAMEcM4ACoS+eeG3HrrRklxdkGBx+cAQAAQMVGG0X06pVRcsMNETfemAEAzDYDOADqzvPPR3zvexklHTpEnHferG9+vvsBAAB8wPDhEe3aZZQMHBjR2JgBAMwWf4IEoO4cfnjEW29llBRbp6y/fgYAAADv88lPVt8x5O9/j/jVrzIAgNliAAdAXfnlLyOuuSajZL31IgYMyAAAAKCqIUMiOnfOKBk8OGL69AwA4GMZwAFQN15/venut2rOPz+iY8cMAAAAqlpxxYh+/TJKHnkk4tJLMwCAj2UANx8888wzcfHFF8fo0aPjvPPOm/UDyayfSABY6Io73F54IaPk0EMj/t//ywAAAOAj9e8fsfTSGSVDh0ZMmZIBAHwkA7gqZs6cGaeffnqceuqpMWbMmGj8kFNmZ8yYEf369Ys111wzDjrooBg8eHAceuihscEGG8Tee+8db7zxRn4mAAvaLbdEnHtuRsnKK0eMGpUBAADAx1pyyYiBAzNKnnsu4uyzMwCAj2QAV8XNN98cxx133KwfNAbGXXfdFQ0NDfmR9ysGbmeccUZMnz69MqQrv/3yl7+Mz3/+85UhHQALVvEKzL59M5r50Y+afnkEAABg9h12WNMLGpsbOTLCa84B4OMZwFXxpz/9KVcR3/rWt3L1fk8++WSMHTu2Mpwr3tq3bx8bb7xxrLHGGpWPF0O4O+64I37wgx9UGoAFp/gF8N//zijZc8+IL385AwAAgNnWqVPEsGEZJa+8EjFmTAYA8KEM4Kq4++67K+/btGkTO+64Y2XdXHHWW3HnW6FHjx7x0EMPxX333RePPfZY/Ki43WKWYgh31llnVdYALBj//GfE6NEZJcVdb74EAwAAzL39949Ye+2MkrFjI156KQMAqMoArorHH3+88r64m22xxRarrJsrtph81ymnnBJrrbVWVlTOgdtll10q62effTYefPDByhqA+avY5feggyKmTcsLJaeeGtG9ewYAAABzrF27iJNPziiZNKn6dQDgfwzgqpgwYUJlW8kVVlghr7xfMVR7d0jXtWvX+HKV/c322GOPXEU88MADuQJgfho3LuKOOzJKevZsGswBAAAwb4qt/TffPKPknHMi/vOfDADgAwzgqpg8eXLl/Yfd/fbXv/618r4Y0n3uc5+rnP/W3JprrpmriPHjx+cKgPnl2WcjBg7MKOnYsdgmuNhGOC8AAAAw1xoaqm/7X+xEMnRoBgDwAf48WUXnzp0r71977bXK++b+8pe/5Cpi2223zdX7dejQIVcRU6ZMyRUA80NjY8Rhh0VMnJgXSoYMiVhnnQwAAADm2Y47RuywQ0bJ5ZdHOHkFAKozgKuie/fu0djYGI888kjMKA4Yaubaa6/NVcR2222Xq/crD+8WX3zxXAEwP/z85xG//W1GyYYbRhx3XAYAAADzzahRuSgpXhw5eHAGAPA+BnBVbJ4bW0+aNCmuuuqqyvpdf/jDH+K5556rrJdZZpnYZJNNKuvm3j0jrlAM9ACYP4rXN3z3uxklxbYo559f3IGcFwAAAJhvPv3piD32yCgpXhx5660ZAMB7DOCq2HvvvXMV8Z3vfCcuueSSePTRR+PnP/95HHjggZXrxflvX/va1yrrau68885cRay99tq5AmBe9e8f8dJLGSXFlpRbbpkBAADAfDdiRPXztgcMaLobDgD4HwO4Kr785S/Hpz71qco2lG+++WZl6LbeeuvF17/+9Rg/fnzlczp27BjHHntsZd3cO++8U7lTrlCcJ7fRRhtV1gDMm5tvjrjwwoySVVaJGDkyAwAAgAVivfUi9t8/o+RvfyuObMkAACoM4Koo7m77xS9+EWussUZlCNf8rW3btnHeeedFjx498l+8X/Fv33rrrcrjbLPNNtGm2kuDAJgjkydH9O2b0cy4cRFdu2YAAACwwAwdWrwwPaNk4MCImTMzAAADuA+z6qqrxj/+8Y847bTTYvvtt69sI1ncyda7d++46667Yt99983P/KBTTz218r4Y1u2+++6VNQDzptjq5LHHMkqK3YC/+MUMAAAAFqjVVms6AqC5f/wj4oorMgAAA7iP0qlTpzjmmGPiT3/6UzzyyCNx//33x4UXXhibbrppfkZ1xefNnDmz8nbooYfmVQDmVvGLXL624X26dYs444wMAAAAForibrdqu5Acf3zE1KkZANDKGcAB0KLNmBHRp0/E9Ol5oeT00yNWXDEDAACAhWLZZSP6988oefLJiAsuyACAVs4ADoAW7Yc/jLjrroySz30u4oADMgAAAFio+vWLWG65jJLhwyMmTcoAgFbMAG4OvfDCC/Hggw/G3/72t7jlllvyKgALwtNPRwwenFFSHPh97rkRDQ15AQAAgIWqS5emLSebe+klRwUAQMEAbjbceuutsc8++8RKK60Uq6yySmyyySax7bbbxvbbb5+f8X6jRo2KQYMGVd4meckPwFxpbIz4zneqv3Jy6NCItdbKAAAAYJHo2zeiR4+MklNOiXjllQwAaKUM4D7Cq6++GnvuuWf07NkzrrjiinjppZeisbHxfW/VFP9u9OjRs37YOCWuuuqqvArAnLjyyog//CGjZKONIo49NgMAAIBFptidpNhysrk332wawgFAa2YA9yFeeeWV+OxnPxvXXHPN+wZu3bp1i8UWWyw/q7rDDjssVxE/+9nPcgXA7CpeKXnEERklxZaT558f0b59XgAAAGCR6tUrYsMNM0rOOiviuecyAKAVMoD7EMWWkw8//HBl6Na1a9fK3WzPzfqpobi7rdh+8qP06NEjPvWpT1X+bXFW3DvvvJMfAWB2FHe4vfxyRkkxlNtiiwwAAAAWubZtI0aOzCiZMqX63XEA0FoYwFVxww03xPXXXx8NDQ2x3HLLxV133RX9+/evnAE3u94d0hXDtwceeKCyBuDj3XhjxCWXZJSstlrEiBEZAAAAtBhf/GLE1ltnlFx0UcS//50BAK2MAVwV5W0jzz777FhnnXWyZt8mm2ySq4hHH300VwB8lMmTIw4+OKOZc86J6NIlAwAAgBajOC5g9OiMkhkzIo4/PgMAWhkDuCqKbSMLSy+9dOy5556V9Zxafvnlc1Vso1ZlHzUAPuDEEyOeeCKj5JvfjNhttwwAAABanM9+NuLzn88oufrqiLvvzgCAVsQArooXX3yxsv3keuutl1fmXOfOnXNV3NExOVcAfJj77484/fSMkqWXjvjBDzIAAABosaqdBVcYNCgXANCKGMBVMXPmzMr7tsUpsnPpjTfeyFXEkksumSsAqpk+PeKgg5q2J2luzJjiruIMAAAAWqyNN47o1Suj5IYbms77BoDWxACuihVWWCEaGxvjmWeeyStz7h//+EeuIlZcccVcAVDNmWdG3HNPRskOO0Tst18GAAAALd7w4RHt2mWUDBwY0diYAQCtgAFcFRtuuGHl/VNPPRVPVDuMaDb86le/ylXEVlttlSsAmvvPf6ofyt2pU8S55zYd5g0AAEBtWGONiL59M0r+/vfi72UZANAKGMBV8YUvfCFXxat2hudq9hXDt7/P+qmiOEeuGOattNJK+REAyopXPx56aMTbb+eFkmHDmn5xAwAAoLYMGRLRuXNGyeDBTUcQAEBrYABXxT777PPetpGXX355nH766ZX17LjlllvigAMOyIo47rjjcgVAcz/9acR112WUbLJJxNFHZwAAAFBTunePOOqojJJHHom49NIMAKhzBnBVLL744pWhW3EOXOF73/te7LzzzvGHP/wh3q5ym8bkyZPj5ptvjt69e8eOO+4Yb7zxRuXut2222SZ6VTt5FoCYMKH6L2RtZn1nuuCC6mcGAAAAUBv6949YaqmMkqFDI6ZMyQCAOmYA9yGKwdmJJ5743hDuxhtvjC996UvRtWvX+POf/1y5VlhiiSWiS5cuscMOO8Sll14a0/M++jXWWCN+8YtfVAZxAHxQcYdbMYRrrl+/iM03zwAAAKAmdesWMXBgRslzz0WcfXYGANQxA7iPcPzxx8fPfvazypCtGMS9+1YM2d4drE2cOPF9Hyvstttuceedd8ayyy5baQDe7/rrIy67LKOkR4+IE0/MAAAAoKYdfnjESitllIwcGfHGGxkAUKcM4D7G17/+9fjPf/4To0aNig022KAyeGs+cCt06tSpMni7/vrr4/e//30sVe0eewBi0qSIQw7JaObcc4ttgDMAAACoaZ06RQwbllHyyisRY8ZkAECdMoCbDd26daucA/fggw/GhAkT4pZbbolf/epXcfnll8dvf/vbuOuuu+L111+vDN6KM+AA+HDFL1//+U9Gyb77Ruy8cwYAAAB1oXfviLXXzigZOzbipZcyAKAOGcBVUZzl9u7b+PHj82qT4s62bbbZJr785S9Xzon7whe+EJ/61Keiffv2+RkAfJh77236Jau5ZZapfh0AAIDa1q5dxIgRGSXF7ignn5wBAHXIAK6K/fffP3r37h3f/e53K+e/ATDvpk+POOigiJkz80LJ978fsdxyGQAAANSVPfeM2HzzjJJzzqm+QwoA1AMDuCoWW2yxyvt11133vTUA86YYst13X0ZJse1ksf0kAAAA9alNm4hRozJKpk2LGDo0AwDqjAFcFd27d6+8X3zxxSvvAZg3Tz5Z/Zeqzp2bXvHY0JAXAAAAqEs77hix/fYZJZdfHvHggxkAUEcM4KpYf/31o7GxMf7jHniAeTbry2kcfHDE5Ml5oWT48IhPfCIDAACAulW88LLaXXDF74yDB2cAQB0xgKvim9/8ZuX9M888E3fffXdlDcDcueyyiD/9KaOk2P//yCMzAAAAqHtbbBGxxx4ZJb/9bcStt2YAQJ0wgKti7733jk022aRyF9xhhx0Wb7/9dn4EgDkxfnxEv34ZJW3bRpx/fkS7dnkBAACAVmHEiKYz4ZobMKDpbjgAqBcGcFW0b98+rrrqqlh11VUrd8Btu+22cd999+VHAZhdxfDt1VczSo45JmLTTTMAAABoNdZbL2L//TNK/va3iGuvzQCAOmAAV8Wll14at912Wxx55JHRpUuXuOeee+JTn/pU5e2oo46Ks846Ky655JLK583OG0BrVPzi9NOfZpR88pMRQ4dmAAAA0OoUvxN27JhRMnBgxMyZGQBQ4xoai30WeZ82bdpEQ3EybEnxP1Pza7Oj+DfTp0/PYpVVVonnn38+Vl555XjuuefyKtddd11MmTIlFltssdhll13yKrRskydH3HZbxD33RNx443OznsONs57DDbHDDqvE+utHfOc7Ec8+m59ccsMNETvumAEtgK/B1DLPX2qV5y61zPOXWtaSnr/Fzihjx2aU/OQnEb16ZUCJr7/UOs/h6up5ZuAOuA9RDNzKb9Wuze4bQD0phmrFL0qzvidWBmnf+17E9devErfcsmrlfdFf+lL14dt++xm+AQAA0HS3W9euGSXHHx8xdWoGANQwA7gqevbsWTn3bX68FY8FUA+K1xOce25U7m4rXqX42mv5gdm07LIRY8ZkAAAA0KoVvyP2759R8uSTERdemAEANcwAroqbb745brrppvn2BlDrpk2L2HffiEMOiZg4MS/OoXXWiVhiiQwAAABavX79IpZbLqNk+PCISZMyAKBGGcAB8JGKO9/23z/ipz/NC3Pp1lsjevduejwAAADo0qVpy8nmXnwx4swzMwCgRhnAAfCRzjtv3odv7yoO0z7//AwAAABavb59I3r0yCg55ZSIV1/NAIAaZAAHwId69tmIY4/NmE+OOabpcQEAAKBjx6YtJ5t7442mIRwA1CoDuLkwceLEePbZZ+Pxxx+PCRMmxIwZM/IjAPXlBz+Y+zPfPkzxeGeckQEAAECr16tXxIYbZpQU21A+/3wGANQYA7jZ8M4778TFF18cX/7yl2PFFVeMJZdcMnr06BHrrLNOrLDCCtGpU6fYfPPN46ijjooHH3ww/xVAbZs8OWZ97cuYzy66qOnxAQAAoG3biJEjM0qmTKl+dxwA1AIDuI/xk5/8JFZZZZU46KCD4ne/+12MHz8+Ghsb3/c2ffr0uP/+++Oss86KTTbZJL7yla/Ei8VpsQA17LbbIl57LWM+Kx739tszAAAAaPW++MWIrbfOKLnwwohHH80AgBpiAPcRjjjiiPj2t78dr7zySqWLYduHKQ/kfvOb38TGG28cDz/8cH4UoPbcc08uFpAF/fgAAADUjoaGiNGjM0qKk1+OPz4DAGqIAdyHOOWUU+KHP/xh1qz/odq0iV122aVyl9vNN98cDz30UDz66KNxzz33xFVXXRXHHHNM5U65QsOsnxhefvnl2GmnneLVV1+tXAOoNf/+dy4WkEceyQUAAADM8tnPRnz+8xklV13lRZwA1B4DuCqee+65GD58eGWQVthiiy0qW0xee+21cdhhh0XPnj1j/fXXjzXXXDM23XTT2GuvveK0006L//znP5X37dq1q/zbF154IYYNG1Z5DIBaU+y1vyAt6McHAACg9lQ7C64waFAuAKBGGMBVcckll8TkyZMr6y233DJuuumm2GCDDSr9Udq2bVu5E664I+7d7SgvuuiieOedd/IzAGrHYovlYgFZ0I8PAABA7dl444hevTJKrr8+4s9/zgCAGmAAV0Vxp9u7zj///OjUqVPW7Pnyl78ce++9d2VdDPL+8pe/VNYAtWSddXKxgKy7bi4AAACgZPjwiHbtMkoGDoxobMwAgBbOAK6KYivJYgvJtddeu7LV5NzYc889c9X0eAC1ZvPNc7GALOjHBwAAoDatsUZE374ZJXfdFXHNNRkA0MIZwFXx6quvVt6vtNJKlfdzo3v37rmKeO2113IFUDu23jpiqaUy5rPicbfaKgMAAACaGTIkonPnjJLBgyOmT88AgBbMAK6Kbt26Vd6PHz++8n5uvPzyy7mKWHLJJXMFUDuK3Xd7986Yzw44oOnxAQAAoJrite1HHZVR8vDDEZddlgEALZgBXBWrrbZaNDY2zvqG/nA8/fTTeXXO/O53v8tV0+MB1KLil50uXTLmk65dI448MgMAAAA+RP/+1XdmGTo0YsqUDABooQzgqth5550r74sh3GGHHVZ5PyfuuOOOuCxfitOhQ4fYbrvtKmuAWrPqqhGnn54xnxSPVzwuAAAAfJRik6qBAzNKnn02Yty4DABooQzgqthvv/2iffv2lfW1114bX/7yl+PFF1+s9Mf55S9/GbvttlvMmDEjGhoa4mtf+1osvvji+VGA2lMcfL3PPhnzqHicPn0yAAAA4GMcfnjESitllJx8csSbb2YAQAtkAFfFWmutFUcdddR7d779/ve/j7XXXjsOPPDA+PnPfx7//ve/Y8KECbO+yb8Zzz//fPztb3+LsWPHxqc//enYe++944033qj8u+Lst1GjRlXWALWqoaHpF555VQzfLr646fEAAABgdhTnhw8bllHyyisRY8ZkAEALZAD3IYrB2V577fXeEG7ixIlxySWXxNe//vVYf/31Y4UVVoilllqqcr7btttuG/37949777238rmFzp07V86BW6naS3QAaswJJ+RiLhRnyJ17btMh2XlzMQAAAMy23r0j1l47o6QYwI0fnwEALYwB3Ido06ZNXHnllXHKKadEx44dK9feHcYV7z/qbYsttoi77747tt5668rnA9SyG2+MuOGGjJIOHXLxIYqDso85JuJf/2raxtKdbwAAAMyNdu0iRozIKJk0qWkrSgBoiQzgPkJxhltxZ9vTTz8965v5yZXB2rtnwzVX3OlW3B133XXXxR133BHrrrtufgSgdjU2Vj/wuvjl5777moZzp54asfPOz0XPns9W3hddXH/++YjTT49YddX8RwAAADCX9twzYvPNM0rGjYt46qkMAGhBDOBmw3LLLRcDBw6sDNaKc98ee+yx+Pvf/145++3BBx+MF198MZ577rn42c9+FjvttFP+K4Da96tfxayvdxklBx8csf76EdtvH9G/f8TRR/9z1tu9lfdFF9eLffoBAABgfmjTpjgyJqNk2rSIoUMzAKAFMYCbQx06dIg11lgjNt9888oWkxtssEEsv/zy+VGA+jF9esTgwRklnTtHDBmSAQAAAAvJjjs2veCzueLM8YceygCAFsIADoCqLr004pFHMkr69YtYccUMAAAAWEiKs8Wr3QVXHJ9Q7QWkALAoGcAB8AFTplTfwmPppZu2nAQAAIBFYYstIvbYI6PkN7+JuO22DABoAQzgAPiAs8+OeO65jJKBAyOWXDIDAAAAFoERI5rOhGtuwICmu+EAoCVoaJwl163KAQcckKsFq6GhIS688MIsVllllXj++edj5ZVXjueq/XW/lbruuutiypQpsdhii8Uuu+ySV2HReOONiDXWiHjllbyQZv1nG489FtGpU14o8Rymlnn+Uss8f6lVnrvUMs9falk9PX8PPDDioosySv7wh4jddsugrvj6S63zHK6unmcGrXYA16ZNm8pwbGGYMWNGrjCAq84XX1qSE06IOOmkjJLzz4846KCMZjyHqWWev9Qyz19qlecutczzl1pWT8/fZ56JWHvtiHfeyQtp440j7r23+h1y1DZff6l1nsPV1fPMoFV/Kypmjwv6DaCWvPRSxNixGSXFLzX7758BAAAAi9hqq0UcdlhGyQMPRFx5ZQYALEKt9g64E088MVcL3tChQ3OFO+Cq8+oHWoojjog466yMkquvjthrr4wqPIepZZ6/1DLPX2qV5y61zPOXWlZvz98JEyI++cmIt97KC6m49vDDER065AXqgq+/1DrP4epsQQnziQFcdb740hL85z8R66wTMW1aXkibbx7x978XZ1rmhSo8h6llnr/UMs9fapXnLrXM85daVo/P3+IIheIohebOPjvi0EMzqAu+/lLrPIerswUlAHWvuFm3+fCtMHr0Rw/fAAAAYFHp1y9iueUySoYPj5g0KQMAFgEDOADiwQcjLr88o2SHHSJ23DEDAAAAWpguXSKOPz6j5MUXI848MwMAFgEDOABi8OCIahsSjxqVCwAAAGih+vaN6NEjo+SUUyJefTUDABYyAziAVu7WWyN++9uMkj33jPj0pzMAAACgherYsWnLyebeeKNpCAcAi4IB3BwqDkl86aWX4plnnpntN4CWqrjrbcCAjJI2s747jBiRAQAAAC1cr14RG26YUVJsQ/n88xkAsBAZwH2MSZMmxbhx42LXXXeNZZddNhZffPFYaaWV4hOf+MRsvX3yk5/MRwJoea69NuJvf8so6d07Yt11MwAAAKCFa9s2YuTIjJIpU6rfHQcAC5oB3Ef4/e9/XxmgHX744XHDDTfEa6+9Fo2NjXP8BtASzZwZMXBgRkmxdcfQoRkAAABQI774xYitt84oufDCiEcfzQCAhcQA7kP87ne/i6985SsxYcKEDwzTGhoaKm/VfNTHAFqSK66I+Mc/MkoOPzxi1VUzAAAAoEYUf5IbPTqjZMaMiOOPzwCAhcQAropi28n9999/1jfnWd+dZ9lyyy3jxhtvjIkTJ8Yuu+zy3iBu5syZ8eabb8bDDz8cF110UfTs2fO9j/Xp06dyXty7jwHQkkydWv2XjyWWqH5XHAAAANSCz3424vOfzyi56qqIe+7JAICFwACuimKY9uqrr1buZPvMZz4TN910U3zuc5+Lzp0752f8T5cuXWKdddapDOxuvvnmuPLKK6NTp05xwQUXVIZ1xZAOoKWZ9SUqnnwyo6R//4hllskAAACAGlTtLLjCoEG5AICFwACuiuuvvz5XEaeffnp0LA5Emk177713/OIXv6jcCXfLLbfEiSeemB8BaBkmTap+APXyy0ccdVQGAAAA1KiNN47o1SujpPiT35//nAEAC5gBXBX/yEORll122di62smt6d3tJpsr7nzbY489Kh//0Y9+FNOnT8+PACx6Z5wR8dJLGSXFlpRdumQAAABADSteeNquXUZJcezCh/xJDwDmKwO4Kl555ZXK9pNrr712XvmfdqXv3JMnT87VB331q1+tvH/ttdcqW1MCtASzvrzFKadklPToEdG3bwYAAADUuDXWqP577l13RVxzTQYALEAGcFW8e8dacZZbc127ds1VxIsvvpirD1pttdVyFfHUU0/lCmDRKoZvb76ZUXLSSREdOmQAAABAHRgyJKJz54ySwYOLv/9lAMACYgBXxVJLLVV5/9Zbb1Xely233HK5inj00Udz9UGTikOW0oQJE3IFsOg891zEWWdllPzf/0V885sZAAAAUCe6d69+1vnDD0dcdlkGACwgBnBVrLXWWpXz26rdubbRRhvlKuKGG27I1QfddNNNuYpYYoklcgWw6BT730+ZklEycmRE27YZAAAAUEf69y9ebJ9RMnRo9d+RAWB+MYCrYrPNNqu8Hz9+/Ae2mdxhhx0q58MVLrzwwnjyyScr67KHHnooxo0blxWx8cYb5wpg0fj3vyMuuiij5P/9v4gvfCEDAAAA6ky3bhEDBmSUPPtsROnPdwAw3xnAVVEM2d71hz/8IVdNevToETvuuGPlDrk333wztthiixgxYkRce+21lbchQ4bENttsExMnTqwM6j7xiU/EVlttlf8aYNE4/viIGTMySkaPjllfqzIAAACgDh1+eMRKK2WUnHxy9XPSAWB+MICrYqeddoquXbtWhmyXXHJJXv2fM844Izp37lwZsL366qsxdOjQ+OIXv1h5GzVqVGUwVyg+Xnxumzb+ZwYWnbvvjrj66oyS4s63bbbJAAAAgDrVuXPTlpPNvfJKxJgxGQAwn7XqyVBxd9vMmTOz/mexxRaLc889N0466aTYddddY/LkyfmRJuuuu27l3y633HKVLgZ15bdCp06dKsO7L9jbDVjEBg3KRUlx11tx9hsAAAC0Br17R6y1VkZJMYAbPz4DAOajVj2AK+5YW2WVVeK4446rnNtW9o1vfCMGDx4cgwYNqgzTmuvZs2c89thjMXbs2Pj85z8fG264Yayzzjqx3XbbVe6Ie/zxx2PffffNzwZYNG68MeKGGzJKevWK2GijDAAAAKhz7dtHjBiRUTJpUtNWlAAwv7X6vRFfeumlGDNmTGy88cax+eabx1lnnRUTJkzIj360YpvKo446Kn73u9/FP/7xj3j44Yfjz3/+c2UA17179/wsgEWjuCF34MCMknbtIoYPzwAAAIBWYq+9IjbbLKNk3LiIp57KAID5pNUP4N7dMrJ4f//991cGaiuvvHJ85StfiV/96lcxffr0yscBas2sL2Hx979nlBx8cMQnP5kBAAAArUSbNhGjRmWUTJtW/Yw4AJgXrXoA96c//amyTWTn4iTWWd4dxk2b9V33t7/9bey1116VO9mOOOKIuPvuuysfA6gFxWsHBg/OKCm+3A0ZkgEAAACtzE47RXzucxkll10W0eyEGgCYJ616ALf99tvHpZdeWtmG8pJLLokddtghGhoaKh8rhnHF2yuvvBI/+tGP4jOf+UxssMEGcdppp8ULL7xQ+RyAlmrWl7Z45JGMkn79IlZcMQMAAABameJPf9Xugitel1/thawAMLda/RaUheIOuG9/+9txww03xNNPPx0jR46M9ddfPz/apBjGPfLIIzFgwIBYbbXVYrfddosrr7wy3nnnnfwMgJZhypTqW2csvXRE//4ZAAAA0Ep95jMRX/1qRslvfhNx220ZADCPDOCaKc5/K4ZsDz30UPz973+Pww8/PJZZZpnKx97donLGjBlx/fXXR69evWLFFVeMgw8+OG699dbKxwAWtbPPjnjuuYySgQMjllwyAwAAAFqxESOazoRrbsCAprvhAGBeGcB9hM033zzOPPPM+O9//xvXXHNN7LHHHtG+ffvKx94dxr3xxhtxwQUXRM+ePWOttdaa9c17ROUuOoBFYdaXpBg5MqNk5ZUjDjssAwAAAFq5YvOr/fbLKPnrXyP++McMAJgHBnCzoV27drH77rvHz3/+83jxxRcrZ8JtueWW7w3hivfF2xNPPBFDhw6NNdZYIz73uc/Fj3/845g0aVLlcwAWhjFjIl55JaNk2LCITp0yAAAAgMrvyh06ZJQUO8jMnJkBAHPJAG4OdevWLQ499NC47bbb4tFHH43BgwdHjx498qNNw7iZs75D33LLLXHAAQdE9+7d8yMAC9ZLL0WMHZtRsvbaEfvvnwEAAABUrLZa9d1iHngg4sorMwBgLhnAzYM111wzTjrppHjyySfjpptuit69e8cSSywRDQ0NlY8Xwzh3wAELy8knx6yvORklxfV27TIAAACA9xR3u3XtmlEyZEjE1KkZADAXDODmky222KKy7eRGG2303taUAAvLf/4Tcc45GSWbbx6x554ZAAAAwPsst1zEscdmlDz5ZMSFF2YAwFwwgJtHf/7zn2P//fePFVZYIfbbb7+49dZb37sDDmBhGTo0Ytq0jJLRo2PW16QMAAAA4AP69WsaxDU3fHj1nWYAYHYYwM2Fhx9+OAYNGhSrr7567LTTTnHZZZfFxIkTK3e+vfu2+OKLVwZzxYAOYEF68MGIyy/PKNlhh4gdd8wAAAAAqiq2oCy2nGzuxRcjzjwzAwDmkAHcbJowYUKcddZZ8elPfzo23HDDOOWUU+LZZ599b+BWKO5823777ePSSy+d9Q36xbjoooti2223rXwMYEEZPLg4czKjZNSoXAAAAAAf6eCDI1ZfPaPklFMiXn01AwDmgAHcR5g6dWr8/Oc/j9133z1WXnnlOOqoo+Lee+99b+D2rrXXXjtGjBgRTz31VPzpT3+KfffdNzp37pwfBVhwbr014re/zSgpzn379KczAAAAgI/UsWPTlpPNvfFG0xAOAOaUAVwVxTluhxxySHTv3j2+/vWvx+9///uYlocrvTt8W2KJJaJv376Vz33kkUcqW1KuuuqqlY8BLAzFl6MBAzJK2sz6yj5iRAYAAAAwW/bZJ2KDDTJKim0on38+AwBmkwFcevLJJ+PEE0+MtdZaK3r27Bnnn39+vPbaa5WB27tDtzZt2sRuu+0WV1xxRWWLyXPOOSe22mqryscAFrZrr434298ySnr3jlh33QwAAABgtrRtGzFyZEbJlCnV744DgI/Sqgdwb7zxRpx33nmxzTbbVAZvw2d9J33iiSc+sMXkBhtsEKeeemrlzLfibrivfe1r0bG4Lx1gEZk5M2LgwIyS4kvT0KEZAAAAwBz50pciqr3e/sILIx59NAMAZkOrHsCtuOKKceihh8btt9/+gaHb0ksvHYcffnjcfffd8eCDD8axxx5b+XyAluCKKyL+8Y+MkllftsJuuAAAADB3GhoiRo/OKJkxI+L44zMAYDa06gHcO++8U3n/7vCtXbt28eUvfzl++ctfxn//+98488wzY7PNNqt8DKClmDq1+g/9SyxR/a44AAAAYPb17Bmx224ZJVddFXHvvRkA8DFa/RlwxfBt0003jR/84Afx/PPPx69+9av4yle+Eu3bt8/PAGhZLrigOLcyo6R//4hllskAAAAA5lq1s+AKgwblAgA+RqsewB1zzDHxj3/8I+6555444ogjYtlll82PALRMkyZVP/h5+eUjjjoqAwAAAJgnm2wS8c1vZpRcd13ETTdlAMBHaNUDuNNOOy023HDDLICW74wzIl56KaOk2JKyS5cMAAAAYJ4VL4Bt1y6jpDj+IU+0AYAP1eq3oASoFa+8EnHKKRklPXpE9O2bAQAAAMwXa64Z0adPRsmdd0b8+tcZAPAhDOAAakQxfHvzzYySk06K6NAhAwAAAJhvih1nOnXKKCnOgpsxIwMAqjCAA6gBzz0XcdZZGSX/93/V96QHAAAA5l337tXPXH/44YjLLssAgCoM4ABqQLHv/JQpGSUjR0a0bZsBAAAAzHfHHRex1FIZJUOHVv9dHQAKBnAALdy//x1x0UUZJf/v/0V84QsZAAAAwALRrVvEgAEZJc88E3HOORkA0IwBHEALV+w3X21f+dGjIxoaMgAAAIAF5vDDI1ZaKaPk5JOrn9cOAAZwAC3Y3XdHXH11Rklx59s222QAAAAAC1Tnzk1bTjY3YULE2LEZAFBiAAfQgg0alIuS4q634uw3AAAAYOHp3TtirbUySsaMiRg/PgMAkgEcQAv15z9H3HBDRkmvXhEbbZQBAAAALBTt20eMGJFRMnGiF8oC8EEGcAAtUGNjxMCBGSXt2kUMH54BAAAALFR77RWx2WYZJePGRTz1VAYAzGIAB9ACXXNNxF13ZZQcfHDEJz+ZAQAAACxUbdpEjBqVUTJ1asSwYRkAMIsBHEALM316xODBGSXFgc9DhmQAAAAAi8ROO0V87nMZJZdeGvHQQxkAtHoGcAAtzGWXRTz8cEZJv34RK66YAQAAACwSDQ3V74IrjpPwwlkA3mUAB9CCTJkSMXRoRsnSS0f0758BAAAALFKf+UzEV7+aUfLrX0fcfnsGAK2aARxAC1Ic2vzssxklAwdGLLlkBgAAALDIjRjRdCZccwMGNN0NB0DrZgAH0EK8+WbEySdnlKy8csRhh2UAAAAALcL660fst19GyS23RFx3XQYArZYBHEALMWZMxCuvZJQMGxbRqVMGAAAA0GIUv7N36JBRUuxkM3NmBgCtkgEcQAswfnzTAK65tdeO2H//DAAAAKBFWW216rvW3H9/xFVXZQDQKhnAAbQAxdaTkyZllBTX27XLAAAAAFqc4m63rl0zSoYMiZg2LQOAVscADmARe+qpiHHjMko23zxizz0zAAAAgBZpueUijj02o+SJJyIuvDADgFbHAA5gERs6tPor4kaNimhoyAAAAABarH79mgZxzZ14YsTbb2cA0KoYwAEsQg89FHHZZRkl228fseOOGQAAAECLVmxBWWw52dyLL0aceWYGAK2KARzAIjR4cERjY0aJu98AAACgthx8cMTqq2eUnHJKxGuvZQDQahjAASwit90W8ZvfZJTssUfEFltkAAAAADWhY8eI4cMzSl5/vWkIB0DrYgAHsAgUd70NGJBR0mbWV+URIzIAAACAmrLPPhEbbJBRcsYZEc8/nwFAq2AAB7AI/PGPEX/9a0bJ/vtHrLdeBgAAAFBT2raNGDkyo2TKlIiTTsoAoFUwgANYyGbOjBg4MKOk2Kpi6NAMAAAAoCZ96UsRW22VUXLBBRGPPZYBQN0zgANYyK68MuKBBzJKDjssYrXVMgAAAICa1NAQMXp0RsmMGRHHH58BQN0zgANYiKZOjRgyJKOka9fqd8UBAAAAtadnz4jddssoKV6Ue++9GQDUNQM4gIXowgsjnnwyo6R//4hll80AAAAAal61s+AKgwblAoC6ZgAHsJBMmhQxfHhGyXLLRfTrlwEAAADUhU02ifjmNzNKrrsu4qabMgCoWwZwAAvJmWdGvPhiRkmx/3uXLhkAAABA3SheiNuuXUZJcQxFY2MGAHXJAK5OTJs2Le688874/ve/H717946tttoqVlpppejcuXO0b98+lllmmdhkk03ioIMOiuuuuy5mzpyZ/xJYGF59NeKUUzJKevSI6Ns3AwAAAKgra64Z0adPRsmdd0b8+tcZANQlA7g6MWjQoNhyyy3j6KOPjksuuSTuuOOOeOGFF2Ly5Mkxffr0ePXVV+OBBx6ICy+8MHbdddfYfPPN47777st/DSxoxfDtjTcySopXwnXsmAEAAADUnWLnm06dMkqKs+BmzMgAoO4YwNWJxmb3rC+++OKx0UYbxbbbbhvbbbddrLvuutGmzf/+333//fdHz54949Zbb80rwILy/PNN2082t+GGEb16ZQAAAAB1qXv3iKOOyih5+OGIyy7LAKDuGMDViU6dOsUXv/jFOO+88+KRRx6JiRMnVu54u/nmm+Omm26a9Q394XjxxRdj8ODB0bZt28q/KT6nV69eMWnSpEoDC0Zxl9uUKRklI0fGrP8eMwAAAIC6ddxxEUstlVEydGj1vxkAUPsM4OrESSedFL/97W+jT58+sc466+TV91tuueVixIgRcc455+SViGeeeSauuuqqLGB+e/TRiAsvzCjZeuuIL34xAwAAAKhr3bpFDBiQUfLMMxGlP9UBUEcM4Fqhgw46KNZYY42sqNwlBywYxT7v1fZzHz06oqEhAwAAAKh7hx8esdJKGSUnnxzx5psZANQNA7hWarPNNstVVLamBOa/e+6JqHaD6ec/H/HZz2YAAAAArULnzk1bTjY3YULE2LEZANQNA7hWavr06bmKWGKJJXIFzE+DBuWimeLsNwAAAKD16d07Yq21MkrGjIkYPz4DgLpgANcKTZs2LW6//fasiK222ipXwPzy5z9HXH99RkmvXhEbb5wBAAAAtCrt20eMGJFRMnGiF+wC1BsDuFZo8ODB7207ufTSS8f+++9fWQPzR2NjxMCBGSXt2kUMH54BAAAAtEp77VUcD5NRMm5cxFNPZQBQ8wzgWoFiu8kXXnghrrnmmth5553jtNNOq1xfbLHF4qc//WllCAfMP7P+U4u77soo6ds3Yo01MgAAAIBWqU2biFGjMkqmTo0YNiwDgJrX0DhLrqkjyy67bLzyyitZH7TjjjvGmDFjYqONNsorc2/s2LGVt9lRDAJnzpxZ+b/v8ssvz6tMmTIlV02DUWrXjBkNceihW8czz3TJK006dpweF13011hmmVk/Tdchz2Fqmecvtczzl1rluUst8/yllnn+thzFX2QHDPhUPPDAMnmlSUNDY4wbd1v06DExr/Auz19qnedwdfvuu29MmDAhVl555Xjuuefyan0wgKtTHzWA22abbeLYY4+N3XfffdY39Ya8OveGDRsWJ554YtbsWWaZZeLCCy/Mgvpx442rxVlnbZr1P3vt9eisbyYPZwEAAACt3aOPLhXHHdcz63+22OKFGDSoytY6AHXowAMPrMwyDOCoGV//+tfjjTfeqKzfeeedyplvjz76aOXus3dtscUWceWVV0aPHj3yytxxB9y88+qH+jB1aptZ3zC2iZdf7pRXmnTpMi0uueSWWe+n55X64zlMLfP8pZZ5/lKrPHepZZ6/1DLP35Zn+PBN4rbbVsj6n7Fj74j112/62x5NPH+pdZ7D1bkDjrrw6quvxgUXXDDrG/vwmDRpUuXaaqutFn//+99j+eWXr/SCtsoqq8Tzzz9fl/8xzYvrrruu8gW4+MK7yy675FVqzfe/H3H00Rklp54a0b9/Rp3yHKaWef5Syzx/qVWeu9Qyz19qmedvy/Ovf0X83/9FlF4zX9GzZ8TNNxdbUuYFPH+peZ7D1dXzzKBNvqcVWHrppeO4446Lv/71r9G1a9fKtWeeeSaOOeaYyhqYe2++GXHyyRklK60UcfjhGQAAAAAl668fsd9+GSW33FL8sT4DgJpkANcKbbrppjFw4MCsiCuuuKJydxww98aMiah27OKwYRGd3r8jJQAAAMB7ir8ddOiQUVL8+a75nXEA1A4DuFbqa1/7Wq4ipk+fHnfffXcWMKfGj28awDW39toRvXtnAAAAAFSx2moRhx2WUXL//RFXXZUBQM0xgGulVl111Vw1KQ45BOZOsfVkHqv4PiNGRLRrlwEAAADwIYq73fLEmPcZMiRi2rQMAGqKAVwr9cYbb+SqSbdu3XIFzImnnooYNy6jZPPNI/bcMwMAAADgIyy3XMSxx2aUPPFExIUXZgBQUwzgWqm//vWvuWqyxhpr5AqYE0OHVn8l2qhRs77A+goLAAAAzKZ+/ZoGcc2deGLE229nAFAz/Hm4FZo6dWqMKPbGS8XwbZ111skCZtdDD0VcdllGyfbbR+y4YwYAAADAbCi2oCy2nGzuxRcjzjwzA4CaYQBXB2644Ybo379/PP/883nlw73wwgvxpS99Ke677768EjFgwIBcAXNi8OCIxsaMkuLut4aGDAAAAIDZdPDBEauvnlFyyikRr72WAUBNMICrA5MmTYrTTz89Vl111dhmm21i4MCB8dOf/rQymLv11lvjuuuui3HjxkWvXr1izTXXjOuvvz7/ZcTuu+8eBx54YBYwu267LeI3v8ko2WOPiC22yAAAAACYAx07RgwfnlHy+utNQzgAaocBXB1pbGysDNxGjx4d++yzT+y8886Vgdyuu+4a3/nOd+JnP/tZvF3aMLp3795x9dVXR4NbdWCOFHe9VbtxtDjzrbS7KwAAAMAc22efiA02yCg544yI2dgAC4AWwgCuDnzqU5+Ko48+OtZff/2PHaZ16NAh9txzz/jLX/4SF110UaWBOfPHP0b89a8ZJfvvH7HeehkAAAAAc6Ft24iTT84omTIl4qSTMgBo8Qzg6sAqq6wSY8aMiX/+85/x6quvxs0331wZrp166qmzvimfFGPHjo2LL7447rjjjnjjjTfi5z//efTs2TP/NTAnZs6MGDgwo6TYImLo0AwAAACAebD77hFbbplRcsEFEY89lgFAi2YAV2e6desW2267bWV7yf79+8eQIUOiX79+sf/++8dnPvOZWGyxxfIzgblx5ZURDzyQUXLYYRGrrZYBAAAAMA+KTa5Gj84omTEj4vjjMwBo0QzgAGbT1KkRQ4ZklHTtWv2uOAAAAIC5te22EbvumlFSvDj43nszAGixDOAAZtOFF0Y8+WRGSf/+EcsumwEAAAAwn4wcmYtmBg3KBQAtlgEcwGyYNCli+PCMkuWWi+jXLwMAAABgPtp004hvfCOj5LrrIm66KQOAFskADmA2nHlmxIsvZpQU+6536ZIBAAAAMJ+ddFJEu3YZJcVxGI2NGQC0OAZwAB/j1VcjTjklo6RHj4i+fTMAAAAAFoA114w46KCMkjvvjPj1rzMAaHEM4AA+RjF8e+ONjJJiS8qOHTMAAAAAFpBiB55OnTJKirPgZszIAKBFMYAD+AjPP9+0/WRzG24Y0atXBgAAAMACtNJKEUcemVHy8MMRl12WAUCLYgAH8BGKu9ymTMkoGTkyom3bDAAAAIAF7LjjIrp1yygZOrT63y4AWLQM4AA+xKOPRlx4YUbJ1ltHfPGLGQAAAAALwVJLRQwYkFHyzDMR55yTAUCLYQAH8CGK/dWr7aM+enREQ0MGAAAAwELy3e9GdO+eUXLyyRFvvpkBQItgAAdQxT33RFx1VUbJ5z8f8dnPZgAAAAAsRJ07N2052dyECRFjx2YA0CIYwAFUMWhQLpopzn4DAAAAWFQOOCBizTUzSsaMiXj55QwAFjkDOIBm/vzniOuvzyjp1Sti440zAAAAABaB9u0jRozIKJk40QuHAVoSAziAksbGiIEDM0ratYsYPjwDAAAAYBHae++ITTfNKDn77Iinn84AYJEygAMoueaaiLvuyijp2zdijTUyAAAAABahNm0iRo3KKJk6NWLYsAwAFikDOIA0fXrE4MEZJcUBx0OGZAAAAAC0ADvvHLHddhkll14a8c9/ZgCwyBjAAaTLLot4+OGMkqOOiujePQMAAACgBWhoqH4X3MyZXkgM0BIYwAHMMmVKxNChGSVLLRXRv38GAAAAQAuy5ZYRX/lKRklxxMYdd2QAsEgYwAHMMm5cxLPPZpQMHBjRrVsGAAAAQAszYkTTmXDNDRgQ0diYAcBCZwAHtHpvvhlx8skZJSutFHH44RkAAAAALdAGG0R8+9sZJX/5S8T112cAsNAZwAGt3pgxEa+8klEybFhEp04ZAAAAAC1U8TeMDh0ySoqdfYoz4QBY+AzggFZt/PimAVxza68d0bt3BgAAAEALtvrqEd/5TkbJffdFXH11BgALlQEc0KoVW09OmpRRUuyf3q5dBgAAAEALN2hQRJcuGSVDhkRMm5YBwEJjAAe0Wk89FTFuXEbJ5ptH7LlnBgAAAEANWG65iGOPzSh5/PGIiy7KAGChMYADWq2hQ6u/AmzUqFlfHH11BAAAAGrM0UdHLLtsRsmJJ0a8/XYGAAuFPzEDrdJDD0VcdllGyfbbR+y4YwYAAABADenatWnLyeZeeCHirLMyAFgoDOCAVmnw4IjGxoyS4u63hoYMAAAAgBpzyCERq62WUTJ6dMRrr2UAsMAZwAGtzm23RfzmNxkle+wRscUWGQAAAAA1qGPHiOHDM0pefz3i1FMzAFjgDOCAVqW4623AgIyS4sy3ESMyAAAAAGrYvvtGrL9+RskZZ0T8978ZACxQBnBAq/LHP0b89a8ZJfvvH7HeehkAAAAANaxt24iRIzNKJk+OOOmkDAAWKAM4oNWYOTNi4MCMkmJrhqFDMwAAAADqwO67R2y5ZUbJ+edHPPZYBgALjAEc0GpceWXEAw9klBx2WPXDiQEAAABqVUNDxOjRGSUzZkSccEIGAAuMARzQKkydGjFkSEZJ167V74oDAAAAqHXbbhux664ZJVdcEXHffRkALBAGcECrcOGFEU8+mVHSv3/EsstmAAAAANSZamfBFQYNygUAC4QBHFD3Jk2KGD48o2S55SL69csAAAAAqEObbhrxjW9klPzxjxE335wBwHxnAAfUvTPPjHjxxYyS44+P6NIlAwAAAKBOnXRSRLt2GSXFsRyNjRkAzFcGcEBde/XViFNOySjp0SOib98MAAAAgDq25poRBx2UUXLHHRG/+U0GAPOVARxQ1049NeKNNzJKii0pO3bMAAAAAKhzxU5AnTpllBRnwc2YkQHAfGMAB9St55+POOOMjJINN4zo1SsDAAAAoBVYaaWII4/MKPnXvyIuvzwDgPnGAA6oW8X+5lOmZJSMHBnRtm0GAAAAQCtx3HER3bpllJxwQsQ772QAMF8YwAF16bHHIi64IKNk660jvvjFDAAAAIBWZKmlIgYMyCh55pmIc87JAGC+MIAD6lKxr3m1/ctHj45oaMgAAAAAaGW++92I7t0zSkaMiHjrrQwA5pkBHFB37r034sorM0o+//mIz342AwAAAKAV6tw5YujQjJIJEyLGjs0AYJ4ZwAF1Z9CgXDRTnP0GAAAA0NodcEDEmmtmlJx+esTLL2cAME8M4IC6ctNNEdddl1HSq1fExhtnAAAAALRi7ds3bTnZ3MSJXsAMML8YwAF1o7ExYuDAjJJ27SKGD88AAAAAIPbeO2LTTTNKzj474umnMwCYawZwQN349a8j7rwzo6Rv34g11sgAAAAAINq0iRg1KqNk6tSIYcMyAJhrBnBAXZgxo/rZb8XBwkOGZAAAAADwnp13jthuu4ySSy+N+Oc/MwCYKwZwQF247LKIhx/OKDnqqIju3TMAAAAAeE9DQ/W74GbO9IJmgHllAAfUvClTIoYOzShZaqmI/v0zAAAAAPiALbeM+MpXMkquuSbijjsyAJhjBnBAzTvnnIhnnskoGTgwolu3DAAAAACqGjGi6Uy45gYMiGhszABgjhjAATXtzTcjTj45o2SllSIOPzwDAAAAgA+1wQYR3/52Rslf/hJx/fUZAMwRAzigpo0dGzFhQkbJsGERnTplAAAAAPCRir+ldOiQUVLsMFScCQfAnDGAA2rW+PERY8ZklKy9dkTv3hkAAAAAfKzVV4/4zncySu67L+LqqzMAmG0GcEDNGjkyYuLEjJJi3/J27TIAAAAAmC2DBkV06ZJRMmRIxLRpGQDMFgM4oCY99VTEuHEZJZtvHrHnnhkAAAAAzLbllos49tiMkscfj7joogwAZosBHFCTin3Jp07NKBk1atYXNl/ZAAAAAObK0UdHLLtsRsmJJ0a8/XYGAB/Ln6mBmvPQQxGXXppRsv32ETvumAEAAADAHOvatWnLyeZeeCHirLMyAPhYBnBAzSl+CGxszCgp7n5raMgAAAAAYK4cckjEaqtllIweHfHaaxkAfCQDOKCm3H57xK9/nVGyxx4RW2yRAQAAAMBc69gxYvjwjJLXX4849dQMAD6SARxQM4q73gYMyCgpznwbMSIDAAAAgHm2774R66+fUXLGGRH//W8GAB/KAA6oGdddF3HLLRkl++0Xsd56GQAAAADMs7ZtI0aOzCiZPDnipJMyAPhQBnBATZg5M2LgwIySDh0ihg3LAAAAAGC+2X33iC23zCg5//yIxx7LAKAqAzigJlx1VcT992eUHHZY9UOBAQAAAJg3DQ0Ro0dnlMyYEXHCCRkAVGUAB7R406ZFDBmSUdK1a/W74gAAAACYP7bdNmLXXTNKrrgi4r77MgD4AAM4oMW78MKIJ57IKDn22IjllssAAAAAYIGodhZcYdCgXADwAQZwQIv29tsRJ56YUVIM3vr1ywAAAABggdl004hvfCOj5I9/jLj55gwA3scADmjRzjwz4sUXM0qKLSmLLSgBAAAAWPBOOimiXbuMkuJ4kMbGDADeYwAHtFivvRZxyikZJauvHnHwwRkAAAAALHBrrhlx0EEZJXfcEfGb32QA8B4DOKDFKoZvr7+eUTJ8eETHjhkAAAAALBTHHx/RqVNGSXEW3IwZGQBUGMABLdLzz0eccUZGyQYbROyzTwYAAAAAC81KK0UceWRGyb/+FXH55RkAVBjAAS1Ssa/4lCkZJSNHRrRtmwEAAADAQnXccRHdumWUnHBCxDvvZABgAAe0PI89FnHBBRklW20V8aUvZQAAAACw0C21VMSAARklzzwTcc45GQAYwAEtT7GfeLV9w0ePjmhoyAAAAABgkfjudyO6d88oGTEi4q23MgBaOQM4oEW5996IK6/MKNltt4iePTMAAAAAWGQ6d44YOjSjZMKEiLFjMwBaOQM4oEUZNCgXzRRnvwEAAADQMhxwQMSaa2aUnH56xMsvZwC0YgZwQItx000R112XUfLNb0ZsskkGAAAAAItc+/ZNW042N3GiF1IDFAzggBahsTFi4MCMknbtIoYPzwAAAACgxdh774hNN80oOfvsiKefzgBopQzggBbh17+OuPPOjJI+fapvZwAAAADAotWmTcSoURklU6dGDBuWAdBKGcABi9yMGdXPfuvUKeL44zMAAAAAaHF23jliu+0ySi69NOKf/8wAaIUM4IBF7rLLIh5+OKPkqKMiunfPAAAAAKDFaWiofhfczJkRQ4ZkALRCBnDAIjVlSsTQoRklSy0VcdxxGQAAAAC0WFtuGfGVr2SUXHNNxB13ZAC0MgZwwCJ1zjkRzzyTUTJgQES3bhkAAAAAtGgjRjSdCddc8TeexsYMgFbEAA5YZN58M+LkkzNKVlop4vDDMwAAAABo8TbYIOLb384o+ctfIq6/PgOgFTGAAxaZsWMjJkzIKCm2pOzcOQMAAACAmjBsWESHDhklAwc2nQkH0JoYwAGLxPjxEWPGZJSstVZE794ZAAAAANSM1VePOPTQjJL77ou4+uoMgFbCAA5YJEaOjJg4MaOk2C+8ffsMAAAAAGrKoEERXbpklAwZEjFtWgZAK2AAByx0Tz0VMW5cRslmm0XstVcGAAAAADVn+eUjjjkmo+TxxyMuvjgDoBUwgAMWumI/8KlTM0pGjZr1RclXJQAAAICadvTREcsum1Fy4okRb7+dAVDn/KkbWKgeeiji0kszSj73uYiddsoAAAAAoGYtsUTE4MEZJf/9b8QPf5gBUOcM4ICFqtjvu7Exo6S4+62hIQMAAACAmnbIIRGrrZZRUvwN6LXXMgDqmAEcsNDcfnvEr3+dUfLVr0Z85jMZAAAAANS8xRZr2nKyuddfjzjttAyAOmYABywUxV1vAwZklBRnvo0YkQEAAABA3fjWtyLWXz+j5Ac/iHjhhQyAOmUABywU110XccstGSX77Vf9BzEAAAAAalvbthEnn5xRMnlyxEknZQDUKQM4YIGbOTNi4MCMkg4dIoYNywAAAACg7nz5y9WPHjn//IjHH88AqEMGcMACd9VVEfffn1Fy2GHVD+MFAAAAoD40NESMHp1RMn16xAknZADUIQM4YIGaNi1iyJCMkq5dq98VBwAAAEB92W67iF12ySj52c+qv2gboB4YwAEL1IUXRjzxREbJscdGLLdcBgAAAAB1beTIXDQzaFAuAOqMARywwLz9dsSJJ2aUFIO3fv0yAAAAAKh7m20W8fWvZ5Rce23EX/6SAVBHDOCABebMMyNefDGjpNiSstiCEgAAAIDW46STItq2zSgpjilpbMwAqBMGcMAC8dprEaecklGy+uoRBx+cAQAAAECrsdZaEQcdlFFy++0Rv/1tBkCdMIADFohi+Pb66xklw4dHdOyYAQAAAECrcsIJEYstllFSnAU3Y0YGQB0wgAPmu+efjzjjjIySDTaI2GefDAAAAABanZVWijjyyIySf/4z4ic/yQCoAwZwwHxX7Oc9ZUpGyciR1ff5BgAAAKD1+N73Irp1yygp7o57550MgBpnAAfMV489FnHBBRklW20V8aUvZQAAAADQai21VNMQrrmnn44499wMgBpnAAfMV8cfX32/7tGjIxoaMgAAAABo1Y44IqJ794ySESMi3norA6CGGcAB882990ZceWVGyW67RfTsmQEAAABAq9e5c9OWk829/HLE97+fAVDDDOCA+WbQoFw0U5z9BgAAAABlBx4YscYaGSWnn940iAOoZQZwwHxx000R112XUfLNb0ZsskkGAAAAAKT27Zu2nGyu2IJy1KgMgBplAAfMs8bGiIEDM0ratYsYPjwDAAAAAJr52teqv3j7Rz+KeOaZDIAaZAAHzLNf/zrizjszSvr0iVhzzQwAAAAAaKZNm+p3u02dGjFsWAZADTKAA+bJjBnVz37r1Cni+OMzAAAAAOBD7LJLxLbbZpRccknERRdFnHpqxNixG8x626zyvugbb4yYPDk/EaAFMoAD5slll0U8/HBGyVFHRXTvngEAAAAAH6KhofpdcMWxJwceGPG970Vcf/0qccstq1beF73jjhErrxxxzDERzz6b/wCgBTGAA+balCkRQ4dmlCy1VMRxx2UAAAAAwMfYaquI3XfPmE2vvVbcGRex/voR557bNLADaCkM4IC5ds451Q/DHTAgolu3DAAAAAD4GNOmNR11MjcmTow45JCIb32r6XEAWgIDOGCuvPlmxMknZ5SstFLE4YdnAAAAAMDHKO5c23//iN//Pi/MpZ/8JKJ3b3fCAS2DARwwV4rb+ydMyCgptqTs3DkDAAAAAD7GeedF/PSnGfOoGMKdf34GwCJkAAfMsfHjI8aMyShZa62mVxkBAAAAwOx49tmIY4/NmE+OOabpcQEWJQM4YI6NHNm0t3ZzI0ZEtG+fAQAAAAAf4wc/qP53pnlRPN4ZZ2QALCIGcMAceeqpiHHjMko22yxir70yAAAAAOBjTJ4ccfHFGfPZRRc1PT7AomIAB8yRYcMipk7NKBk1atYXFF9RAAAAAJhNt90W8dprGfNZ8bi3354BsAj4czkw2x56KOLSSzNKPve5iJ12ygAAAACA2XDPPblYQBb04wN8FAM4YLYNGRLR2JhRUtz91tCQAQAAAACz4d//zsUC8sgjuQBYBAzggNlS3LL/619nlHz1qxGf+UwGAAAAAMymKVNysYAs6McH+CgGcMDHKu56GzAgo6Q4823EiAwAAAAAmAOLLZaLBWRBPz7ARzGAAz7WdddF3HJLRsl++0Wsv34GAAAAAMyBddbJxQKy7rq5AFgEDOCAjzRzZsSgQRklHTpEDBuWAQAAAABzaPPNc7GALOjHB/goBnDAR7r66oj77ssoOeywiNVWywAAAACAObT11hFLLZUxnxWPu9VWGQCLgAEc8KGmTYsYMiSjpGvXiIEDMwAAAABgLnTqFNG7d8Z8dsABTY8PsKgYwAEf6qKLIh5/PKPk2GMjllsuAwAAAADm0lFHRXTpkjGfFC8eP/LIDIBFxAAOqOrttyNOPDGjpBi89euXAQAAAADzYNVVI04/PWM+KR6veFyARckADqjqrLMiXngho6TYkrJ4FREAAAAAzA99+0bss0/GPOrVK6JPnwyARcgADviA116LGD06o2T11SMOPjgDAAAAAOaDhoaIiy+eP0O4zTdvejyARc0ADviAU0+NeP31jJLhwyM6dswAAAAAgPmkffuIyy6LOPfceTsT7oQTIp5+OgNgETKAA97nv/+NOOOMjJINNph/WwEAAAAAQHPFnWvFdpT/+lfEMcdELLVUfuBDdOqUi5JJkyIOPTSisTEvACwiBnDA+5x0UsTkyRklI0dGtG2bAQAAAAALyKqrRpx+esTzz0fceGPTbk077/xc9Oz5bOV90cX1F1+M2Hjj/Ecl114bccUVGQCLiAEc8J7HHos4//yMkq22ivjSlzIAAAAAYCEo7nDbfvuI/v0jjj76n7Pe7q28L7q4vsQSTX/LalPlr9xHHhnxyisZAIuAARzwnmKP7BkzMkpGj3Z4LQAAAAAtz6c/HXHEERklL78cceyxGQCLgAEcUHHffdVvzd9tt4iePTMAAAAAoIUpjlRZffWMkksuifjTnzIAFjIDOKBi0KBcNFOc/QYAAAAALVWXLhHjxmU0c/DBEW+/nQGwEBnAAXHzzRF//GNGyTe/GbHJJhkAAAAA0EIVuzj16pVR8uSTESeemAGwEBnAQSvX2BgxcGBGSbt2EcOHZwAAAABAC/f970csvXRGyZgxTcevACxMBnDQyv3mNxF33JFR0qdPxJprZgAAAABAC7f88hFjx2aUzJjR9Leu6dPzAsBCYAAHrVjxw0e1s986dYo4/vgMAAAAAKgR3/52xI47ZpTcc0/EmWdmACwEBnDQil1+ecS//pVRctRREd27ZwAAAABAjWhoiDjnnKYXmDdXvOD8P//JAFjADOCglXrnnYgTTsgoWWqpiOOOywAAAACAGrPGGhEnnphR8vbbEYccEtHYmBcAFiADOGililcCPfNMRsmAARHdumUAAAAAQA3q1y9i000zSq6/PuInP8kAWIAM4KAVeuutiBEjMkpWWini8MMzAAAAAKBGtWsXcf75EW2q/AW8GM5NmJABsIAYwEErNHZs9R8yhg6N6Nw5AwAAAABq2OabNw3bmiv+Lnb00RkAC4gBHLQyL78ccfrpGSVrrRXRu3cGAAAAANSB4iy4Hj0ySi67LOK66zIAFgADOGhlRo6MmDgxo6TYkrJ9+wwAAAAAqAOLLx5x7rkZzRxySMSkSRkA85kBHLQiTz8dcfbZGSWbbRax114ZAAAAAFBHdt454lvfyih56qmmI1kAFgQDOGhFhg2LmDo1o2TUqFlfDHw1AAAAAKBOjR0bseyyGSXf/37EPfdkAMxH/uQOrcQ//xlx6aUZJZ/7XMROO2UAAAAAQB0qhm/FsK25mTMj+vSJmD49LwDMJwZw0EoMGdL0A0Vzxd1vDQ0ZAAAAAFCn9tknYpddMkruu6/6cA5gXhjAQStwxx0R11yTUfLVr0Z85jMZAAAAAFDHihehjxsX0blzXig54YSIJ57IAJgPDOCgzjU2RgwYkFFSnPk2YkQGAAAAALQCn/hExEknZZRMmRJx8MFNf0sDmB8M4KDOXX99xF/+klGy334R66+fAQAAAACtxBFHRGy+eUbJjTdGXHppBsA8MoCDOlac+TZwYEZJhw4Rw4ZlAAAAAEAr0q5dxAUXRLRtmxdKjj46Yvz4DIB5YAAHdezqq5sOkW3usMMiVlstAwAAAABamU02iTjmmIySV1+N6NcvA2AeGMBBnZo2LWLIkIySrl2r3xUHAAAAAK3J0KERn/xkRslPfxpx7bUZAHPJAA7q1EUXRTz+eEZJ8cqe5ZbLAAAAAIBWqnPniPPOy2jmkEMiJk7MAJgLBnBQh95+O+LEEzNKll22aR9rAAAAACBihx0i9t8/o+SZZyKOPz4DYC4YwEEdOuusiBdeyCgptqQstqAEAAAAAJqcfnr1HaPOPDPi73/PAJhDBnBQZ157LWL06IyS1VZrunUeAAAAAPifZZaJOOOMjJKZMyMOOihi2rS8ADAHDOCgzpx6asTrr2eUDB8e0bFjBgAAAADwnm98I2K33TJK/vGPpjvkAOaUARzUkf/+t/qrddZfP2LffTMAAAAAgPdpaIgYNy5i8cXzQsmJJ0Y89lgGwGwygIM6ctJJEZMnZ5SMHBnRtm0GAAAAAPABq68ecfLJGSXvvBNx8MERjY15AWA2GMBBnShehXP++RklW24ZsfvuGQAAAADAhzr88IgttsgouemmiIsvzgCYDQZwUCdOOCFixoyMktGjm26hBwAAAAA+WrGLVPEi93bt8kLJscdGvPRSBsDHMICDOnDffRFXXJFRsuuuEdtumwEAAAAAfKyNNoro3z+j5LXXIo48MgPgYxjAQR0YNCgXzRRnvwEAAAAAc+b44yPWXDOj5MorI373uwyAj2AABzXu5psj/vjHjJJvfCNi000zAAAAAIDZ1qlTxHnnZTRz6KERb72VAfAhDOCghjU2RgwcmFFS7FF90kkZAAAAAMAc+9znIg48MKPkueciBg/OAPgQBnBQw37zm4g77sgoOeig6rfIAwAAAACz77TTIlZYIeP/t3cfYHJVZQOAvySkAKEkQOhFpEnHBoh0KTZAmkqRmtCL9Ca9BgihQ0IVEEQEpIg06SAiIgL+ICA10otAIAWyP+fu2XCzbJLN7uzuzOz7Ps999nxn7kx2b765O3u/e84pOeuslq/LATRRgIMa9dlnLa/9lobHpzmqAQAAAID2GTAg4owzclCSZqYaPDhi3LjcAdCMAhzUqMsvj/jXv3JQstdeEfPMkwMAAAAAoF022yziRz/KQcmTT0YMHZoDgGYU4KAGjR0bcfjhOSiZddaIAw7IAQAAAADQbj16RJxzTkT//rmj5JhjIp55JgcAJQpwUIPOOy/i5ZdzUHLQQY3D4gEAAACAypl//ogTTshBSZqCcsiQiAkTcgdApgAHNebDDyOOPTYHJXPPHbHHHjkAAAAAACpql10iVlopByX33htx4YU5AMgU4KDGDBsW8fbbOSg54oiIGWbIAQAAAABQUb16RYwcGdG7d+4o2X//iNdeywHA5xTgoIa89VbEKafkoGSRRSK23z4HAAAAAECHWHrpiAMPzEHJ//4XseeeOQD4nAIc1JDjj4/46KMclKQpKVu68wYAAAAAqKxDD41YfPEclFxzTcQf/pADoNtTgIMa8dJLEeeck4OSFVaI2GyzHAAAAAAAHapfv8apKFuy224RH3yQA6BbU4CDGnHkkRHjxuWg5IQTPn8jeycDAAAAQKdZddWIIUNyUDJqVMTBB+cA6NZctoca8NRTEb/+dQ5K1lgjYt11cwAAAAAAdJqTToqYe+4clJx7bsSDD+YA6LYU4KAGHHZYxIQJOShJo9969MgBAAAAANBpZp014swzc1DS0BCx444RY8fmDqBbUoCDKveXv0Rcf30OSjbaKGKllXIAAAAAAHS6jTeO2HDDHJT83/9FnHhiDoBuSQEOqli6W+agg3JQktZ8O/bYHAAAAAAAXSLNTnX22REzz5w7So4/vrEQB3RPCnBQxW67LeKee3JQ8otfRCy1VA4AAAAAgC4z77wtj3YbNy5i8OCWl5YB6p8CHFSp9Iv54INzUNKnT8SRR+YAAAAAAOhyO+0UscoqOSh54IGIESNyAHQrCnBQpX73u4jHHstBya67Riy4YA4AAAAAgC6XloxJhbbevXNHyYEHRowalQOg21CAqyPvv/9+XHfddbHnnnvGaqutFnPNNVf07ds3+vfvHwsssED8+Mc/juHDh8d7772Xn0G1Gj8+4rDDclDy+X9lHHJIDgAAAACAqrHkki1fu/vgg4jdd88B0G0owNWBp59+uiiuzTnnnLHxxhvHmWeeGffdd1+88cYbMW7cuBg9enS88sorcdNNN8Uvf/nLmG+++YpCXENDQ34FusInn0TceWfE0KERw4Yt9fn29eJrig84IOK55/KOJfvtFzHHHDkAAAAAAKpKWlLma1/LQcn110dce20OgG5BAa4OPPnkk0VxLRXbmvTq1SsWX3zxYiTcKqusEgMHDsyPRHz88cdFIW7w4MGKcF3glVci9t23cXHW732vcQj6bbfNF/feO3/xNcXDh+edS2afPWKffXIAAAAAAFSdvn0jRo7MQTNpFNz77+cAqHsKcHVkuummi4022iiuv/76ePfdd4uRcffcc0/cf//98fbbbxf986aqT3bhhRfGeeedlyM6Wqp1nn9+41D0YcMipnUm0EMPjZhpphwAAAAAAFVplVUidtklByWvvRZx0EE5AOqeAlwd6N27d+y4447x/PPPF2vAbbjhhjHzzDPnRxv16NGj6H/ooYeKteGaHH744TE+LThGh0qHeKutInbeOeKjj3LnNHr44cbXAQAAAACq2wknRMwzTw5K0g36992XA6CuKcDVgVRYGzlyZCywwAK5Z/Lmn3/+OOqoo3IUxci4e++9N0d0hDTybdttI37zm9zRRlddFbHddo2vBwAAAABUr1lmiTj77Bw0M2RIxJgxOQDqlgJcN/TjH/84txqlqSrpOCNGtL/41uSKKyY/hzQAAAAAUD022ihik01yUJIuxx5/fA6AuqUA1w0NHDgwtxp98MEHuUWlvfJKxH775aBC9t238XUBAAAAgOp25pmNo+GaO/HEiKeeygFQlxTguqGXXnoptxoNGjQot6i04cPbvubb5KTXO/30HAAAAAAAVWvuuSOGDs1ByfjxEYMHR0yYkDuAuqMA1w1de+21udVopZVWyi0q6ZNPIi6+OAcVdtFFja8PAAAAAFS3HXeMWHXVHJQ89FDEuefmAKg7CnDdzP/+9784vTR8atlll42llloqR1TSgw9GvPdeDiosvW76BQ0AAAAAVLeePSNGjIjo0yd3lBx8sOVmoF4pwHUz++67b7z++us5ijj22GNzi0p79NHc6CAd/foAAAAAQGUssUTEYYfloOTDDyN22y2ioSF3AHWjR8Pncps6d9FFF8UOO+yQo4if/vSncdVVV+Wo7YYNG1ZsrfHaa6/FhAkTYvbZZ4/LL78899anYcOWittumy9Hlbfuuq/GPvtYqZXqMGbMmNyK6NevX25BbZC/1DL5S62Su9Qy+Ustk7/UsnrI3/Hje8Tuu68cL700U+75wiGH/CNWW+2NHFGPnINbttVWW8Xbbyy1uL8AAEuqSURBVL8d8847b7z66qu5tz4owHUT9913X6yzzjoxduzYIv7KV74Sjz32WMwyyyxF3B5HHnlkHHXUUTlqndlmmy0uvPDCHNWnYcO+HvfeO3+OKm+11V6Jffb5e44AAAAAgGr3zDMD4qCDVo2Ghh65p9Gss46Js876c/TvPz73QPeQBg298847CnDUpscffzxWX331Yv23ZNCgQUVBbrHFFivi9jICrmVGwNGduIOHWiZ/qWXyl1old6ll8pdaJn+pZfWUv+ecs0TccMOCOfrC+uu/Gnvv7XpfvXIObpkRcNSsZ555JlZbbbV48803i3jAgAFx1113xXLLLVfEnW2++eaLUaNG1eWbqbmhQyMOPDAHHSC9/v775wC62K233lp8iEgfHtZbb73cC7VB/lLL5C+1Su5Sy+QvtUz+UsvqKX/Tum9LLhnR0uXRu++OWH31HFBXnINbVs81g575K3XohRdeiO9973sTi2/9+/ePW265pcuKb93NN76RGx2ko18fAAAAAKi8mWZKo+By0MzgwWmkVA6AmqYAV6dSpXjttdeeWDGefvrp46abbooVV1yxiOl43/lOGnGYgwpLr7vyyjkAAAAAAGrKj38csfnmOSh59tmIY47JAVDTFODq0BtvvFGMfEsj4JK+ffvG9ddfX6wDR+eZfvqI7bbLQYVtv33j6wMAAAAAten00yNmnTUHJWnpmX/+MwdAzVKAqzPvvvturLPOOsXab0nv3r3j6quvjnXXXbeI6Vx7752m/sxBhaQh6nvtlQMAAAAAoCbNNVfEKafkoOTTTxunovzss9wB1CQFuDrywQcfFIs3PvHEE0Xcq1evuOKKK2KDDTYoYjrf/PO3/Eu0PdLrpdcFAAAAAGpbmulqjTVyUPLXv0acfXYOgJqkAFcnPv744/jhD38Yf/vb34q4Z8+ecfHFF8dmm21WxHSdIUMittwyB+2UXifd/QIAAAAA1L4ePSJGjEjLCOWOkkMOiXj55RwANUcBrg6MHTs2Ntxww7j//vuLuMfnZ+0Rn5+1t9566yKma6Vfohdf3P4iXHp+ep30egAAAABAfVh00YgjjshByejREbvsEtHQkDuAmqIAVwdOP/30uOOOO3KUFu6cNX73u9/F+uuv36rt1FNPzc+ko/TuHXHZZRHnnz/ta8Kl/dPz0vPT6wAAAAAA9WW//SKWXTYHJX/8Y8Rvf5sDoKYowNWBNP1k2XvvvRe33nprq7emNePoWGnkWpqO8l//ith334gBA/IDk5EeT/ul/dPzjHwDAAAAgPqUbrwfObLla4B77RXx7rs5AGqGAhx0svnnjzjllIhRoyLuvDNi6NCIddd9NVZb7ZXia4pTf3o87Zf2BwAAAADq27e/HbHnnjkoefPNxhFyQG1RgKsDRx55ZDQ0NLR5u+SSS/Ir0Zmmnz5irbUi9t8/Yp99nvp8+3vxNcWpPz0OAAAAAHQfxx4bscACOSi5+OLGm/aB2qEABwAAAAAAVaB//4hzz81BMzvtFPHJJzkAqp4CHAAAAAAAVIkf/CDi5z/PQcnzz0ccdVQOgKqnAAcAAAAAAFVk+PCIgQNzUHLKKRH/+EcOgKqmAAcAAAAAAFVk0KCIU0/NQclnn0UMHtz4FahuCnAAAAAAAFBlttkmYu21c1Dyt79FnHFGDoCqpQAHAAAAAABVpkePiPPOi+jXL3eUHHZYxIsv5gCoSgpwAAAAAABQhRZZJOKoo3JQ8vHHETvvHNHQkDuAqqMABwAAAAAAVWqffSKWXz4HJbfeGvGb3+QAqDoKcAAAAAAAUKWmmy7iggsierZwNX/vvSPefjsHQFVRgAMAAAAAgCr2jW80FtuaS8W3fffNAVBVFOAAAAAAAKDKHX10xEIL5aDk17+OuP32HABVQwEOAAAAAACq3IwzRpx3Xg6a2WmniNGjcwBUBQU4AAAAAACoAeutF7HVVjkoeeGFiCOPzAFQFRTgAAAAAACgRgwbFjHbbDkoSf1//3sOgC6nAAcAAAAAADVijjkiTjstByUTJkTsuGPEp5/mDqBLKcABAAAAAEANSdNQrrNODkoeeyxi+PAcAF1KAQ4AAAAAAGpIjx4R550XMf30uaPk8MMj/vOfHABdRgEOAAAAAABqzMILRxxzTA5KPvkkYqedIhoacgfQJRTgAAAAAACgBu21V8Q3vpGDkjvuiLjsshwAXUIBDgAAAAAAatB000WMHBnRq1fuKNlnn4i33soB0OkU4AAAAAAAoEatsEJjsa25d96J+OUvcwB0OgU4AAAAAACoYUce2bgmXHNXXBHxpz/lAOhUCnAAAAAAAFDDZpgh4vzzc9DMzjtHfPRRDoBOowAHAAAAAAA17nvfi9hmmxyUvPRSxOGH5wDoNApwAAAAAABQB049NWKOOXJQcvrpEY88kgOgUyjAAQAAAABAHZhttojhw3NQMmFCxODBEePH5w6gwynAAQAAAABAnfj5zyPWXz8HJY8/HjFsWA6ADqcABwAAAAAAdaJHj4hzz42YYYbcUXLkkRHPPZcDoEMpwAEAAAAAQB1ZaKGI447LQcmYMRE77RTR0JA7gA6jAAcAAAAAAHVmjz0ivvWtHJT8+c8Rl1ySA6DDKMABAAAAAECd6dUrYuTIxq/N7btvxBtv5ADoEApwAAAAAABQh5ZbLmL//XNQ8t57EXvvnQOgQyjAAQAAAABAnTr88IhFFslByVVXRdx8cw6AilOAAwAAAACAOjX99BEjRuSgmV12ifjwwxwAFaUABwAAAAAAdWzNNSO23z4HJa+8EnHYYTkAKkoBDgAAAAAA6tzJJ0cMGpSDkjPPjHj44RwAFaMABwAAAAAAdW7gwIgzzshBSUNDxODBEePH5w6gIhTgAAAAAACgG9h884gf/jAHJU880ThCDqgcBTgAAAAAAOgGevSIOOeciP79c0fJ0UdH/PvfOQDaTQEOAAAAAAC6iQUWiDj++ByUjB0bMWRIxIQJuQNoFwU4AAAAAADoRnbdNWLFFXNQcs89ERddlAOgXRTgAAAAAACgG+nVK2LkyIjppssdJfvvH/H66zkA2kwBDgAAAAAAuplllok48MAclLz/fsSee+YAaDMFOAAAAAAA6IYOOyxiscVyUPK730XccEMOgDZRgAMAAAAAgG6oX7+IESNy0ExaJ+6DD3IATDMFOAAAAAAA6KZWXz1i8OAclIwaFXHIITkAppkCHAAAAAAAdGNDh0bMNVcOSs45J+Khh3IATBMFOAAAAAAA6MZmnTXizDNzUNLQ0Dg6bty43AG0mgIcAAAAAAB0c5tsErHBBjkoeeqpiJNOygHQagpwAAAAAADQzfXoEXH22REzzZQ7So49NuL//i8HQKsowAEAAAAAADHffBEnnpiDkjQF5ZAhERMm5A5gqhTgAAAAAACAws47R3znOzkouf/+iJEjcwBMlQIcAAAAAABQ6NmzsdDWu3fuKDnggIj//jcHwBQpwAEAAAAAABMtuWTEwQfnoOSDDyL22CMHwBQpwAEAAAAAAJM45JCIJZbIQcm110Zcd10OgMlSgAMAAAAAACbRt+/k13zbbbeI//0vB0CLFOAAAAAAAIAv+e53I3beOQclr70WcdBBOQBapAAHAAAAAAC06MQTI+aZJwcl550Xcf/9OQC+RAEOAAAAAABo0SyzRJx1Vg6aGTw4YuzYHACTUIADAAAAAAAm6yc/adyae/rpiBNOyAEwCQU4AAAAAABgitIouJlnzkHJ8cdHPPVUDoCJFOAAAAAAAIApSuvADR2ag5Lx4yOGDImYMCF3AAUFOAAAAAAAYKrSmm+rrpqDkgcfjDjvvBwABQU4AAAAAABgqnr2jBgxIqJPn9xRctBBEa++mgNAAQ4AAAAAAGidJZaIOPTQHJR8+GHEbrtFNDTkDujmFOAAAAAAAIBWS6PdlloqByU33BDx+9/nALo5BTgAAAAAAKDV0hSUI0dG9OiRO0r22CPivfdyAN2YAhwAAAAAADBNVl45Ytddc1Dy+usRBx6YA+jGFOAAAAAAAIBpdvzxEfPOm4OSNDrunntyAN2UAhwAAAAAADDNZp454pxzctDMkCERY8bkALohBTgAAAAAAKBNNtggYtNNc1Dy739HHHdcDqAbUoADAAAAAADa7MwzI2adNQclJ54Y8cQTOYBuRgEOAAAAAABos7nmijj55ByUfPppxODBEZ99ljugG1GAAwAAAAAA2mWHHSJWXz0HJQ8/PPl14qCeKcABAAAAAADt0qNHxIgREX375o6SQw6JeOWVHEA3oQAHAAAAAAC022KLRfzqVzko+eijiF13jWhoyB3QDSjAAQAAAAAAFbH//hHLLJODkptuirj66hxAN6AABwAAAAAAVESfPhEjRzZOSdncnntGvPtuDqDOKcABAAAAAAAVs+KKEXvskYOSN99sHCEH3YECHAAAAAAAUFHHHhsx//w5KLnoooi77soB1DEFOAAAAAAAoKJmmini3HNz0MyQIRGffJIDqFMKcAAAAAAAQMX98IcRP/tZDkqeey7i6KNzAHVKAQ4AAAAAAOgQw4dHDBiQg5KTT454/PEcQB1SgAMAAAAAADrEnHNGnHpqDko++yxi8ODGr1CPFOAAAAAAAIAOs+22EWutlYOSRx6JOPPMHECdUYADAAAAAAA6TI8eEeefH9GvX+4oOeywiJdeygHUEQU4AAAAAACgQy2ySMQRR+SgZPToiF12iWhoyB1QJxTgAAAAAACADrfvvhHLLZeDkltuibjyyhxAnVCAAwAAAAAAOlzv3hEXXBDRs4XKxN57R7zzTg6gDijAAQAAAAAAneKb34zYa68clLz1VuMIOagXCnAAAAAAAECnOfroiAUXzEHJpZdG3HFHDqDGKcABAAAAAACdpn//iPPOy0EzO+0U8fHHOYAapgAHAAAAAAB0qvXXj9hyyxyU/Oc/EUcemQOoYQpwAAAAAABApzvttIjZZstBybBhEY89lgOoUQpwAAAAAABAp5tjjsZiW3OffRax444Rn36aO6AGKcABAAAAAABdYuutI9ZZJwclf/97xOmn5wBqkAIcAAAAAADQJXr0iDjvvIjpp88dJYcfHvHCCzmAGqMABwAAAAAAdJmFF444+ugclHz8ccTOO0c0NOQOqCEKcAAAAAAAQJfae++Ir389ByW33RZx+eU5gBqiAAcAAAAAAHSp6aaLGDkyolev3FHyy19GvPVWDqBGKMABAAAAAABdLo2AS8W25t55J2KffXIANUIBDgAAAAAAqApHHRXxla/koCRNQ3nrrTmAGqAABwAAAAAAVIUZZog4//wcNLPzzhGjR+cAqpwCHAAAAAAAUDXWWSfiF7/IQcmLL0YcfngOoMopwAEAAAAAAFXl1FMjZp89ByXDh0f87W85gCqmAAcAAAAAAFSVVHxLxbbmJkyIGDw4Yvz43AFVSgEOAAAAAACoOltsEbHeejko+cc/Ik47LQdQpRTgAAAAAACAqtOjR8R550XMMEPuKDniiIjnnssBVCEFOAAAAAAAoCottFDEscfmoGTMmIidd45oaMgdUGUU4AAAAAAAgKq1554R3/xmDkruvDPi0ktzAFVGAQ4AAAAAAKhavXpFXHBB49fm9t034s03cwBVRAEOAAAAAACoasstF7HffjkoeffdiL33zgFUEQU4AAAAAACg6h1xRMRXv5qDkiuvjLjllhxAlVCAAwAAAAAAqt7000eMGJGDZnbeOeKjj3IAVUABDgAAAAAAqAlrrRWx3XY5KHn55YjDDssBVAEFOAAAAAAAoGacckrEoEE5KDnjjIi//jUH0MUU4AAAAAAAgJoxcGDE6afnoKShIWLHHSPGj88d0IUU4AAAAAAAgJry059G/OAHOSh54onGEXLQ1RTgAAAAAACAmtKjR8S550bMOGPuKDnqqIhnn80BdBEFOAAAAAAAoOYssEDE8cfnoGTs2IghQxqnpISuogAHAAAAAADUpN12i1hxxRyU3H13xEUX5QC6gAIcAAAAAABQk3r1ihg5MmK66XJHyX77Rbz+eg6gkynAAQAAAAAANWuZZSIOOCAHJe+/H7HXXjmATqYABwAAAAAA1LRf/Spi0UVzUHL11RE33ZQD6EQKcAAAAAAAQE3r169xKsqW7LJLxIcf5gA6iQIcAAAAAABQ81ZfPWLHHXNQ8uqrEYcckgPoJApwAAAAAABAXRg6NGLOOXNQcvbZEQ89lAPoBApwAAAAAABAXRgwIOLMM3NQ0tAQMXhwxLhxuQM6mAIcAAAAAABQNzbdNOLHP85ByVNPNY6Qg86gAAcAAAAAANSNHj0ap5zs3z93lBxzTMTTT+cAOpACHAAAAAAAUFfmnz/ixBNzUJKmoBwyJGLChNwBHUQBDgAAAAAAqDu77BKx8so5KLnvvogLLsgBdBAFOAAAAAAAoO707BkxcmRE7965o+SAAyJeey0H0AEU4AAAAAAAgLq01FIRBx2Ug5L//S9ijz1yAB1AAQ4AAAAAAKhbhxwSsfjiOSj5/e8jrr8+B1BhCnAAAAAAAEDd6tevcSrKluy2W+NoOKg0BTgAAAAAAKCurbpqxE475aDkv/+NOPjgHEAFKcABAAAAAAB176STIuaeOwcl554b8cADOYAKUYADAAAAAADq3iyzRJx1Vg6aGTw4YuzYHEAFKMABAAAAAADdwsYbR2y0UQ5K/u//Ik48MQdQAQpwAAAAAABAt5FGwc08cw5Kjjsu4l//ygG0kwIcAAAAAADQbcw7b+N6cM2NH984FeWECbkD2kEBDgAAAAAA6FaGDIn47ndzUPLggxHnn58DaAcFOAAAAAAAoFvp2TNixIiIPn1yR8mBB0aMGpUDaCMFOAAAAAAAoNv52tciDjkkByUffhix++45gDZSgAMAAAAAALqlgw5qLMQ1d/31EddemwNoAwU4AAAAAACgW+rbN+KCCyJ69MgdJbvtFvH++zmAaaQABwAAAAAAdFvf+U7ELrvkoOT11xvXg4O2UIADAAAAAAC6tRNOiJh33hyUjBgRce+9OYBpoAAHAAAAAAB0azPPHHH22TloZsiQiDFjcgCtpAAHAAAAAAB0extuGLHJJjkoeeaZiOOPzwG0kgIcAAAAAADA5848M2KWWXJQcuKJEU8+mQNoBQU4AAAAAACAz809d8TJJ+egZPz4iMGDIz77LHfAVCjAAQAAAAAAZDvsELHaajko+ctfIs49NwcwFQpwAAAAAAAAWc+eESNGRPTtmztKDj444pVXcgBToAAHAAAAAABQsvjiEYcdloOSjz6K2G23iIaG3AGToQAHAAAAAADQzAEHRCy9dA5Kbrwx4pprcgCToQAHAAAAAADQTJ8+ERdcENGjR+4o2WOPiPfeywG0QAEOAAAAAACgBSuuGLH77jkoeeONiP33zwG0QAEOAAAAAABgMo47LmL++XNQcuGFEXffnQNoRgEOAAAAAABgMmaaKeKcc3LQzJAhEZ98kgMoUYADAAAAAACYgh/9KGLzzXNQ8uyzEccemwMoUYADAAAAAACYijPOiBgwIAclQ4dG/POfOYBMAQ4AAAAAAGAq5pwz4pRTclDy6acRO+4Y8dlnuQM+pwAHAAAAAADQCtttF7HmmjkoeeSRiLPOygF8TgEOAAAAAACgFXr0iDj//Ii+fXNHyaGHRrz0Ug7o9hTgAAAAAAAAWmnRRSOOOCIHJaNHR+y6a0RDQ+6gW1OAAwAAAAAAmAb77Rex7LI5KPnjHyN++9sc0K0pwAEAAAAAAEyD3r0jLrggomcLVZY994x4550c0G0pwAEAAAAAAEyjb32rsdjW3FtvNY6Q++STiDvvjBg6NGLYsKU+375efE1x6k+PU78U4AAAAAAAANrgmGMiFlwwByWXXBIx55wR3/texIEHRtx223xx773zF19TnPrnnTdi330jXnklP4m6ogAHAAAAAADQBv37R5x7bg6a+fDD3JiM995LI+Millwy4vzzIxoa8gPUBQU4AAAAAACANvr+9yN+9rMctMFHH0XsvHPE1ltHjB+fO6l5CnAAAAAAAABtlEaujRuXg3a44oqI7bYzEq5eKMABAAAAAAC00YgREddem4N2SkW4kSNzQE1TgAMAAAAAAGiDV16J2G+/HFTIvvs2vi61TQEOAAAAAACgDYYPb1zDrZLS651+eg6oWQpwAAAAAAAA0+iTTyIuvjgHFXbRRY2vT+1SgAMAAAAAAJhGDz4Y8d57Oaiw9LoPPZQDapICHAAAAAAAwDR69NHc6CAd/fp0LAU4AAAAAACAafTMM7nRQZ5+OjeoSQpwAAAAAAAA02jMmNzoIB39+nQsBTgAAAAAAIBp1K9fbnSQjn59OpYCHAAAAAAAwDRafPHc6CBLLJEb1CQFOAAAAAAAgGn0jW/kRgfp6NenYynAAQAAAAAATKPvfCdiwIAcVFh63ZVXzgE1SQEOAAAAAABgGk0/fcR22+WgwrbfvvH1qV0KcAAAAAAAAG2w994R/fvnoEJmmilir71yQM1SgAMAAAAAAGiD+eePOOWUHFRIer30utQ2BTgAAAAAAIA2GjIkYsstc9BO6XUGD84BNU0BDgAAAAAAoI169Ii4+OL2F+HS89PrpNej9inAAQAAAAAAtEPv3hGXXRZx/vnTviZc2j89Lz0/vQ71QQEOAAAAAACgndLItTQd5b/+FbHvvhEDBuQHJiM9nvZL+6fnGflWXxTgAAAAAAAAKmT++SNOOSVi1KiIO++MGDo0Yt11X43VVnul+Jri1J8eT/ul/ak/CnAAAAAAAAAVNv30EWutFbH//hH77PPU59vfi68pTv3pceqXAlydeeutt+KWW26Jo48+OjbYYIOYe+65o0ePHhO3Sy65JO8JAAAAAABAR1CAqxOvv/56LLTQQjFo0KD4wQ9+EEcccUTceOONRT8AAAAAAACdRwGuTowZMyZeeumlHAEAAAAAANBVFODq0BxzzBHrr79+HHbYYfGHP/wh9wIAAAAAANAZFODqxMCBA+N3v/tdvPjii/Hmm28W68Adc8wxxTpwAAAAAAAAdB4FuDox88wzx6abbhoLLrhg7gEAAAAAAKArKMABAAAAAABABSnAAQAAAAAAQAUpwAEAAAAAAEAFKcABAAAAAABABSnAAQAAAAAAQAX1aPhcblOnevTokVsRF198cWy77bY5qoxhw4YVW2u89tprMWHChJh99tnj8ssvz72MGTMmtyL69euXW1A75DC1TP5Sy+QvtUruUsvkL7VM/lLL5C+1Tg63bKuttoq333475p133nj11Vdzb31QgOsGOroAd+SRR8ZRRx2Vo9aZbbbZ4sILL8wRAAAAAADQ3eywww7xzjvvKMBRm4yAq37ufqDWyWFqmfyllslfapXcpZbJX2qZ/KWWyV9qnRxumRFw1LSOLsBNi/nmmy9GjRpVl2+m9rj11luLE3A68a633nq5F2qHHKaWyV9qmfylVsldapn8pZbJX2qZ/KXWyeGW1XPNoGf+CgAAAAAAAFSAAhwAAAAAAABUkAIcAAAAAAAAVJACHAAAAAAAAFSQAhwAAAAAAABUkAIcAAAAAAAAVJACHAAAAAAAAFSQAhwAAAAAAABUkAJcHRk8eHD069fvS1tZa/YBAAAAAACg7RTg6sj48eNj7NixX9rKPv3006nuAwAAAAAAQNspwAEAAAAAAEAFKcDVkUsuuSQaGhratAEAAAAAAFAZCnAAAAAAAABQQQpwAAAAAAAAUEEKcAAAAAAAAFBBCnAAAAAAAABQQQpwAAAAAAAAUEEKcAAAAAAAAFBBCnAAAAAAAABQQQpwAAAAAAAAUEEKcAAAAAAAAFBBCnAAAAAAAABQQT0aPpfb0OH69OkT48ePj549e8bcc8+dexk7dmykt2KPHj2ib9++uRdqhxymlslfapn8pVbJXWqZ/KWWyV9qmfyl1snhlr322msxYcKE6N27d4wbNy731gcFODpVr169ijcTAAAAAABAkgbtfPbZZzmqDwpwdKoZZ5wxxowZUxTiBg0alHtpqvIbGUitksPUMvlLLZO/1Cq5Sy2Tv9Qy+Ustk7/UOjncsjfffLMovPXr1y9Gjx6de+uDAhxUgfnmmy9GjRoV8847b7z66qu5F2qHHKaWyV9qmfylVsldapn8pZbJX2qZ/KXWyeHup2f+CgAAAAAAAFSAAhwAAAAAAABUkAIcAAAAAAAAVJACHAAAAAAAAFSQAhwAAAAAAABUkAIcAAAAAAAAVJACHAAAAAAAAFSQAhwAAAAAAABUkAIcAAAAAAAAVFCvIz+X20AXWnnllWONNdYovkItksPUMvlLLZO/1Cq5Sy2Tv9Qy+Ustk7/UOjncvfRo+FxuAwAAAAAAAO1kCkoAAAAAAACoIAU4AAAAAAAAqCAFOAAAAAAAAKggBTgAAAAAAACoIAU4AAAAAAAAqCAFOAAAAAAAAKggBTgAAAAAAACoIAU4AAAAAAAAqCAFOAAAAAAAAKggBTgAAAAAAACoIAU4aOaSSy6JHj16tLgtv/zyea/uae+9927xuKRt2223zXvRleTv5Mnf6id/J2/48OEtHpe0rbHGGnkv6kG1vQ+uv/76Fr+XtC200EJ5L6qZc2vHef/991s8rk3biy++mPekPeRwx/nHP/7R4nFt2mg/+dtx5G/Hk78dR/52PPnbcfyNOG0U4KAOjRkzJu6999446aSTYsstt4xvfetbMeecc8b0008fffr0iTnmmCO+/e1vxx577BEPPPBAfhZUjzfffDOuvPLK2GmnnWKllVaKQYMGFbk788wzx8ILLxybbrppXHDBBfHxxx/nZ0B1GTVqVPGh9LDDDov11lsvZptttkk+lN599915TwA6y+jRo+P+++8vbmpIn5EXW2yx6Nmz58RzsxtyqGbjxo0rPj/86le/iu9///ux4IILxowzzhj9+vWLueeeO1ZfffU49NBD47nnnsvPgOrx9NNPx4UXXhi77757rLnmmsXfdDPNNFNMN910Mcsss8Siiy4am2++eXHB3N941JJPP/00lltuuUn+1nODJNWknJut3c4777z8bCqhR8Pnchv4XPrAt9122xXtAQMGFIWqJl/96lfj7LPPzlH12myzzeKaa67J0dSlD8CpmJE+BE/J+eefH9ddd12Oovjj7vnnny/a22yzTXHs6Fq1nr8PPfRQceHgnnvuiQkTJuTeyRs4cGCceeaZscUWW+SeyZO/1a8ezr+PPfZY/OAHP4jXX38997TsrrvumqY/zFIxr/whOBX4nnzyyaKdLrgp6NWPansfpPPyUUcdlaOId999Nx555JGinS7+GuFT/erh3FoJ66yzTnHu/eyzz3LPl03r54FU0Ntkk01y1OjWW2/NrYgXXnjBXcAV0N1zON1cueuuuxafY9Ooy6lJF8522GGHGDZsWFHgmJL//Oc/xWs3+eSTT4obOZu4XNR+zsERN998c/zoRz/K0dSlmy/POOOM+OlPf5p7WiZ/O578nboTTjghDjnkkBw1as3fZ/K348nfRulzwbQ699xzY+edd87Rl/kbcRqlAhzwhYsvvjj9liu2z39p5t7asskmm0z8GdI266yzNnz9619vWGuttRpWW221hoUXXrjh8xPwJPvMNddcDU8//XR+hdY54ogjJj5/m222yb10pVrP35NPPnni99+09enTp2GppZZqWGONNRpWXnnlhplmmulL+xx99NH5FVpP/lafejj/3nXXXRN/hiltab/2qIdjRcuq/f+2nOOf/3GVe6lmzheNUr42HYfJbZX4PFB+vRdeeCH30h7dPYffeuutSfKqaVtggQUaVlpppeIz8kILLfSlx9Pff++//35+ldZJOVt+DdrPObih4cYbb5wkr3r37t2w+OKLN3z3u99tWHvttRtWWGGFhn79+k2yT9qGDx+eX6F15G/lyd8pe/bZZ1vM3bYcK/lbefK3UTmv0jXh9dZbb6rbzTffnJ/dOv5GnDJTUEIdStP0pbvFfv3rXxd3Hbz33nvx6KOPxp133lmMLEqjflJ/+W6GNFpj6623btWoI+hoabrUlI+33XZbcadvGumT7lp/8MEHiztrPv8gFbPOOmveO+Lwww+PW265JUdQHeaZZ57YcMMN45hjjomLLroo9wLQldKUfausskrstddecdlll8UKK6yQH4Hqt+KKK8aIESPi1VdfjZdeeqm4Az19Rk6jLf/+978Xud0kxUOGDMkRdJ001W9aViAtkfHwww8XU0ymKSnvu+++uOOOO4pcTdcs0hSVs88+e35WxL777lvMLgHVKp1j0yjlNBVw+fwL1erSSy+NP/3pT1Pd0qw+VI4CHNShdKH3qquuKgoYaehvSxZYYIFiSHGa7q9JGi6cCnTQVdJFsf322y9efvnlooCcpotKxbiytE5AWqMlTemQ9m9y0EEH5RZ0nbR+xQ033BCvvfbaJOvApal+AWi99Lu+aR2KSkyze9ppp8UTTzwR//vf/yauA7fVVlsVN65BR6hUDqfnr7322sWNaH/5y19i8ODBMe+88+ZHv5CKyakYV/7McfXVVytg0CaVPAenC7mpWHzAAQcUU8Clv+eaSwWM7bffvsjh1E7SlMHpXA3TqtKfIVqSCsYpX5M0BeUiiyxStKG9OiN/6VwKcNDNpQvD5SKGkztdaZdddomTTz55kjsfJyctdLznnnvmKOKf//znxDXdoKukC2I//vGPY6655so9AFSDn/zkJ7H00ktHr169cg/Uhtlmm60YJbTyyivnnsnr3bv3JGvGJtdee21uQfVL5+ny+t6uT1CN3njjjdh///2L9hJLLBEHHnhg0QZoiQIcNS0N8W66K2BafuGlxU3T9HVNz013BrZX+Q6FI488Mvc2LsS+2WabxcILL1zcyZUKC6uuumpxJ9fYsWPzXl0nfU9LLrlkjhqnoqRzyN/2S4WOsjSVCZ1D/oL3AR2jLXklp6gWzotdb7HFFiu2Jj4ft578rQ7f+MY3csv1iWkhfzvPHnvsUUybmqSbHvr06VO0aTv5Sz1TgKOmlee0T9PVffrppzmasmuuuaaYfiZJJ8yNNtqoaFfSRx99FD//+c9j/fXXL/69NC9/OiG/8847xbQ3v/zlL4sRPGn+/q5WPm6m4ek88rf9Bg4cmFuNPvjgg9yio8lf8D6gY7Qlr+QU1cJ5sTqUPyP7fNx68rc6lI+76xOtJ387x4033hi/+93vinYq1Ky++upFm/aRv9QzBThq2uabb17c6ZCkO6Nuuummoj01F1xwQW5FsU5ape9WSXOVb7LJJsU6bMncc89d3BXxne98Z5LpHp955pn40Y9+1OpfLB0h/cJ48skncxStmtqEypC/7ZcWny8bNGhQbtHR5C94H9Ax2pJXcopq4bxYHcqfkX0+bj35Wx3K69K7PtF68rfjffjhh7HrrrsW7TQ9cFo+g8qQv9QzBThq2vTTT18snt4kLYI6Nc8++2zce++9OYrYcccdc6tyzj333LjtttuKqR3Toqz//e9/i3/zgQceiLfeeiv22muvvGfE448/HpdeemmOOteECRNit912i/Hjxxfxoosu+qUp/eg48rf9ymtapMW8y9OV0LHkL3gf0DGmNa/kFNXEebHr/eUvf4nXXnstRxErrbRSbjE18rfrpYvu1113XY4i9tlnn9xiauRvxzv44IMnjnJq7dr1tI787Rxp7cKlllqqGF2cjvl8880Xa665ZjHVZhrZR8dQgKPm7bTTTrkVccsttxQnwym56KKLcqvxbqp0Eq20NKrsa1/7WnFCXmONNXJvo3SCS/MDlwtdnXmCHjduXLz88svxm9/8pvhj7Le//W3RP2DAgGKu5LRwN51H/rZd+nCQpiZo8oMf/GDiHVN0DvkL3gd0jGnJKzlFtXFe7FpHHXVUbjWu973xxhvniNaQv50r3RSc1tJKF7TTsU/TxzU0NBSPpQvCzX9epkz+dpyHHnqoKMYkq622WjH9JJUlfztemkLzX//6VzGac8yYMTFq1Ki4++67i88Oaf3YnXfeuVhXj8pSgKPmLb300sWJNklDgy+55JKi3ZI0FLh8MuyIuyOanH/++VMsBqQ5gpv89a9/7bBhymmu4qbFQ9PWt2/fWHDBBWPLLbeMRx55JHr16lUMp37sscdi+eWXz8+is8jftkl/qJU/GPTs2TOOPvrook3nkb/gfUDHaG1eySmqkfNi17n88svjT3/6U46imCotTZdF68nfjrfppptOvD6RrkekNQvTOlojRowojvkSSyxRzHRyxBFH5GfQWvK3Y6RZowYPHlxch0hTHJ533nlF/lJZ8rfjzTHHHLHiiivG2muvHd/85jejf//++ZHGY5p+1lVWWWXiunpUhgIcdaG8WGe6A6Lpjqnm/vjHP06cjmOmmWaKn/70p0W70tIHxjQn8JSkXyqpaJCkxTu7aqjv97///eIPs1SUo2vI32mX7oZM0wA0ScPo06K3dD75C94HdIzW5JWcolo5L3a+J554orhBrckiiywyyWg4Wk/+dp0FFlgg9txzz1hvvfVyD9NK/lbeCSecEE899VTRPuCAA4oRUXQM+Vt5aWRgGqn3/PPPx5tvvllMVX3HHXcUgzLSCOQ09e+yyy6b945igMbPfvazHFEJjdkBNS6daGeZZZainU4o5UV7y8pzCKeTSXnBzEpKJ9+pSdOBpEVbm7z//vu5VVlpXaz04bVpS784vvrVr+ZHG+dYT3c+pOn70tBqOp/8nTZXX311HHvssTmK+Pa3vx3HHHNMjuhs8he8D+gYrcmrWsypN954I9Zff/2pbrfffnt+RuPFrpb2KW+nnnpq3ptqUM/nxWrM4fQ9pan7Ro8eXcRp1pO05ED5znZaT/52bP6usMIKE69PpGsRKU7ff5KWy0g3CKcC8p133ln0MW3kb2Xz9+mnn47jjz++aKdraYceemjRpmPI38qff1PxOK1Vt/DCC+eeL6Rrxj/84Q/j4YcfLr42SaPpb7zxxhzRbg1QJ3bfffd0W0Sxbbnllrn3C//9738bPj+xTNzn85NLfmRSF1988cR9Vl999dw7ddtss83E5x188MG5d8oWXHDBic+5++67c2/nGDVqVMNBBx3U0Lt374nfw+cffBs++eSTvMfUHXHEEROfm35+2k7+ts5tt93W0KdPn4n/7mKLLdbw+YeY/Oi0kb+VI3+n7oUXXpj476Xtrrvuyo+0TVuPFR2nu7wPUu42PSc9n441pbyq1Zxqfj6s1NbW3+XpmLT3NcrK31P6Wbuzej0vVlsOv//++w3LL7/8xNfp1atXwzXXXJMfnTbNf7buTP5O29be8+fYsWMbrrrqqoaFFlpo4mv27dt3mj6ny98vyN9p2yaXvxMmTGhYddVVJ+6XrkdMTvlnnpZj1UT+fkH+TtvW3vNvkw8++KBhzjnnnPi666yzTn5k6vyNOGVGwFE3ysOUf//733/pjoM0N3DTPLzLLLNMMWqmo6Q5oafV5+/H3PpCS3c2NN/SHRRtMc888xTD6G+44YZi3vUkDTM+7rjjijadS/5O3f3331/c2Ttu3Lgi/vyXejFsftCgQUVM15G/UJ/vA7relPJKTlHtnBc7XhrxlmYy+cc//lHEaU2iNCogrfFN+8jfzpV+xjTy5e9//3uxDlSSpnLbbrvtJh5nWk/+VkZaD+u+++4r2j//+c9jnXXWKdp0LPnbNdJUnrvsskuOosj9MWPG5Ij2UICjbqST7korrVS00wniiiuuKNpN0tzBTTpycc5KuvXWW6e6ffLJJ3nvtkkXkXfYYYccRbGYrAsmnU/+Ttmjjz5aDIf/+OOPizgtJp+Kb/PPP38R07XkL9Tn+4CuN6W8qtWcWmihhYrPmlPbttlmm/yMiLvuuqvFfcrblBbqp2vU63mxWnI4HdMNN9wwHnzwwdwTcdZZZ03y79J28rdrzsEDBgyIESNG5CiKtZRuueWWHNFa8rf9+ZuO20EHHVS0Z5111jjttNOKNh1P/nbdZ+A11lgjtxqP/SuvvJIj2kMBjrpSvkuiPB9wmjP42WefLdppPvytttqqaNNo8803z62It99+e+KxonPJ35alBeXXXXfd+OCDD4p49tlnL4pvaV0Aqof8Be8DOsbk8kpOUQucFzvG+PHjY9NNN51kjayhQ4cWa2dROfK3a6Q1l+abb74cRTz00EO5xbSQv+2Tig//+9//inYagTXXXHMVo4wnt6VRWU3SMS4/5iahaSd/u0a62b0sXSOm/RTgqCvlxTrTdIppS8on64033jgGDhyYo+rW0p0Nzbd0B0V7NR9F5ATbNeTvlz3zzDPxve99L959990iTndEpgVpl1xyySKmeshfqL/3AdVhcnnVRE5RzZwXK++zzz4rpkK7+eabc0/EkUceGfvvv3+OqBT523XK1yhcn2gb+Ustk79do2nWqSYzzDBDbtEeCnDUlXRiKN/9cMEFFxR3rFxzzTW5p7aGJ3eWprt6mqTh9XQ++TupNN3I2muvHW+++WYRp/mo//SnP8Xyyy9fxFQX+QveB3SMyeVVEzlFNXNerKwJEybEtttuW6yJ0+SAAw6II444IkdUkvztOuXfc65PtI38bZ+ePXvGbLPN1uotjcZqMt10003yWL9+/fIjtJb87Rr/+te/cqvRoEGDcov2UICj7pSHKf/mN78p7o5oWqdn4YUXjjXXXLNo84WmRWWT9EFhgQUWyBGdTf42GjVqVFF8S1+T9OHrj3/8Y4curkv7yV/wPqBjtJRXiZyiFjgvVs4uu+wSl19+eY4i9txzzzjppJNyREeQv53vrbfeiqeffjpHEV/96ldzi2klf9tu5plnLkZftnb72c9+lp8Zscoqq0z2MVpP/na+q666Krca16xrPiUlbaMAR91ZdtllY8UVVyzaaZ7mQw89tGgn22+/fTH/Ml9Ix2jYsGE5ilh99dWjf//+OaKzyd8oRryl4lsaAZeku8VuuOGG+O53v1vEVC/5C94HdIzJ5ZWcohY4L1bGPvvsEyNGjMhR44XJ4cOH54iOIn87X5pSNY32bPKDH/wgt5hW8pdaJn8714033lhsTTbaaKPcor0U4KhL5bsk0sKpSa9evWK77bYr2vXs17/+dRx33HET18yakn//+9/F+lpNo4ySgw46KLfoKt05f997771Yd911i7Xfkj59+sR1111XFOSoDd05f6GJ9wEdoXleySlqifNi+xx++OFx2mmn5SiKaSjPO+88Fx87ifxtuw8++CA222yzies3TUk6tmlK1XPOOSf3RGy55ZZfWrOeaSN/qWXyt+3SlJ2bbLJJPProo7ln8q688spifdkmaRaqAw88MEe0lwIcdSkN725arLPJ97///ZhnnnlyVL9S4e2www6LOeecsyhkpPUArr766rjzzjvj/vvvj1tuuSVOP/302HDDDWPppZee5ES8++67FwU5ulZ3zt90R9Pjjz+eo4jZZ5+9uLN3/fXXb9VWnpKHrtGd87dJOvemkZvlbfHFF8+PNmrNPtQu7wM6QvO8klPT5rLLLvvSeTdt9957b96jdfvQNs6LbffXv/41jjnmmBw1rkuUbqBMx6+lz8PNt2222SY/k7aSv22XRrKlNZu+/vWvxxJLLBF77LFHMY1cui7xwAMPxB133FGce1P/V77ylTj55JPzMxunnjz11FNzRFvJX2qZ/G27hoaGuPbaa+Ob3/xmfO1rX4u99947Lrnkkrj11lsnXh8eOnRosdTLFltsEaNHjy6el27uufjii2OuueYqYtpPAY66lCr16U6psu62OOenn34at99+exx99NHx05/+tCisrbrqqsX0Demkm6b0Gz9+fLFvunvk4IMPjjPOOKOI6VrdOX8//vjj3Gr03//+t/hw0Nrtueeey8+kqzj/RowbNy7Gjh07yZb6ytL5t/k+aaM+eB/QEZrnlZyaNp999lmL5910caJJulDc0j7lqdBoG+fFtmv++TjlY/o7r6XPwi1t99xzT34mbSV/KyPNcnLWWWcVxy5dl0hLDKyzzjrxi1/8ouh//fXX854RK6+8ctx1113FjcW0j/yllsnfykjraqbBGGnkYLo5p+n6cBrl9sgjj+S9Imaaaaa44oorYvPNN889VIICHHVrueWWy60oFo384Q9/mKP6lkZV7LzzzsWCpFMz44wzFndEplFwxx9/vClMqkh3zV/qg/wF7wM6Rjmv5BS1xnmRWiZ/2yZdc0hLZKyyyirF8gJTk/a79NJLi9EZpp6sHPlLLZO/bTP99NMXBbcFF1ww90xeGmW45557xpNPPjnJVJRUSAPUqTXWWCPdzlpsBx10UO6duosvvnji81ZfffXcW5veeOONhjvuuKNh5MiRDSeddFLDMccc0zB8+PCGX//61w1///vfG8aNG5f3bJsjjjhi4rHaZpttci+VIH87nvztOPK34zlW1a9e3wd33XXXxO/v8z/mci+dpZxXreV80bmajnXaXnjhhdxL4vNB9Us523Ss08YX5G/7jRkzpuGRRx5p+M1vftMwbNiw4vrE0KFDG84///yG22+/veGdd97Je7aN/J08+Vv95O/kyd/2S9eH03n2wgsvLK4PH3300cV5+JJLLimuD3/66ad5z7bxN+KUGQFHXfr3v/8dd999d9FOo7q66/DkQYMGxdprr138/Gkx47Q23F577RVbb711rLDCCtG7d++8J9VE/lLL5C94H9AxmucV1BLnRWqZ/K2Mvn37FmsRpdEVv/zlL4vrE/vvv38MGTKkWDJj4MCBeU8qSf5Sy+RvZaTrw+k8u/322xfXh3/1q18V5+E0K1q6PpyWJqLjKMBRl9Iikk3SlIxp8d62+Oc//znJAta77bZbfqR7Ov/88yc5Hpdffnl+hEqSvx1D/nYO+dsxrr/++kmOhwXpq1s9vQ8eeuihSb6H9AcbXaN5XrWFc2tlpcXqy8czbbTM54Pq9J///GeS45kuxPFl8rc6yd/Wkb/VSf62jvytTv5GnEZ5JBzUjd///vcNPXv2nDj09c4778yPtE55iHLzbbnllst7dU977bVXi8clbabwqwz523Hkb8eTvx3ntNNOa/G4pM10MNWl3t4H1113XYvfS9pML9J52pNXzq0d57333mvxuDZtpqBs5PNB9XrsscdaPK5NG/K3msnfqZO/1Uv+Tp38rV7+Rpw2RsBR89ICkRtttFFssMEGscwyy8Qmm2wSEyZMKB5LVfi11lqraEM1kr/UMvkL3gd0DHlFLZO/1DL5Sy2Tv9Qy+Uu96pGqcLkNNSnNBbzmmmvm6Avzzz9/MSR23nnnzT1QfeQvtUz+gvcBHUNeUcvkL7VM/lLL5C+1TP5Sr4yAo65MN910sdBCC8Xuu+8ef/vb35ycqSnyl1omf8H7gI4hr6hl8pdaJn+pZfKXWiZ/qSdGwAEAAAAAAEAFGQEHAAAAAAAAFaQABwAAAAAAABWkAAcAAAAAAAAVpAAHAAAAAAAAFaQABwAAAAAAABWkAAcAAAAAAAAVpAAHAAAAAAAAFaQABwAAAAAAABWkAAcAAAAAAAAVpAAHAAAAAAAAFaQABwAAAAAAABWkAAcAAAAAAAAVpAAHAAAAAAAAFaQABwAAAAAAABWkAAcAAAAAAAAVpAAHAADQAe6+++7o0aPHxG3GGWeMDz/8MD8KAABAPVOAAwAA6ACXXnppbjX6+OOP43e/+12OqIRygfPFF1/MvQAAAF1PAQ4AAKDCRo8eHddcc02OvtC8KAcAAEB9UoADAACosGuvvTY++uijor3KKqvETDPNVLTvu+++eOGFF4o2AAAA9UsBDgAAoMIuueSS3IrYcccdY+ONNy7aDQ0N8etf/7poAwAAUL96fP4HYENuAwAA0E4vv/xyLLTQQkWxbfrpp4833ngjHn744VhnnXWKxxdeeOF47rnninXLaJ/yMUwjC9NxBwAAqAZGwAEAAFTQZZddVhTfkg022KCYfnKttdaKeeedt+j7z3/+E/fff3/RnpIXX3yxKDA1bU1S/3LLLRcDBgyIfv36xVJLLRWHH354fPDBB3mPL6RpME855ZT4zne+E7PMMkv07du3KFKlUXnPPvts3qv1brjhhthmm21i0UUXjZlnnjlmnHHG+MpXvhKbbLJJMbLv008/zXtO3VtvvRUnn3xyUZicZ555imJlnz59ip9r2WWXjc033zxOO+20eP755/MzGt19991fOiZJ+j7Kx6tp23bbbfMejdLoxKbH1lhjjdwb8cgjj8Ruu+0WSy+9dAwcOPBLjzf53//+F7/97W9jp512ipVWWinmmGOO4vtO/8/pe9h0003joosuinHjxuVnTN2ECRPiuuuuiy222CIWX3zx4thON910E18zHaODDz447rzzzvjss8/yswAAgGpmBBwAAEAFpQLKv//976KdClY//vGPi/b+++9fFMOSHXbYIS644IKiPTmp0JaKL03Sn26p8JOeO3r06Nz7ha9+9atx7733FsWs5G9/+1sx9eUrr7xSxM2l4t3VV1898fubklQ03HrrrePBBx/MPS1bYokligLXiiuumHtadtVVV8XOO+9cFLNaI40iHDRoUNFOBbg111yzaLdGKhiWpwRN7e22265or7766nH77bfHAQccEMOHDy/6ytLj6d9rkv7/DjvssBg7dmzumbz555+/OL6pSDclacRkKtqlAmBrnHTSScX3CwAAVDcFOAAAgApJBapVVlmlaM8+++zx3//+N3r37l3Ejz/+eCy//PJFO41wev3114tRX5PTvAB38803x49+9KOiEJcKXKmA9n//93/x5ptv5j2iGL312GOPFaPbVl555aLA1bNnz2KUXPp+UjEuTX/ZJP37Tz75ZDEt5uQ888wzxQi+9LM06d+/fyy55JLFyK/0Pbzzzjv5kShGxd10000tjh5L/vSnP8UPf/jDYtRXkzQ6MP2s6Wf68MMPi+kkyz/Xa6+9FnPNNVfR/uc//zmxAHXrrbcWX5PVVlutxeOZRo/tu+++OfpyAS4dm3POOaeIm36u9H2k7yEdl3IBLo0cvPDCC3PUWGRL33v6mdNow6effnqSomJ6nTTa8Rvf+EbumdTHH39cjGYs/5+k10qFzDQScMyYMUXxMY0CbDpeJ5xwQhx00EFFGwAAqGKpAAcAAED7DRkyJN3gWGy77rpr7v3CMsssM/HxK664Ive27IUXXpi4b9oGDhzYMN100zWccMIJeY+Ghs8++6zhlFNOmWS/kSNHNiy33HJFe4sttmgYNWpU3rvR7bff3jDzzDNP3H/LLbfMj3zZuHHjGpZffvmJ+/bp06fhpJNOahg9enTeo6Fh/PjxDZdeemnDLLPMMnG/Oeecs+Gtt97Ke0xq6aWXnrjfKqus0vD444/nRyb10ksvNZxxxhkNSy65ZMNrr72WeyfV9DppS8erNS6++OKJz5lpppmKr/37928499xzG8aMGZP3avT888/nVqPBgwc3fP/732+4/PLLG95+++3c+4X0/3HzzTc3LL744hP/ja997WtFf0vK/3fp/+Syyy4rjnlz6Xj/4Q9/aNh0000bhg4dmnsBAIBqZgQcAABABaTRSnPPPXe8//77RfzAAw8Ua6+VDR06NA488MCive66604ygqu55iPgkrS+3FZbbZWjL2y//fZx8cUXF+00Ki2tP5ZGa40cObLoa648CiyNGkvrsaWRV82dccYZsddee+Uo4sorr4yf/exnOZpUGv2XpoZsWvssTTF57rnnFu0maQTeAgssULTTaLMUzzrrrEU8OelP1rSlkXzNpXXamqQRa2l9u6kp/+xJr1694s9//nMxgm5q0tSfLR2n5t5999341re+VUzdmaQRgWnUX3Nrr7128W8naUrSNL3o1KQ14NL3DAAAVLcv/wUDAADANPvDH/4wsfiWpi5sXnxLtthii4mFpDvuuCNGjRpVtFtj/fXXb7H4lgwZMiS3oiiAzTbbbC2uadYkfR8zzTRT0f7kk0+KaSubS0WvpqkZk5/85CeTLb4l6efde++9c9RYLGy+xturr76aW1FM/Ti14luSimwtFd8qJRUKW1N8S1pTfEsGDhwYhx56aI4ac6Ml5ePRNHXp1Ci+AQBAbVCAAwAAqIBLL700tyK23HLL3JrUfPPNN3FttLSmVypStdaURkd9/etfn6QwkwplUyoWpVFyTevRJWkdt+bSemZp/bcm5ZFwk7PnnntOLJal0WKpyFiW1kRrktapS8W/rlYuXlZSWqevySOPPJJbkyofj7S2HQAAUD8U4AAAANrptddei9tuuy1HMdmRakn5sXLRbmrKBZ3mUkEtjbpqstJKK+XW5M0111y5FRNH7pU9/PDDudU48mvVVVfN0eTNO++8scIKK+Ro0tdIvva1rxVTXiZpmsZNN920mDqyq8wyyyyxzDLL5GjaPPXUU8UIwV133TV++tOfFlNMplGKTVvqbzK5kY7f+MY3citijz32iJtvvrkYeQgAANQ+BTgAAIB2uvzyy4u1uZJvfvObsdhiixXtlmyyySYTi1BplNlf//rXoj01c845Z261bIYZZsitiEGDBuXW5JX3//jjj3PrC88991xuNU4X2dppIMsFrfJrJGnEV5rysckf//jH+OpXv1pMX3n44YfH7bffXoyc6yxpjb3yOnKt8Ze//KUohi699NKx2267FevcXX311cXPktb0a9ruvffe/Iz40lScTXbfffeJIxfffPPN+NGPflSskZdG5V1xxRXx8ssvF48BAAC1RwEOAACgncoj2aY0+i2ZeeaZY4MNNshR60fBpVFurTUt+yYtjboqj4pLa8q11uyzz55bEe+9915ufeGEE06IjTbaKEeN//ZDDz0UxxxzTKy77roxYMCAWHPNNWPkyJExZsyYvFfHaFoHr7V++9vfxne/+91WF02bpHX5WpKmDr3ooouib9++uadxXbj0s6c8WnDBBWPRRReNAw88MJ5//vm8BwAAUAsU4AAAANrh0UcfLaYjbHLYYYfFrLPOOsXtD3/4Q9474qqrrppsgaYrjR07NrfaXvwrv0aTVGy67rrrimOwzjrrxHTTTZcfaTR+/Pi4++67i1FgiyyyyJfWkauk1o7qS1588cXYdtttJ450nGOOOeKQQw4pvr80jeZHH31UPJYKimlr7dSav/jFL+Jf//pX7LLLLi0WOtMowqFDh8YSSyxRFOI+/fTT/AgAAFDNFOAAAADa4ZJLLsmtRqkQk6YcnNJWHtmV1kK78cYbc1Q90vpoTT788MPcmrryvqnYODlpFGBaNy/9/DfddFPsv//+8a1vfWuSKSHT2mlpbbU07WNXGz58+MT/t4UXXjieeOKJOO6442LttdeOhRZaqFgnr1zQm5Zjll4vrSeXpqFMBd1TTz21OD7lEXqp8JYKcfvuu2/uAQAAqpkCHAAAQBulkWtXXnlljtqutdNQdqY0wqtJa0dzJeWpEsuvMTmpyJSKbKm4lKZ2TFMwHnzwwRPXRkvH+NBDDy3aXSmtT9ckrVc3tTX5UvFwWqUCXpqWcp999ilGCL711lvFtJepwNfk7LPPLkbjAQAA1U0BDgAAoI1uvvnmeOedd4p2mlrxgw8+mDgF4dS2Bx54oHhecssttxSjn6pJKgQ1SQWf1nx/aQrGv/3tbzma9DVaa5555onjjz++mMqzyb333tvidJbl0XLpmHakl19+ObcivvnNb+bW5KV17dor5dTmm28et956a/Tu3bvoS8f4zjvvLNoAAED1UoADAABoo/LItXXXXXeSKQOnZuWVV4555523aKfpBX/zm98U7Wrx7W9/e+J6bqm4lUZiTU0aJVYu1K266qq5Ne022mij3Go8Pk2FzrI07WOTTz75JLc6RlqbrrVSkeyyyy7LUfsttthiseSSS+Yo4o033sgtAACgWinAAQAAtEGaHvCPf/xjjiI23XTT3GqdNHprk002yVH1TUOZ1oArf38nnHBCMcJvclKR7JBDDslRxPLLL/+lEXDTMkqt+RpqAwYMyK0vzDXXXLkV8dxzz+VWx5h77rlzKyYZvdiSYcOGtWrazmk5HmltwSYDBw7MLQAAoFopwAEAALRBGrHWNCoqjRTbYIMNiva02GyzzXIr4h//+Ef885//zFF1OOCAA2K66aYr2q+99lpsvPHGLRbh0jpt2223XTz22GO5JyaZQrLJFVdcEVtuuWU8+uijuadlH3/8cRxxxBE5ivjWt74V008/fY6+UC7wnXvuuS1OU1kpq6++em5FHHPMMZNd4y0VUtMadq2RipTpmIwZMyb3tCz9bOW19VZbbbXcAgAAqpUCHAAAQBuUR6ytvfbaMeuss+ao9VZZZZVJRlZV2yi4VCD61a9+laMo1h5baqml4rjjjivWJfvzn/8cp59+erHf5ZdfnveK+PnPfz7J6LkmTVNtpjXUFl988dhzzz2Ln/m2224rRpWlNfWOPvroYrrFu+66Kz+r5WJessUWW+RWxJ/+9KfiWK611lrF9JVN2xlnnJH3aJ899thj4ppzr776avEzp+81Tbt59913x4UXXhjf+973Ytttty2moNxxxx2LfackFVy32mqrGDRoUPzsZz+L0047LW688ca4//77i2M7YsSIWH/99WPXXXfNz4j4yU9+Msl0lAAAQHXq0dDRK1UDAADUmSeeeCKWXXbZHEVRfNl+++1zNG1SYeess84q2nPOOWdR3Emjzl588cX4yle+UvQnU/vTbaGFFoqXXnqpaKfi1RprrFG0JycVipoKfmm02ZFHHlm0W7LffvvFqaeemqMpS6Pkrrzyyonrx5VdcsklxUi5aZGKfeWpLZvbeuutJyn+NbfNNtsU/26T8veQRrWl4llrHXvssZMUJCdn8803jxNPPDEWXnjh3NPy/19TQa+1VlxxxbjllltanI4TAACoLkbAAQAATKPySLVULEsjrdqqPA3lG2+8UYzkqjannHJKsd5dGvU1OakAmIpb11xzTYvFt2TNNdcsprVceumlp1h8So+laRbvueeeKRbfkssuuyyuvfbaYg2+VPCaccYZp7mw1VppJF4qtqYRay1Ja9INHz48fvvb37bqe0iF13XXXTdmmGGG3NOy+eefP0466aS47777FN8AAKBGGAEHAABAq6W1yB566KGiWJimWpxjjjmKtdiWW265vEfrvPfee8W6d+n13nnnnWJ6yv79+xeFvLTm2zzzzJP3rD5pzbZUDHvqqafik08+KQpyiyyySHz3u9+NXr165b1aL/3saTrKf//738Vae6NHj45+/foVr5uO6zLLLBM9e7p/FgAAaokCHAAAAAAAAFSQW+gAAAAAAACgghTgAAAAAAAAoIIU4AAAAAAAAKCCFOAAAAAAAACgghTgAAAAAAAAoIIU4AAAAAAAAKCCFOAAAAAAAACgghTgAAAAAAAAoIIU4AAAAAAAAKCCFOAAAAAAAACgghTgAAAAAAAAoIIU4AAAAAAAAKCCFOAAAAAAAACgghTgAAAAAAAAoIIU4AAAAAAAAKCCFOAAAAAAAACgghTgAAAAAAAAoIIU4AAAAAAAAKCCFOAAAAAAAACgghTgAAAAAAAAoIIU4AAAAAAAAKCCFOAAAAAAAACgghTgAAAAAAAAoIIU4AAAAAAAAKCCFOAAAAAAAACgghTgAAAAAAAAoIIU4AAAAAAAAKCCFOAAAAAAAACgghTgAAAAAAAAoIIU4AAAAAAAAKCCFOAAAAAAAACgghTgAAAAAAAAoIIU4AAAAAAAAKCCFOAAAAAAAACgghTgAAAAAAAAoIIU4AAAAAAAAKCCFOAAAAAAAACgghTgAAAAAAAAoIIU4AAAAAAAAKCCFOAAAAAAAACgghTgAAAAAAAAoGIi/h8ReO6g/AHWagAAAABJRU5ErkJggg==;" vertex="1" parent="1">
                    <mxGeometry x="128.24" y="2374.52" width="293.52" height="235.48" as="geometry"/>
                </mxCell>
            </root>
        </mxGraphModel>
    </diagram>
</mxfile>